G04 #@! TF.GenerationSoftware,KiCad,Pcbnew,10.0.1*
G04 #@! TF.CreationDate,2026-05-02T15:45:56+03:00*
G04 #@! TF.ProjectId,Pi-EGT,50692d45-4754-42e6-9b69-6361645f7063,rev?*
G04 #@! TF.SameCoordinates,Original*
G04 #@! TF.FileFunction,Other,User*
%FSLAX46Y46*%
G04 Gerber Fmt 4.6, Leading zero omitted, Abs format (unit mm)*
G04 Created by KiCad (PCBNEW 10.0.1) date 2026-05-02 15:45:56*
%MOMM*%
%LPD*%
G01*
G04 APERTURE LIST*
%ADD10C,0.050000*%
G04 APERTURE END LIST*
D10*
X106570000Y-44430000D02*
X106570000Y-50530000D01*
X106570000Y-50530000D02*
X158370000Y-50530000D01*
X158370000Y-44430000D02*
X106570000Y-44430000D01*
X158370000Y-50530000D02*
X158370000Y-44430000D01*
X120050000Y-78400000D02*
X121950000Y-78400000D01*
X121950000Y-82100000D01*
X120050000Y-82100000D01*
X120050000Y-78400000D01*
X122150000Y-63050000D02*
X125850000Y-63050000D01*
X125850000Y-64950000D01*
X122150000Y-64950000D01*
X122150000Y-63050000D01*
X109770000Y-88120000D02*
X111730000Y-88120000D01*
X111730000Y-91880000D01*
X109770000Y-91880000D01*
X109770000Y-88120000D01*
X121100000Y-73400000D02*
X126900000Y-73400000D01*
X126900000Y-76600000D01*
X121100000Y-76600000D01*
X121100000Y-73400000D01*
X117800000Y-78400000D02*
X119700000Y-78400000D01*
X119700000Y-82100000D01*
X117800000Y-82100000D01*
X117800000Y-78400000D01*
X120050000Y-65150000D02*
X121950000Y-65150000D01*
X121950000Y-68850000D01*
X120050000Y-68850000D01*
X120050000Y-65150000D01*
X109800000Y-84150000D02*
X111700000Y-84150000D01*
X111700000Y-87850000D01*
X109800000Y-87850000D01*
X109800000Y-84150000D01*
X122300000Y-78400000D02*
X124200000Y-78400000D01*
X124200000Y-82100000D01*
X122300000Y-82100000D01*
X122300000Y-78400000D01*
X141582500Y-89020000D02*
X145342500Y-89020000D01*
X145342500Y-90980000D01*
X141582500Y-90980000D01*
X141582500Y-89020000D01*
X123620000Y-88770000D02*
X127380000Y-88770000D01*
X127380000Y-90730000D01*
X123620000Y-90730000D01*
X123620000Y-88770000D01*
X122300000Y-66850000D02*
X122300000Y-68650000D01*
X122300000Y-68650000D02*
X123450000Y-68650000D01*
X122500000Y-65820000D02*
X122500000Y-66850000D01*
X122500000Y-66850000D02*
X122300000Y-66850000D01*
X123450000Y-68650000D02*
X123450000Y-69680000D01*
X123450000Y-69680000D02*
X124550000Y-69680000D01*
X123610000Y-65820000D02*
X122500000Y-65820000D01*
X123610000Y-66850000D02*
X123610000Y-65820000D01*
X124390000Y-65820000D02*
X124390000Y-66850000D01*
X124390000Y-66850000D02*
X123610000Y-66850000D01*
X124550000Y-68650000D02*
X125700000Y-68650000D01*
X124550000Y-69680000D02*
X124550000Y-68650000D01*
X125500000Y-65820000D02*
X124390000Y-65820000D01*
X125500000Y-66850000D02*
X125500000Y-65820000D01*
X125700000Y-66850000D02*
X125500000Y-66850000D01*
X125700000Y-68650000D02*
X125700000Y-66850000D01*
X124550000Y-78400000D02*
X126450000Y-78400000D01*
X126450000Y-82100000D01*
X124550000Y-82100000D01*
X124550000Y-78400000D01*
M02*
