G04 #@! TF.GenerationSoftware,KiCad,Pcbnew,10.0.1*
G04 #@! TF.CreationDate,2026-05-02T15:45:56+03:00*
G04 #@! TF.ProjectId,Pi-EGT,50692d45-4754-42e6-9b69-6361645f7063,rev?*
G04 #@! TF.SameCoordinates,Original*
G04 #@! TF.FileFunction,Legend,Top*
G04 #@! TF.FilePolarity,Positive*
%FSLAX46Y46*%
G04 Gerber Fmt 4.6, Leading zero omitted, Abs format (unit mm)*
G04 Created by KiCad (PCBNEW 10.0.1) date 2026-05-02 15:45:56*
%MOMM*%
%LPD*%
G01*
G04 APERTURE LIST*
%ADD10C,0.300000*%
%ADD11C,0.150000*%
%ADD12C,0.120000*%
%ADD13C,0.127000*%
%ADD14C,0.152400*%
G04 APERTURE END LIST*
D10*
X159885912Y-89445489D02*
X158385912Y-89445489D01*
X158385912Y-89445489D02*
X158385912Y-88874060D01*
X158385912Y-88874060D02*
X158457341Y-88731203D01*
X158457341Y-88731203D02*
X158528769Y-88659774D01*
X158528769Y-88659774D02*
X158671626Y-88588346D01*
X158671626Y-88588346D02*
X158885912Y-88588346D01*
X158885912Y-88588346D02*
X159028769Y-88659774D01*
X159028769Y-88659774D02*
X159100198Y-88731203D01*
X159100198Y-88731203D02*
X159171626Y-88874060D01*
X159171626Y-88874060D02*
X159171626Y-89445489D01*
X159885912Y-87945489D02*
X158885912Y-87945489D01*
X158385912Y-87945489D02*
X158457341Y-88016917D01*
X158457341Y-88016917D02*
X158528769Y-87945489D01*
X158528769Y-87945489D02*
X158457341Y-87874060D01*
X158457341Y-87874060D02*
X158385912Y-87945489D01*
X158385912Y-87945489D02*
X158528769Y-87945489D01*
X159314484Y-87231203D02*
X159314484Y-86088346D01*
X159100198Y-85374060D02*
X159100198Y-84874060D01*
X159885912Y-84659774D02*
X159885912Y-85374060D01*
X159885912Y-85374060D02*
X158385912Y-85374060D01*
X158385912Y-85374060D02*
X158385912Y-84659774D01*
X158457341Y-83231202D02*
X158385912Y-83374060D01*
X158385912Y-83374060D02*
X158385912Y-83588345D01*
X158385912Y-83588345D02*
X158457341Y-83802631D01*
X158457341Y-83802631D02*
X158600198Y-83945488D01*
X158600198Y-83945488D02*
X158743055Y-84016917D01*
X158743055Y-84016917D02*
X159028769Y-84088345D01*
X159028769Y-84088345D02*
X159243055Y-84088345D01*
X159243055Y-84088345D02*
X159528769Y-84016917D01*
X159528769Y-84016917D02*
X159671626Y-83945488D01*
X159671626Y-83945488D02*
X159814484Y-83802631D01*
X159814484Y-83802631D02*
X159885912Y-83588345D01*
X159885912Y-83588345D02*
X159885912Y-83445488D01*
X159885912Y-83445488D02*
X159814484Y-83231202D01*
X159814484Y-83231202D02*
X159743055Y-83159774D01*
X159743055Y-83159774D02*
X159243055Y-83159774D01*
X159243055Y-83159774D02*
X159243055Y-83445488D01*
X158385912Y-82731202D02*
X158385912Y-81874060D01*
X159885912Y-82302631D02*
X158385912Y-82302631D01*
X159314484Y-81374060D02*
X159314484Y-80231203D01*
X158885912Y-79659774D02*
X159885912Y-79302631D01*
X159885912Y-79302631D02*
X158885912Y-78945488D01*
X159885912Y-77588345D02*
X159885912Y-78445488D01*
X159885912Y-78016917D02*
X158385912Y-78016917D01*
X158385912Y-78016917D02*
X158600198Y-78159774D01*
X158600198Y-78159774D02*
X158743055Y-78302631D01*
X158743055Y-78302631D02*
X158814484Y-78445488D01*
X159743055Y-76945489D02*
X159814484Y-76874060D01*
X159814484Y-76874060D02*
X159885912Y-76945489D01*
X159885912Y-76945489D02*
X159814484Y-77016917D01*
X159814484Y-77016917D02*
X159743055Y-76945489D01*
X159743055Y-76945489D02*
X159885912Y-76945489D01*
X158385912Y-75945488D02*
X158385912Y-75802631D01*
X158385912Y-75802631D02*
X158457341Y-75659774D01*
X158457341Y-75659774D02*
X158528769Y-75588346D01*
X158528769Y-75588346D02*
X158671626Y-75516917D01*
X158671626Y-75516917D02*
X158957341Y-75445488D01*
X158957341Y-75445488D02*
X159314484Y-75445488D01*
X159314484Y-75445488D02*
X159600198Y-75516917D01*
X159600198Y-75516917D02*
X159743055Y-75588346D01*
X159743055Y-75588346D02*
X159814484Y-75659774D01*
X159814484Y-75659774D02*
X159885912Y-75802631D01*
X159885912Y-75802631D02*
X159885912Y-75945488D01*
X159885912Y-75945488D02*
X159814484Y-76088346D01*
X159814484Y-76088346D02*
X159743055Y-76159774D01*
X159743055Y-76159774D02*
X159600198Y-76231203D01*
X159600198Y-76231203D02*
X159314484Y-76302631D01*
X159314484Y-76302631D02*
X158957341Y-76302631D01*
X158957341Y-76302631D02*
X158671626Y-76231203D01*
X158671626Y-76231203D02*
X158528769Y-76159774D01*
X158528769Y-76159774D02*
X158457341Y-76088346D01*
X158457341Y-76088346D02*
X158385912Y-75945488D01*
X160800828Y-89016917D02*
X161872257Y-89016917D01*
X161872257Y-89016917D02*
X162086542Y-89088346D01*
X162086542Y-89088346D02*
X162229400Y-89231203D01*
X162229400Y-89231203D02*
X162300828Y-89445489D01*
X162300828Y-89445489D02*
X162300828Y-89588346D01*
X161300828Y-87659775D02*
X162300828Y-87659775D01*
X161300828Y-88302632D02*
X162086542Y-88302632D01*
X162086542Y-88302632D02*
X162229400Y-88231203D01*
X162229400Y-88231203D02*
X162300828Y-88088346D01*
X162300828Y-88088346D02*
X162300828Y-87874060D01*
X162300828Y-87874060D02*
X162229400Y-87731203D01*
X162229400Y-87731203D02*
X162157971Y-87659775D01*
X162300828Y-86945489D02*
X160800828Y-86945489D01*
X162300828Y-86302632D02*
X161515114Y-86302632D01*
X161515114Y-86302632D02*
X161372257Y-86374060D01*
X161372257Y-86374060D02*
X161300828Y-86516917D01*
X161300828Y-86516917D02*
X161300828Y-86731203D01*
X161300828Y-86731203D02*
X161372257Y-86874060D01*
X161372257Y-86874060D02*
X161443685Y-86945489D01*
X162300828Y-84945489D02*
X161515114Y-84945489D01*
X161515114Y-84945489D02*
X161372257Y-85016917D01*
X161372257Y-85016917D02*
X161300828Y-85159774D01*
X161300828Y-85159774D02*
X161300828Y-85445489D01*
X161300828Y-85445489D02*
X161372257Y-85588346D01*
X162229400Y-84945489D02*
X162300828Y-85088346D01*
X162300828Y-85088346D02*
X162300828Y-85445489D01*
X162300828Y-85445489D02*
X162229400Y-85588346D01*
X162229400Y-85588346D02*
X162086542Y-85659774D01*
X162086542Y-85659774D02*
X161943685Y-85659774D01*
X161943685Y-85659774D02*
X161800828Y-85588346D01*
X161800828Y-85588346D02*
X161729400Y-85445489D01*
X161729400Y-85445489D02*
X161729400Y-85088346D01*
X161729400Y-85088346D02*
X161657971Y-84945489D01*
X160800828Y-83302631D02*
X162300828Y-82802631D01*
X162300828Y-82802631D02*
X160800828Y-82302631D01*
X162300828Y-81802632D02*
X161300828Y-81802632D01*
X160800828Y-81802632D02*
X160872257Y-81874060D01*
X160872257Y-81874060D02*
X160943685Y-81802632D01*
X160943685Y-81802632D02*
X160872257Y-81731203D01*
X160872257Y-81731203D02*
X160800828Y-81802632D01*
X160800828Y-81802632D02*
X160943685Y-81802632D01*
X162300828Y-81088346D02*
X161300828Y-81088346D01*
X161586542Y-81088346D02*
X161443685Y-81016917D01*
X161443685Y-81016917D02*
X161372257Y-80945489D01*
X161372257Y-80945489D02*
X161300828Y-80802631D01*
X161300828Y-80802631D02*
X161300828Y-80659774D01*
X161300828Y-80374060D02*
X161300828Y-79802632D01*
X160800828Y-80159775D02*
X162086542Y-80159775D01*
X162086542Y-80159775D02*
X162229400Y-80088346D01*
X162229400Y-80088346D02*
X162300828Y-79945489D01*
X162300828Y-79945489D02*
X162300828Y-79802632D01*
X162300828Y-78659775D02*
X161515114Y-78659775D01*
X161515114Y-78659775D02*
X161372257Y-78731203D01*
X161372257Y-78731203D02*
X161300828Y-78874060D01*
X161300828Y-78874060D02*
X161300828Y-79159775D01*
X161300828Y-79159775D02*
X161372257Y-79302632D01*
X162229400Y-78659775D02*
X162300828Y-78802632D01*
X162300828Y-78802632D02*
X162300828Y-79159775D01*
X162300828Y-79159775D02*
X162229400Y-79302632D01*
X162229400Y-79302632D02*
X162086542Y-79374060D01*
X162086542Y-79374060D02*
X161943685Y-79374060D01*
X161943685Y-79374060D02*
X161800828Y-79302632D01*
X161800828Y-79302632D02*
X161729400Y-79159775D01*
X161729400Y-79159775D02*
X161729400Y-78802632D01*
X161729400Y-78802632D02*
X161657971Y-78659775D01*
X161300828Y-77945489D02*
X162300828Y-77945489D01*
X161443685Y-77945489D02*
X161372257Y-77874060D01*
X161372257Y-77874060D02*
X161300828Y-77731203D01*
X161300828Y-77731203D02*
X161300828Y-77516917D01*
X161300828Y-77516917D02*
X161372257Y-77374060D01*
X161372257Y-77374060D02*
X161515114Y-77302632D01*
X161515114Y-77302632D02*
X162300828Y-77302632D01*
X162229400Y-76016917D02*
X162300828Y-76159774D01*
X162300828Y-76159774D02*
X162300828Y-76445489D01*
X162300828Y-76445489D02*
X162229400Y-76588346D01*
X162229400Y-76588346D02*
X162086542Y-76659774D01*
X162086542Y-76659774D02*
X161515114Y-76659774D01*
X161515114Y-76659774D02*
X161372257Y-76588346D01*
X161372257Y-76588346D02*
X161300828Y-76445489D01*
X161300828Y-76445489D02*
X161300828Y-76159774D01*
X161300828Y-76159774D02*
X161372257Y-76016917D01*
X161372257Y-76016917D02*
X161515114Y-75945489D01*
X161515114Y-75945489D02*
X161657971Y-75945489D01*
X161657971Y-75945489D02*
X161800828Y-76659774D01*
X161300828Y-75302632D02*
X162300828Y-75302632D01*
X161443685Y-75302632D02*
X161372257Y-75231203D01*
X161372257Y-75231203D02*
X161300828Y-75088346D01*
X161300828Y-75088346D02*
X161300828Y-74874060D01*
X161300828Y-74874060D02*
X161372257Y-74731203D01*
X161372257Y-74731203D02*
X161515114Y-74659775D01*
X161515114Y-74659775D02*
X162300828Y-74659775D01*
X160943685Y-72874060D02*
X160872257Y-72802632D01*
X160872257Y-72802632D02*
X160800828Y-72659775D01*
X160800828Y-72659775D02*
X160800828Y-72302632D01*
X160800828Y-72302632D02*
X160872257Y-72159775D01*
X160872257Y-72159775D02*
X160943685Y-72088346D01*
X160943685Y-72088346D02*
X161086542Y-72016917D01*
X161086542Y-72016917D02*
X161229400Y-72016917D01*
X161229400Y-72016917D02*
X161443685Y-72088346D01*
X161443685Y-72088346D02*
X162300828Y-72945489D01*
X162300828Y-72945489D02*
X162300828Y-72016917D01*
X160800828Y-71088346D02*
X160800828Y-70945489D01*
X160800828Y-70945489D02*
X160872257Y-70802632D01*
X160872257Y-70802632D02*
X160943685Y-70731204D01*
X160943685Y-70731204D02*
X161086542Y-70659775D01*
X161086542Y-70659775D02*
X161372257Y-70588346D01*
X161372257Y-70588346D02*
X161729400Y-70588346D01*
X161729400Y-70588346D02*
X162015114Y-70659775D01*
X162015114Y-70659775D02*
X162157971Y-70731204D01*
X162157971Y-70731204D02*
X162229400Y-70802632D01*
X162229400Y-70802632D02*
X162300828Y-70945489D01*
X162300828Y-70945489D02*
X162300828Y-71088346D01*
X162300828Y-71088346D02*
X162229400Y-71231204D01*
X162229400Y-71231204D02*
X162157971Y-71302632D01*
X162157971Y-71302632D02*
X162015114Y-71374061D01*
X162015114Y-71374061D02*
X161729400Y-71445489D01*
X161729400Y-71445489D02*
X161372257Y-71445489D01*
X161372257Y-71445489D02*
X161086542Y-71374061D01*
X161086542Y-71374061D02*
X160943685Y-71302632D01*
X160943685Y-71302632D02*
X160872257Y-71231204D01*
X160872257Y-71231204D02*
X160800828Y-71088346D01*
X160943685Y-70016918D02*
X160872257Y-69945490D01*
X160872257Y-69945490D02*
X160800828Y-69802633D01*
X160800828Y-69802633D02*
X160800828Y-69445490D01*
X160800828Y-69445490D02*
X160872257Y-69302633D01*
X160872257Y-69302633D02*
X160943685Y-69231204D01*
X160943685Y-69231204D02*
X161086542Y-69159775D01*
X161086542Y-69159775D02*
X161229400Y-69159775D01*
X161229400Y-69159775D02*
X161443685Y-69231204D01*
X161443685Y-69231204D02*
X162300828Y-70088347D01*
X162300828Y-70088347D02*
X162300828Y-69159775D01*
X160800828Y-67874062D02*
X160800828Y-68159776D01*
X160800828Y-68159776D02*
X160872257Y-68302633D01*
X160872257Y-68302633D02*
X160943685Y-68374062D01*
X160943685Y-68374062D02*
X161157971Y-68516919D01*
X161157971Y-68516919D02*
X161443685Y-68588347D01*
X161443685Y-68588347D02*
X162015114Y-68588347D01*
X162015114Y-68588347D02*
X162157971Y-68516919D01*
X162157971Y-68516919D02*
X162229400Y-68445490D01*
X162229400Y-68445490D02*
X162300828Y-68302633D01*
X162300828Y-68302633D02*
X162300828Y-68016919D01*
X162300828Y-68016919D02*
X162229400Y-67874062D01*
X162229400Y-67874062D02*
X162157971Y-67802633D01*
X162157971Y-67802633D02*
X162015114Y-67731204D01*
X162015114Y-67731204D02*
X161657971Y-67731204D01*
X161657971Y-67731204D02*
X161515114Y-67802633D01*
X161515114Y-67802633D02*
X161443685Y-67874062D01*
X161443685Y-67874062D02*
X161372257Y-68016919D01*
X161372257Y-68016919D02*
X161372257Y-68302633D01*
X161372257Y-68302633D02*
X161443685Y-68445490D01*
X161443685Y-68445490D02*
X161515114Y-68516919D01*
X161515114Y-68516919D02*
X161657971Y-68588347D01*
D11*
X101666666Y-60454819D02*
X101666666Y-61169104D01*
X101666666Y-61169104D02*
X101619047Y-61311961D01*
X101619047Y-61311961D02*
X101523809Y-61407200D01*
X101523809Y-61407200D02*
X101380952Y-61454819D01*
X101380952Y-61454819D02*
X101285714Y-61454819D01*
X102619047Y-60454819D02*
X102142857Y-60454819D01*
X102142857Y-60454819D02*
X102095238Y-60931009D01*
X102095238Y-60931009D02*
X102142857Y-60883390D01*
X102142857Y-60883390D02*
X102238095Y-60835771D01*
X102238095Y-60835771D02*
X102476190Y-60835771D01*
X102476190Y-60835771D02*
X102571428Y-60883390D01*
X102571428Y-60883390D02*
X102619047Y-60931009D01*
X102619047Y-60931009D02*
X102666666Y-61026247D01*
X102666666Y-61026247D02*
X102666666Y-61264342D01*
X102666666Y-61264342D02*
X102619047Y-61359580D01*
X102619047Y-61359580D02*
X102571428Y-61407200D01*
X102571428Y-61407200D02*
X102476190Y-61454819D01*
X102476190Y-61454819D02*
X102238095Y-61454819D01*
X102238095Y-61454819D02*
X102142857Y-61407200D01*
X102142857Y-61407200D02*
X102095238Y-61359580D01*
X119842142Y-63449819D02*
X119365952Y-63449819D01*
X119365952Y-63449819D02*
X119365952Y-62449819D01*
X120127857Y-63402200D02*
X120270714Y-63449819D01*
X120270714Y-63449819D02*
X120508809Y-63449819D01*
X120508809Y-63449819D02*
X120604047Y-63402200D01*
X120604047Y-63402200D02*
X120651666Y-63354580D01*
X120651666Y-63354580D02*
X120699285Y-63259342D01*
X120699285Y-63259342D02*
X120699285Y-63164104D01*
X120699285Y-63164104D02*
X120651666Y-63068866D01*
X120651666Y-63068866D02*
X120604047Y-63021247D01*
X120604047Y-63021247D02*
X120508809Y-62973628D01*
X120508809Y-62973628D02*
X120318333Y-62926009D01*
X120318333Y-62926009D02*
X120223095Y-62878390D01*
X120223095Y-62878390D02*
X120175476Y-62830771D01*
X120175476Y-62830771D02*
X120127857Y-62735533D01*
X120127857Y-62735533D02*
X120127857Y-62640295D01*
X120127857Y-62640295D02*
X120175476Y-62545057D01*
X120175476Y-62545057D02*
X120223095Y-62497438D01*
X120223095Y-62497438D02*
X120318333Y-62449819D01*
X120318333Y-62449819D02*
X120556428Y-62449819D01*
X120556428Y-62449819D02*
X120699285Y-62497438D01*
X121651666Y-63449819D02*
X121080238Y-63449819D01*
X121365952Y-63449819D02*
X121365952Y-62449819D01*
X121365952Y-62449819D02*
X121270714Y-62592676D01*
X121270714Y-62592676D02*
X121175476Y-62687914D01*
X121175476Y-62687914D02*
X121080238Y-62735533D01*
X139666666Y-58495180D02*
X140142856Y-58495180D01*
X140142856Y-58495180D02*
X140142856Y-59495180D01*
X139380951Y-59399942D02*
X139333332Y-59447561D01*
X139333332Y-59447561D02*
X139238094Y-59495180D01*
X139238094Y-59495180D02*
X138999999Y-59495180D01*
X138999999Y-59495180D02*
X138904761Y-59447561D01*
X138904761Y-59447561D02*
X138857142Y-59399942D01*
X138857142Y-59399942D02*
X138809523Y-59304704D01*
X138809523Y-59304704D02*
X138809523Y-59209466D01*
X138809523Y-59209466D02*
X138857142Y-59066609D01*
X138857142Y-59066609D02*
X139428570Y-58495180D01*
X139428570Y-58495180D02*
X138809523Y-58495180D01*
X159333333Y-64704819D02*
X158857143Y-64704819D01*
X158857143Y-64704819D02*
X158857143Y-63704819D01*
X160190476Y-64704819D02*
X159619048Y-64704819D01*
X159904762Y-64704819D02*
X159904762Y-63704819D01*
X159904762Y-63704819D02*
X159809524Y-63847676D01*
X159809524Y-63847676D02*
X159714286Y-63942914D01*
X159714286Y-63942914D02*
X159619048Y-63990533D01*
X131488095Y-75954819D02*
X131488095Y-76764342D01*
X131488095Y-76764342D02*
X131535714Y-76859580D01*
X131535714Y-76859580D02*
X131583333Y-76907200D01*
X131583333Y-76907200D02*
X131678571Y-76954819D01*
X131678571Y-76954819D02*
X131869047Y-76954819D01*
X131869047Y-76954819D02*
X131964285Y-76907200D01*
X131964285Y-76907200D02*
X132011904Y-76859580D01*
X132011904Y-76859580D02*
X132059523Y-76764342D01*
X132059523Y-76764342D02*
X132059523Y-75954819D01*
X132488095Y-76050057D02*
X132535714Y-76002438D01*
X132535714Y-76002438D02*
X132630952Y-75954819D01*
X132630952Y-75954819D02*
X132869047Y-75954819D01*
X132869047Y-75954819D02*
X132964285Y-76002438D01*
X132964285Y-76002438D02*
X133011904Y-76050057D01*
X133011904Y-76050057D02*
X133059523Y-76145295D01*
X133059523Y-76145295D02*
X133059523Y-76240533D01*
X133059523Y-76240533D02*
X133011904Y-76383390D01*
X133011904Y-76383390D02*
X132440476Y-76954819D01*
X132440476Y-76954819D02*
X133059523Y-76954819D01*
X141715066Y-95454819D02*
X141715066Y-96169104D01*
X141715066Y-96169104D02*
X141667447Y-96311961D01*
X141667447Y-96311961D02*
X141572209Y-96407200D01*
X141572209Y-96407200D02*
X141429352Y-96454819D01*
X141429352Y-96454819D02*
X141334114Y-96454819D01*
X142619828Y-95454819D02*
X142429352Y-95454819D01*
X142429352Y-95454819D02*
X142334114Y-95502438D01*
X142334114Y-95502438D02*
X142286495Y-95550057D01*
X142286495Y-95550057D02*
X142191257Y-95692914D01*
X142191257Y-95692914D02*
X142143638Y-95883390D01*
X142143638Y-95883390D02*
X142143638Y-96264342D01*
X142143638Y-96264342D02*
X142191257Y-96359580D01*
X142191257Y-96359580D02*
X142238876Y-96407200D01*
X142238876Y-96407200D02*
X142334114Y-96454819D01*
X142334114Y-96454819D02*
X142524590Y-96454819D01*
X142524590Y-96454819D02*
X142619828Y-96407200D01*
X142619828Y-96407200D02*
X142667447Y-96359580D01*
X142667447Y-96359580D02*
X142715066Y-96264342D01*
X142715066Y-96264342D02*
X142715066Y-96026247D01*
X142715066Y-96026247D02*
X142667447Y-95931009D01*
X142667447Y-95931009D02*
X142619828Y-95883390D01*
X142619828Y-95883390D02*
X142524590Y-95835771D01*
X142524590Y-95835771D02*
X142334114Y-95835771D01*
X142334114Y-95835771D02*
X142238876Y-95883390D01*
X142238876Y-95883390D02*
X142191257Y-95931009D01*
X142191257Y-95931009D02*
X142143638Y-96026247D01*
X136822314Y-93629819D02*
X136250886Y-93629819D01*
X136536600Y-93629819D02*
X136536600Y-92629819D01*
X136536600Y-92629819D02*
X136441362Y-92772676D01*
X136441362Y-92772676D02*
X136346124Y-92867914D01*
X136346124Y-92867914D02*
X136250886Y-92915533D01*
X136250886Y-94503057D02*
X136298505Y-94455438D01*
X136298505Y-94455438D02*
X136393743Y-94407819D01*
X136393743Y-94407819D02*
X136631838Y-94407819D01*
X136631838Y-94407819D02*
X136727076Y-94455438D01*
X136727076Y-94455438D02*
X136774695Y-94503057D01*
X136774695Y-94503057D02*
X136822314Y-94598295D01*
X136822314Y-94598295D02*
X136822314Y-94693533D01*
X136822314Y-94693533D02*
X136774695Y-94836390D01*
X136774695Y-94836390D02*
X136203267Y-95407819D01*
X136203267Y-95407819D02*
X136822314Y-95407819D01*
X146404762Y-95883390D02*
X146309524Y-95835771D01*
X146309524Y-95835771D02*
X146261905Y-95788152D01*
X146261905Y-95788152D02*
X146214286Y-95692914D01*
X146214286Y-95692914D02*
X146214286Y-95645295D01*
X146214286Y-95645295D02*
X146261905Y-95550057D01*
X146261905Y-95550057D02*
X146309524Y-95502438D01*
X146309524Y-95502438D02*
X146404762Y-95454819D01*
X146404762Y-95454819D02*
X146595238Y-95454819D01*
X146595238Y-95454819D02*
X146690476Y-95502438D01*
X146690476Y-95502438D02*
X146738095Y-95550057D01*
X146738095Y-95550057D02*
X146785714Y-95645295D01*
X146785714Y-95645295D02*
X146785714Y-95692914D01*
X146785714Y-95692914D02*
X146738095Y-95788152D01*
X146738095Y-95788152D02*
X146690476Y-95835771D01*
X146690476Y-95835771D02*
X146595238Y-95883390D01*
X146595238Y-95883390D02*
X146404762Y-95883390D01*
X146404762Y-95883390D02*
X146309524Y-95931009D01*
X146309524Y-95931009D02*
X146261905Y-95978628D01*
X146261905Y-95978628D02*
X146214286Y-96073866D01*
X146214286Y-96073866D02*
X146214286Y-96264342D01*
X146214286Y-96264342D02*
X146261905Y-96359580D01*
X146261905Y-96359580D02*
X146309524Y-96407200D01*
X146309524Y-96407200D02*
X146404762Y-96454819D01*
X146404762Y-96454819D02*
X146595238Y-96454819D01*
X146595238Y-96454819D02*
X146690476Y-96407200D01*
X146690476Y-96407200D02*
X146738095Y-96359580D01*
X146738095Y-96359580D02*
X146785714Y-96264342D01*
X146785714Y-96264342D02*
X146785714Y-96073866D01*
X146785714Y-96073866D02*
X146738095Y-95978628D01*
X146738095Y-95978628D02*
X146690476Y-95931009D01*
X146690476Y-95931009D02*
X146595238Y-95883390D01*
X146666667Y-92629819D02*
X147333333Y-92629819D01*
X147333333Y-92629819D02*
X146904762Y-93629819D01*
X119391333Y-53906580D02*
X119343714Y-53954200D01*
X119343714Y-53954200D02*
X119200857Y-54001819D01*
X119200857Y-54001819D02*
X119105619Y-54001819D01*
X119105619Y-54001819D02*
X118962762Y-53954200D01*
X118962762Y-53954200D02*
X118867524Y-53858961D01*
X118867524Y-53858961D02*
X118819905Y-53763723D01*
X118819905Y-53763723D02*
X118772286Y-53573247D01*
X118772286Y-53573247D02*
X118772286Y-53430390D01*
X118772286Y-53430390D02*
X118819905Y-53239914D01*
X118819905Y-53239914D02*
X118867524Y-53144676D01*
X118867524Y-53144676D02*
X118962762Y-53049438D01*
X118962762Y-53049438D02*
X119105619Y-53001819D01*
X119105619Y-53001819D02*
X119200857Y-53001819D01*
X119200857Y-53001819D02*
X119343714Y-53049438D01*
X119343714Y-53049438D02*
X119391333Y-53097057D01*
X120343714Y-54001819D02*
X119772286Y-54001819D01*
X120058000Y-54001819D02*
X120058000Y-53001819D01*
X120058000Y-53001819D02*
X119962762Y-53144676D01*
X119962762Y-53144676D02*
X119867524Y-53239914D01*
X119867524Y-53239914D02*
X119772286Y-53287533D01*
X138833333Y-83459580D02*
X138785714Y-83507200D01*
X138785714Y-83507200D02*
X138642857Y-83554819D01*
X138642857Y-83554819D02*
X138547619Y-83554819D01*
X138547619Y-83554819D02*
X138404762Y-83507200D01*
X138404762Y-83507200D02*
X138309524Y-83411961D01*
X138309524Y-83411961D02*
X138261905Y-83316723D01*
X138261905Y-83316723D02*
X138214286Y-83126247D01*
X138214286Y-83126247D02*
X138214286Y-82983390D01*
X138214286Y-82983390D02*
X138261905Y-82792914D01*
X138261905Y-82792914D02*
X138309524Y-82697676D01*
X138309524Y-82697676D02*
X138404762Y-82602438D01*
X138404762Y-82602438D02*
X138547619Y-82554819D01*
X138547619Y-82554819D02*
X138642857Y-82554819D01*
X138642857Y-82554819D02*
X138785714Y-82602438D01*
X138785714Y-82602438D02*
X138833333Y-82650057D01*
X139690476Y-82888152D02*
X139690476Y-83554819D01*
X139452381Y-82507200D02*
X139214286Y-83221485D01*
X139214286Y-83221485D02*
X139833333Y-83221485D01*
X134959580Y-56666666D02*
X135007200Y-56714285D01*
X135007200Y-56714285D02*
X135054819Y-56857142D01*
X135054819Y-56857142D02*
X135054819Y-56952380D01*
X135054819Y-56952380D02*
X135007200Y-57095237D01*
X135007200Y-57095237D02*
X134911961Y-57190475D01*
X134911961Y-57190475D02*
X134816723Y-57238094D01*
X134816723Y-57238094D02*
X134626247Y-57285713D01*
X134626247Y-57285713D02*
X134483390Y-57285713D01*
X134483390Y-57285713D02*
X134292914Y-57238094D01*
X134292914Y-57238094D02*
X134197676Y-57190475D01*
X134197676Y-57190475D02*
X134102438Y-57095237D01*
X134102438Y-57095237D02*
X134054819Y-56952380D01*
X134054819Y-56952380D02*
X134054819Y-56857142D01*
X134054819Y-56857142D02*
X134102438Y-56714285D01*
X134102438Y-56714285D02*
X134150057Y-56666666D01*
X134054819Y-56333332D02*
X134054819Y-55666666D01*
X134054819Y-55666666D02*
X135054819Y-56095237D01*
X132833333Y-64859580D02*
X132785714Y-64907200D01*
X132785714Y-64907200D02*
X132642857Y-64954819D01*
X132642857Y-64954819D02*
X132547619Y-64954819D01*
X132547619Y-64954819D02*
X132404762Y-64907200D01*
X132404762Y-64907200D02*
X132309524Y-64811961D01*
X132309524Y-64811961D02*
X132261905Y-64716723D01*
X132261905Y-64716723D02*
X132214286Y-64526247D01*
X132214286Y-64526247D02*
X132214286Y-64383390D01*
X132214286Y-64383390D02*
X132261905Y-64192914D01*
X132261905Y-64192914D02*
X132309524Y-64097676D01*
X132309524Y-64097676D02*
X132404762Y-64002438D01*
X132404762Y-64002438D02*
X132547619Y-63954819D01*
X132547619Y-63954819D02*
X132642857Y-63954819D01*
X132642857Y-63954819D02*
X132785714Y-64002438D01*
X132785714Y-64002438D02*
X132833333Y-64050057D01*
X133738095Y-63954819D02*
X133261905Y-63954819D01*
X133261905Y-63954819D02*
X133214286Y-64431009D01*
X133214286Y-64431009D02*
X133261905Y-64383390D01*
X133261905Y-64383390D02*
X133357143Y-64335771D01*
X133357143Y-64335771D02*
X133595238Y-64335771D01*
X133595238Y-64335771D02*
X133690476Y-64383390D01*
X133690476Y-64383390D02*
X133738095Y-64431009D01*
X133738095Y-64431009D02*
X133785714Y-64526247D01*
X133785714Y-64526247D02*
X133785714Y-64764342D01*
X133785714Y-64764342D02*
X133738095Y-64859580D01*
X133738095Y-64859580D02*
X133690476Y-64907200D01*
X133690476Y-64907200D02*
X133595238Y-64954819D01*
X133595238Y-64954819D02*
X133357143Y-64954819D01*
X133357143Y-64954819D02*
X133261905Y-64907200D01*
X133261905Y-64907200D02*
X133214286Y-64859580D01*
X113454819Y-55238094D02*
X112454819Y-55238094D01*
X112454819Y-55238094D02*
X112454819Y-54999999D01*
X112454819Y-54999999D02*
X112502438Y-54857142D01*
X112502438Y-54857142D02*
X112597676Y-54761904D01*
X112597676Y-54761904D02*
X112692914Y-54714285D01*
X112692914Y-54714285D02*
X112883390Y-54666666D01*
X112883390Y-54666666D02*
X113026247Y-54666666D01*
X113026247Y-54666666D02*
X113216723Y-54714285D01*
X113216723Y-54714285D02*
X113311961Y-54761904D01*
X113311961Y-54761904D02*
X113407200Y-54857142D01*
X113407200Y-54857142D02*
X113454819Y-54999999D01*
X113454819Y-54999999D02*
X113454819Y-55238094D01*
X113454819Y-53714285D02*
X113454819Y-54285713D01*
X113454819Y-53999999D02*
X112454819Y-53999999D01*
X112454819Y-53999999D02*
X112597676Y-54095237D01*
X112597676Y-54095237D02*
X112692914Y-54190475D01*
X112692914Y-54190475D02*
X112740533Y-54285713D01*
X108757319Y-92083333D02*
X109471604Y-92083333D01*
X109471604Y-92083333D02*
X109614461Y-92130952D01*
X109614461Y-92130952D02*
X109709700Y-92226190D01*
X109709700Y-92226190D02*
X109757319Y-92369047D01*
X109757319Y-92369047D02*
X109757319Y-92464285D01*
X109090652Y-91178571D02*
X109757319Y-91178571D01*
X108709700Y-91416666D02*
X109423985Y-91654761D01*
X109423985Y-91654761D02*
X109423985Y-91035714D01*
X114801009Y-71833333D02*
X114801009Y-72166666D01*
X115324819Y-72166666D02*
X114324819Y-72166666D01*
X114324819Y-72166666D02*
X114324819Y-71690476D01*
X115324819Y-70785714D02*
X115324819Y-71357142D01*
X115324819Y-71071428D02*
X114324819Y-71071428D01*
X114324819Y-71071428D02*
X114467676Y-71166666D01*
X114467676Y-71166666D02*
X114562914Y-71261904D01*
X114562914Y-71261904D02*
X114610533Y-71357142D01*
X123166666Y-95454819D02*
X123166666Y-96169104D01*
X123166666Y-96169104D02*
X123119047Y-96311961D01*
X123119047Y-96311961D02*
X123023809Y-96407200D01*
X123023809Y-96407200D02*
X122880952Y-96454819D01*
X122880952Y-96454819D02*
X122785714Y-96454819D01*
X123595238Y-95550057D02*
X123642857Y-95502438D01*
X123642857Y-95502438D02*
X123738095Y-95454819D01*
X123738095Y-95454819D02*
X123976190Y-95454819D01*
X123976190Y-95454819D02*
X124071428Y-95502438D01*
X124071428Y-95502438D02*
X124119047Y-95550057D01*
X124119047Y-95550057D02*
X124166666Y-95645295D01*
X124166666Y-95645295D02*
X124166666Y-95740533D01*
X124166666Y-95740533D02*
X124119047Y-95883390D01*
X124119047Y-95883390D02*
X123547619Y-96454819D01*
X123547619Y-96454819D02*
X124166666Y-96454819D01*
X118822314Y-93629819D02*
X118250886Y-93629819D01*
X118536600Y-93629819D02*
X118536600Y-92629819D01*
X118536600Y-92629819D02*
X118441362Y-92772676D01*
X118441362Y-92772676D02*
X118346124Y-92867914D01*
X118346124Y-92867914D02*
X118250886Y-92915533D01*
X118250886Y-94503057D02*
X118298505Y-94455438D01*
X118298505Y-94455438D02*
X118393743Y-94407819D01*
X118393743Y-94407819D02*
X118631838Y-94407819D01*
X118631838Y-94407819D02*
X118727076Y-94455438D01*
X118727076Y-94455438D02*
X118774695Y-94503057D01*
X118774695Y-94503057D02*
X118822314Y-94598295D01*
X118822314Y-94598295D02*
X118822314Y-94693533D01*
X118822314Y-94693533D02*
X118774695Y-94836390D01*
X118774695Y-94836390D02*
X118203267Y-95407819D01*
X118203267Y-95407819D02*
X118822314Y-95407819D01*
X128154762Y-95883390D02*
X128059524Y-95835771D01*
X128059524Y-95835771D02*
X128011905Y-95788152D01*
X128011905Y-95788152D02*
X127964286Y-95692914D01*
X127964286Y-95692914D02*
X127964286Y-95645295D01*
X127964286Y-95645295D02*
X128011905Y-95550057D01*
X128011905Y-95550057D02*
X128059524Y-95502438D01*
X128059524Y-95502438D02*
X128154762Y-95454819D01*
X128154762Y-95454819D02*
X128345238Y-95454819D01*
X128345238Y-95454819D02*
X128440476Y-95502438D01*
X128440476Y-95502438D02*
X128488095Y-95550057D01*
X128488095Y-95550057D02*
X128535714Y-95645295D01*
X128535714Y-95645295D02*
X128535714Y-95692914D01*
X128535714Y-95692914D02*
X128488095Y-95788152D01*
X128488095Y-95788152D02*
X128440476Y-95835771D01*
X128440476Y-95835771D02*
X128345238Y-95883390D01*
X128345238Y-95883390D02*
X128154762Y-95883390D01*
X128154762Y-95883390D02*
X128059524Y-95931009D01*
X128059524Y-95931009D02*
X128011905Y-95978628D01*
X128011905Y-95978628D02*
X127964286Y-96073866D01*
X127964286Y-96073866D02*
X127964286Y-96264342D01*
X127964286Y-96264342D02*
X128011905Y-96359580D01*
X128011905Y-96359580D02*
X128059524Y-96407200D01*
X128059524Y-96407200D02*
X128154762Y-96454819D01*
X128154762Y-96454819D02*
X128345238Y-96454819D01*
X128345238Y-96454819D02*
X128440476Y-96407200D01*
X128440476Y-96407200D02*
X128488095Y-96359580D01*
X128488095Y-96359580D02*
X128535714Y-96264342D01*
X128535714Y-96264342D02*
X128535714Y-96073866D01*
X128535714Y-96073866D02*
X128488095Y-95978628D01*
X128488095Y-95978628D02*
X128440476Y-95931009D01*
X128440476Y-95931009D02*
X128345238Y-95883390D01*
X128916667Y-92954819D02*
X129583333Y-92954819D01*
X129583333Y-92954819D02*
X129154762Y-93954819D01*
X154954819Y-74488094D02*
X153954819Y-74488094D01*
X153954819Y-74488094D02*
X153954819Y-74249999D01*
X153954819Y-74249999D02*
X154002438Y-74107142D01*
X154002438Y-74107142D02*
X154097676Y-74011904D01*
X154097676Y-74011904D02*
X154192914Y-73964285D01*
X154192914Y-73964285D02*
X154383390Y-73916666D01*
X154383390Y-73916666D02*
X154526247Y-73916666D01*
X154526247Y-73916666D02*
X154716723Y-73964285D01*
X154716723Y-73964285D02*
X154811961Y-74011904D01*
X154811961Y-74011904D02*
X154907200Y-74107142D01*
X154907200Y-74107142D02*
X154954819Y-74249999D01*
X154954819Y-74249999D02*
X154954819Y-74488094D01*
X154050057Y-73535713D02*
X154002438Y-73488094D01*
X154002438Y-73488094D02*
X153954819Y-73392856D01*
X153954819Y-73392856D02*
X153954819Y-73154761D01*
X153954819Y-73154761D02*
X154002438Y-73059523D01*
X154002438Y-73059523D02*
X154050057Y-73011904D01*
X154050057Y-73011904D02*
X154145295Y-72964285D01*
X154145295Y-72964285D02*
X154240533Y-72964285D01*
X154240533Y-72964285D02*
X154383390Y-73011904D01*
X154383390Y-73011904D02*
X154954819Y-73583332D01*
X154954819Y-73583332D02*
X154954819Y-72964285D01*
D12*
X100162500Y-51545000D02*
X111602500Y-51545000D01*
X100162500Y-53905000D02*
X100162500Y-51545000D01*
X100162500Y-61945000D02*
X100162500Y-54505000D01*
X100782500Y-51545000D02*
X100782500Y-61945000D01*
X103282500Y-51545000D02*
X103282500Y-61945000D01*
X109482500Y-51545000D02*
X109482500Y-61945000D01*
X111602500Y-51545000D02*
X111602500Y-61945000D01*
X111602500Y-61945000D02*
X100162500Y-61945000D01*
X100162500Y-54205000D02*
X99552500Y-54645000D01*
X99552500Y-53765000D01*
X100162500Y-54205000D01*
G36*
X100162500Y-54205000D02*
G01*
X99552500Y-54645000D01*
X99552500Y-53765000D01*
X100162500Y-54205000D01*
G37*
D13*
X116780000Y-70500000D02*
X118780000Y-70500000D01*
X117780000Y-69500000D02*
X117780000Y-71500000D01*
X133920000Y-70500000D02*
X135920000Y-70500000D01*
X132000000Y-70500000D02*
G75*
G02*
X120000000Y-70500000I-6000000J0D01*
G01*
X120000000Y-70500000D02*
G75*
G02*
X132000000Y-70500000I6000000J0D01*
G01*
D12*
X136090000Y-58160000D02*
X136090000Y-51340000D01*
X142400000Y-51340000D02*
X136090000Y-51340000D01*
X142400000Y-58160000D02*
X136090000Y-58160000D01*
X145450000Y-55500000D02*
X145450000Y-52750000D01*
X145450000Y-64250000D02*
X145450000Y-61500000D01*
X146100000Y-52100000D02*
X157600000Y-52100000D01*
X157600000Y-64900000D02*
X146100000Y-64900000D01*
X158250000Y-55500000D02*
X158250000Y-52750000D01*
X158250000Y-64250000D02*
X158250000Y-61500000D01*
X145450000Y-52750000D02*
G75*
G02*
X146100000Y-52100000I650000J0D01*
G01*
X146100000Y-64900000D02*
G75*
G02*
X145450000Y-64250000I0J650000D01*
G01*
X157600000Y-52100000D02*
G75*
G02*
X158250000Y-52750000I-1J-650001D01*
G01*
X158250000Y-64250000D02*
G75*
G02*
X157600000Y-64900000I-650001J1D01*
G01*
X143460000Y-66300000D02*
X144825000Y-66300000D01*
X143460000Y-76700000D02*
X144825000Y-76700000D01*
X144825000Y-66300000D02*
X144825000Y-67250000D01*
X144825000Y-76700000D02*
X144825000Y-75750000D01*
X147990000Y-76180000D02*
X147310000Y-76180000D01*
X147650000Y-75710000D01*
X147990000Y-76180000D01*
G36*
X147990000Y-76180000D02*
G01*
X147310000Y-76180000D01*
X147650000Y-75710000D01*
X147990000Y-76180000D01*
G37*
D14*
X134149000Y-84793000D02*
X134149000Y-88526800D01*
X134149000Y-91473200D02*
X134149000Y-100160000D01*
X134149000Y-100160000D02*
X150151000Y-100160000D01*
X150151000Y-84793000D02*
X134149000Y-84793000D01*
X150151000Y-88526800D02*
X150151000Y-84793000D01*
X150151000Y-100160000D02*
X150151000Y-91473200D01*
D12*
X119819252Y-51132000D02*
X119296748Y-51132000D01*
X119819252Y-52602000D02*
X119296748Y-52602000D01*
X135350000Y-82260000D02*
X143590000Y-82260000D01*
X143590000Y-77740000D02*
X135350000Y-77740000D01*
X143590000Y-82260000D02*
X143590000Y-77740000D01*
X129240000Y-51910000D02*
X129240000Y-60150000D01*
X133760000Y-51910000D02*
X129240000Y-51910000D01*
X133760000Y-60150000D02*
X133760000Y-51910000D01*
X135100000Y-65260000D02*
X143340000Y-65260000D01*
X143340000Y-60740000D02*
X135100000Y-60740000D01*
X143340000Y-65260000D02*
X143340000Y-60740000D01*
X112100000Y-62760000D02*
X112100000Y-57250000D01*
X112100000Y-62760000D02*
X115400000Y-62760000D01*
X115400000Y-62760000D02*
X115400000Y-57250000D01*
X100462500Y-81605000D02*
X108302500Y-81605000D01*
X100462500Y-83175000D02*
X100462500Y-81605000D01*
X100462500Y-92345000D02*
X100462500Y-83775000D01*
X100982500Y-81605000D02*
X100982500Y-92345000D01*
X102082500Y-81605000D02*
X102082500Y-92345000D01*
X108302500Y-81605000D02*
X108302500Y-92345000D01*
X108302500Y-92345000D02*
X100462500Y-92345000D01*
X100462500Y-83475000D02*
X99852500Y-83915000D01*
X99852500Y-83035000D01*
X100462500Y-83475000D01*
G36*
X100462500Y-83475000D02*
G01*
X99852500Y-83915000D01*
X99852500Y-83035000D01*
X100462500Y-83475000D01*
G37*
X107030000Y-63400000D02*
X107030000Y-79600000D01*
X107030000Y-79600000D02*
X113970000Y-79600000D01*
X108500000Y-73100000D02*
X108500000Y-69900000D01*
X110500000Y-70750000D02*
X110500000Y-72250000D01*
X112500000Y-69900000D02*
X112500000Y-73100000D01*
X113970000Y-63400000D02*
X107030000Y-63400000D01*
X113970000Y-79600000D02*
X113970000Y-63400000D01*
D14*
X116149000Y-84793000D02*
X116149000Y-88526800D01*
X116149000Y-91473200D02*
X116149000Y-100160000D01*
X116149000Y-100160000D02*
X132151000Y-100160000D01*
X132151000Y-84793000D02*
X116149000Y-84793000D01*
X132151000Y-88526800D02*
X132151000Y-84793000D01*
X132151000Y-100160000D02*
X132151000Y-91473200D01*
D12*
X152850000Y-72510000D02*
X152850000Y-67000000D01*
X152850000Y-72510000D02*
X156150000Y-72510000D01*
X156150000Y-72510000D02*
X156150000Y-67000000D01*
M02*
