G04 #@! TF.GenerationSoftware,KiCad,Pcbnew,10.0.1*
G04 #@! TF.CreationDate,2026-05-02T15:45:56+03:00*
G04 #@! TF.ProjectId,Pi-EGT,50692d45-4754-42e6-9b69-6361645f7063,rev?*
G04 #@! TF.SameCoordinates,Original*
G04 #@! TF.FileFunction,Legend,Bot*
G04 #@! TF.FilePolarity,Positive*
%FSLAX46Y46*%
G04 Gerber Fmt 4.6, Leading zero omitted, Abs format (unit mm)*
G04 Created by KiCad (PCBNEW 10.0.1) date 2026-05-02 15:45:56*
%MOMM*%
%LPD*%
G01*
G04 APERTURE LIST*
%ADD10C,0.150000*%
%ADD11C,0.120000*%
%ADD12C,0.203200*%
G04 APERTURE END LIST*
D10*
X108703333Y-50724819D02*
X108703333Y-51439104D01*
X108703333Y-51439104D02*
X108750952Y-51581961D01*
X108750952Y-51581961D02*
X108846190Y-51677200D01*
X108846190Y-51677200D02*
X108989047Y-51724819D01*
X108989047Y-51724819D02*
X109084285Y-51724819D01*
X107703333Y-51724819D02*
X108274761Y-51724819D01*
X107989047Y-51724819D02*
X107989047Y-50724819D01*
X107989047Y-50724819D02*
X108084285Y-50867676D01*
X108084285Y-50867676D02*
X108179523Y-50962914D01*
X108179523Y-50962914D02*
X108274761Y-51010533D01*
X121166666Y-83454819D02*
X121499999Y-82978628D01*
X121738094Y-83454819D02*
X121738094Y-82454819D01*
X121738094Y-82454819D02*
X121357142Y-82454819D01*
X121357142Y-82454819D02*
X121261904Y-82502438D01*
X121261904Y-82502438D02*
X121214285Y-82550057D01*
X121214285Y-82550057D02*
X121166666Y-82645295D01*
X121166666Y-82645295D02*
X121166666Y-82788152D01*
X121166666Y-82788152D02*
X121214285Y-82883390D01*
X121214285Y-82883390D02*
X121261904Y-82931009D01*
X121261904Y-82931009D02*
X121357142Y-82978628D01*
X121357142Y-82978628D02*
X121738094Y-82978628D01*
X120833332Y-82454819D02*
X120166666Y-82454819D01*
X120166666Y-82454819D02*
X120595237Y-83454819D01*
X126916666Y-62954819D02*
X127249999Y-62478628D01*
X127488094Y-62954819D02*
X127488094Y-61954819D01*
X127488094Y-61954819D02*
X127107142Y-61954819D01*
X127107142Y-61954819D02*
X127011904Y-62002438D01*
X127011904Y-62002438D02*
X126964285Y-62050057D01*
X126964285Y-62050057D02*
X126916666Y-62145295D01*
X126916666Y-62145295D02*
X126916666Y-62288152D01*
X126916666Y-62288152D02*
X126964285Y-62383390D01*
X126964285Y-62383390D02*
X127011904Y-62431009D01*
X127011904Y-62431009D02*
X127107142Y-62478628D01*
X127107142Y-62478628D02*
X127488094Y-62478628D01*
X126345237Y-62383390D02*
X126440475Y-62335771D01*
X126440475Y-62335771D02*
X126488094Y-62288152D01*
X126488094Y-62288152D02*
X126535713Y-62192914D01*
X126535713Y-62192914D02*
X126535713Y-62145295D01*
X126535713Y-62145295D02*
X126488094Y-62050057D01*
X126488094Y-62050057D02*
X126440475Y-62002438D01*
X126440475Y-62002438D02*
X126345237Y-61954819D01*
X126345237Y-61954819D02*
X126154761Y-61954819D01*
X126154761Y-61954819D02*
X126059523Y-62002438D01*
X126059523Y-62002438D02*
X126011904Y-62050057D01*
X126011904Y-62050057D02*
X125964285Y-62145295D01*
X125964285Y-62145295D02*
X125964285Y-62192914D01*
X125964285Y-62192914D02*
X126011904Y-62288152D01*
X126011904Y-62288152D02*
X126059523Y-62335771D01*
X126059523Y-62335771D02*
X126154761Y-62383390D01*
X126154761Y-62383390D02*
X126345237Y-62383390D01*
X126345237Y-62383390D02*
X126440475Y-62431009D01*
X126440475Y-62431009D02*
X126488094Y-62478628D01*
X126488094Y-62478628D02*
X126535713Y-62573866D01*
X126535713Y-62573866D02*
X126535713Y-62764342D01*
X126535713Y-62764342D02*
X126488094Y-62859580D01*
X126488094Y-62859580D02*
X126440475Y-62907200D01*
X126440475Y-62907200D02*
X126345237Y-62954819D01*
X126345237Y-62954819D02*
X126154761Y-62954819D01*
X126154761Y-62954819D02*
X126059523Y-62907200D01*
X126059523Y-62907200D02*
X126011904Y-62859580D01*
X126011904Y-62859580D02*
X125964285Y-62764342D01*
X125964285Y-62764342D02*
X125964285Y-62573866D01*
X125964285Y-62573866D02*
X126011904Y-62478628D01*
X126011904Y-62478628D02*
X126059523Y-62431009D01*
X126059523Y-62431009D02*
X126154761Y-62383390D01*
X110109580Y-92833333D02*
X110157200Y-92785714D01*
X110157200Y-92785714D02*
X110204819Y-92642857D01*
X110204819Y-92642857D02*
X110204819Y-92547619D01*
X110204819Y-92547619D02*
X110157200Y-92404762D01*
X110157200Y-92404762D02*
X110061961Y-92309524D01*
X110061961Y-92309524D02*
X109966723Y-92261905D01*
X109966723Y-92261905D02*
X109776247Y-92214286D01*
X109776247Y-92214286D02*
X109633390Y-92214286D01*
X109633390Y-92214286D02*
X109442914Y-92261905D01*
X109442914Y-92261905D02*
X109347676Y-92309524D01*
X109347676Y-92309524D02*
X109252438Y-92404762D01*
X109252438Y-92404762D02*
X109204819Y-92547619D01*
X109204819Y-92547619D02*
X109204819Y-92642857D01*
X109204819Y-92642857D02*
X109252438Y-92785714D01*
X109252438Y-92785714D02*
X109300057Y-92833333D01*
X109204819Y-93690476D02*
X109204819Y-93500000D01*
X109204819Y-93500000D02*
X109252438Y-93404762D01*
X109252438Y-93404762D02*
X109300057Y-93357143D01*
X109300057Y-93357143D02*
X109442914Y-93261905D01*
X109442914Y-93261905D02*
X109633390Y-93214286D01*
X109633390Y-93214286D02*
X110014342Y-93214286D01*
X110014342Y-93214286D02*
X110109580Y-93261905D01*
X110109580Y-93261905D02*
X110157200Y-93309524D01*
X110157200Y-93309524D02*
X110204819Y-93404762D01*
X110204819Y-93404762D02*
X110204819Y-93595238D01*
X110204819Y-93595238D02*
X110157200Y-93690476D01*
X110157200Y-93690476D02*
X110109580Y-93738095D01*
X110109580Y-93738095D02*
X110014342Y-93785714D01*
X110014342Y-93785714D02*
X109776247Y-93785714D01*
X109776247Y-93785714D02*
X109681009Y-93738095D01*
X109681009Y-93738095D02*
X109633390Y-93690476D01*
X109633390Y-93690476D02*
X109585771Y-93595238D01*
X109585771Y-93595238D02*
X109585771Y-93404762D01*
X109585771Y-93404762D02*
X109633390Y-93309524D01*
X109633390Y-93309524D02*
X109681009Y-93261905D01*
X109681009Y-93261905D02*
X109776247Y-93214286D01*
X118916666Y-83454819D02*
X119249999Y-82978628D01*
X119488094Y-83454819D02*
X119488094Y-82454819D01*
X119488094Y-82454819D02*
X119107142Y-82454819D01*
X119107142Y-82454819D02*
X119011904Y-82502438D01*
X119011904Y-82502438D02*
X118964285Y-82550057D01*
X118964285Y-82550057D02*
X118916666Y-82645295D01*
X118916666Y-82645295D02*
X118916666Y-82788152D01*
X118916666Y-82788152D02*
X118964285Y-82883390D01*
X118964285Y-82883390D02*
X119011904Y-82931009D01*
X119011904Y-82931009D02*
X119107142Y-82978628D01*
X119107142Y-82978628D02*
X119488094Y-82978628D01*
X118059523Y-82454819D02*
X118249999Y-82454819D01*
X118249999Y-82454819D02*
X118345237Y-82502438D01*
X118345237Y-82502438D02*
X118392856Y-82550057D01*
X118392856Y-82550057D02*
X118488094Y-82692914D01*
X118488094Y-82692914D02*
X118535713Y-82883390D01*
X118535713Y-82883390D02*
X118535713Y-83264342D01*
X118535713Y-83264342D02*
X118488094Y-83359580D01*
X118488094Y-83359580D02*
X118440475Y-83407200D01*
X118440475Y-83407200D02*
X118345237Y-83454819D01*
X118345237Y-83454819D02*
X118154761Y-83454819D01*
X118154761Y-83454819D02*
X118059523Y-83407200D01*
X118059523Y-83407200D02*
X118011904Y-83359580D01*
X118011904Y-83359580D02*
X117964285Y-83264342D01*
X117964285Y-83264342D02*
X117964285Y-83026247D01*
X117964285Y-83026247D02*
X118011904Y-82931009D01*
X118011904Y-82931009D02*
X118059523Y-82883390D01*
X118059523Y-82883390D02*
X118154761Y-82835771D01*
X118154761Y-82835771D02*
X118345237Y-82835771D01*
X118345237Y-82835771D02*
X118440475Y-82883390D01*
X118440475Y-82883390D02*
X118488094Y-82931009D01*
X118488094Y-82931009D02*
X118535713Y-83026247D01*
X119454819Y-66833333D02*
X118978628Y-66500000D01*
X119454819Y-66261905D02*
X118454819Y-66261905D01*
X118454819Y-66261905D02*
X118454819Y-66642857D01*
X118454819Y-66642857D02*
X118502438Y-66738095D01*
X118502438Y-66738095D02*
X118550057Y-66785714D01*
X118550057Y-66785714D02*
X118645295Y-66833333D01*
X118645295Y-66833333D02*
X118788152Y-66833333D01*
X118788152Y-66833333D02*
X118883390Y-66785714D01*
X118883390Y-66785714D02*
X118931009Y-66738095D01*
X118931009Y-66738095D02*
X118978628Y-66642857D01*
X118978628Y-66642857D02*
X118978628Y-66261905D01*
X119454819Y-67309524D02*
X119454819Y-67500000D01*
X119454819Y-67500000D02*
X119407200Y-67595238D01*
X119407200Y-67595238D02*
X119359580Y-67642857D01*
X119359580Y-67642857D02*
X119216723Y-67738095D01*
X119216723Y-67738095D02*
X119026247Y-67785714D01*
X119026247Y-67785714D02*
X118645295Y-67785714D01*
X118645295Y-67785714D02*
X118550057Y-67738095D01*
X118550057Y-67738095D02*
X118502438Y-67690476D01*
X118502438Y-67690476D02*
X118454819Y-67595238D01*
X118454819Y-67595238D02*
X118454819Y-67404762D01*
X118454819Y-67404762D02*
X118502438Y-67309524D01*
X118502438Y-67309524D02*
X118550057Y-67261905D01*
X118550057Y-67261905D02*
X118645295Y-67214286D01*
X118645295Y-67214286D02*
X118883390Y-67214286D01*
X118883390Y-67214286D02*
X118978628Y-67261905D01*
X118978628Y-67261905D02*
X119026247Y-67309524D01*
X119026247Y-67309524D02*
X119073866Y-67404762D01*
X119073866Y-67404762D02*
X119073866Y-67595238D01*
X119073866Y-67595238D02*
X119026247Y-67690476D01*
X119026247Y-67690476D02*
X118978628Y-67738095D01*
X118978628Y-67738095D02*
X118883390Y-67785714D01*
X112854819Y-85833333D02*
X112378628Y-85500000D01*
X112854819Y-85261905D02*
X111854819Y-85261905D01*
X111854819Y-85261905D02*
X111854819Y-85642857D01*
X111854819Y-85642857D02*
X111902438Y-85738095D01*
X111902438Y-85738095D02*
X111950057Y-85785714D01*
X111950057Y-85785714D02*
X112045295Y-85833333D01*
X112045295Y-85833333D02*
X112188152Y-85833333D01*
X112188152Y-85833333D02*
X112283390Y-85785714D01*
X112283390Y-85785714D02*
X112331009Y-85738095D01*
X112331009Y-85738095D02*
X112378628Y-85642857D01*
X112378628Y-85642857D02*
X112378628Y-85261905D01*
X112188152Y-86690476D02*
X112854819Y-86690476D01*
X111807200Y-86452381D02*
X112521485Y-86214286D01*
X112521485Y-86214286D02*
X112521485Y-86833333D01*
X123416666Y-83454819D02*
X123749999Y-82978628D01*
X123988094Y-83454819D02*
X123988094Y-82454819D01*
X123988094Y-82454819D02*
X123607142Y-82454819D01*
X123607142Y-82454819D02*
X123511904Y-82502438D01*
X123511904Y-82502438D02*
X123464285Y-82550057D01*
X123464285Y-82550057D02*
X123416666Y-82645295D01*
X123416666Y-82645295D02*
X123416666Y-82788152D01*
X123416666Y-82788152D02*
X123464285Y-82883390D01*
X123464285Y-82883390D02*
X123511904Y-82931009D01*
X123511904Y-82931009D02*
X123607142Y-82978628D01*
X123607142Y-82978628D02*
X123988094Y-82978628D01*
X122511904Y-82454819D02*
X122988094Y-82454819D01*
X122988094Y-82454819D02*
X123035713Y-82931009D01*
X123035713Y-82931009D02*
X122988094Y-82883390D01*
X122988094Y-82883390D02*
X122892856Y-82835771D01*
X122892856Y-82835771D02*
X122654761Y-82835771D01*
X122654761Y-82835771D02*
X122559523Y-82883390D01*
X122559523Y-82883390D02*
X122511904Y-82931009D01*
X122511904Y-82931009D02*
X122464285Y-83026247D01*
X122464285Y-83026247D02*
X122464285Y-83264342D01*
X122464285Y-83264342D02*
X122511904Y-83359580D01*
X122511904Y-83359580D02*
X122559523Y-83407200D01*
X122559523Y-83407200D02*
X122654761Y-83454819D01*
X122654761Y-83454819D02*
X122892856Y-83454819D01*
X122892856Y-83454819D02*
X122988094Y-83407200D01*
X122988094Y-83407200D02*
X123035713Y-83359580D01*
X143629166Y-88679580D02*
X143676785Y-88727200D01*
X143676785Y-88727200D02*
X143819642Y-88774819D01*
X143819642Y-88774819D02*
X143914880Y-88774819D01*
X143914880Y-88774819D02*
X144057737Y-88727200D01*
X144057737Y-88727200D02*
X144152975Y-88631961D01*
X144152975Y-88631961D02*
X144200594Y-88536723D01*
X144200594Y-88536723D02*
X144248213Y-88346247D01*
X144248213Y-88346247D02*
X144248213Y-88203390D01*
X144248213Y-88203390D02*
X144200594Y-88012914D01*
X144200594Y-88012914D02*
X144152975Y-87917676D01*
X144152975Y-87917676D02*
X144057737Y-87822438D01*
X144057737Y-87822438D02*
X143914880Y-87774819D01*
X143914880Y-87774819D02*
X143819642Y-87774819D01*
X143819642Y-87774819D02*
X143676785Y-87822438D01*
X143676785Y-87822438D02*
X143629166Y-87870057D01*
X143295832Y-87774819D02*
X142676785Y-87774819D01*
X142676785Y-87774819D02*
X143010118Y-88155771D01*
X143010118Y-88155771D02*
X142867261Y-88155771D01*
X142867261Y-88155771D02*
X142772023Y-88203390D01*
X142772023Y-88203390D02*
X142724404Y-88251009D01*
X142724404Y-88251009D02*
X142676785Y-88346247D01*
X142676785Y-88346247D02*
X142676785Y-88584342D01*
X142676785Y-88584342D02*
X142724404Y-88679580D01*
X142724404Y-88679580D02*
X142772023Y-88727200D01*
X142772023Y-88727200D02*
X142867261Y-88774819D01*
X142867261Y-88774819D02*
X143152975Y-88774819D01*
X143152975Y-88774819D02*
X143248213Y-88727200D01*
X143248213Y-88727200D02*
X143295832Y-88679580D01*
X125666666Y-88429580D02*
X125714285Y-88477200D01*
X125714285Y-88477200D02*
X125857142Y-88524819D01*
X125857142Y-88524819D02*
X125952380Y-88524819D01*
X125952380Y-88524819D02*
X126095237Y-88477200D01*
X126095237Y-88477200D02*
X126190475Y-88381961D01*
X126190475Y-88381961D02*
X126238094Y-88286723D01*
X126238094Y-88286723D02*
X126285713Y-88096247D01*
X126285713Y-88096247D02*
X126285713Y-87953390D01*
X126285713Y-87953390D02*
X126238094Y-87762914D01*
X126238094Y-87762914D02*
X126190475Y-87667676D01*
X126190475Y-87667676D02*
X126095237Y-87572438D01*
X126095237Y-87572438D02*
X125952380Y-87524819D01*
X125952380Y-87524819D02*
X125857142Y-87524819D01*
X125857142Y-87524819D02*
X125714285Y-87572438D01*
X125714285Y-87572438D02*
X125666666Y-87620057D01*
X125285713Y-87620057D02*
X125238094Y-87572438D01*
X125238094Y-87572438D02*
X125142856Y-87524819D01*
X125142856Y-87524819D02*
X124904761Y-87524819D01*
X124904761Y-87524819D02*
X124809523Y-87572438D01*
X124809523Y-87572438D02*
X124761904Y-87620057D01*
X124761904Y-87620057D02*
X124714285Y-87715295D01*
X124714285Y-87715295D02*
X124714285Y-87810533D01*
X124714285Y-87810533D02*
X124761904Y-87953390D01*
X124761904Y-87953390D02*
X125333332Y-88524819D01*
X125333332Y-88524819D02*
X124714285Y-88524819D01*
X127050057Y-67654761D02*
X127002438Y-67559523D01*
X127002438Y-67559523D02*
X126907200Y-67464285D01*
X126907200Y-67464285D02*
X126764342Y-67321428D01*
X126764342Y-67321428D02*
X126716723Y-67226190D01*
X126716723Y-67226190D02*
X126716723Y-67130952D01*
X126954819Y-67178571D02*
X126907200Y-67083333D01*
X126907200Y-67083333D02*
X126811961Y-66988095D01*
X126811961Y-66988095D02*
X126621485Y-66940476D01*
X126621485Y-66940476D02*
X126288152Y-66940476D01*
X126288152Y-66940476D02*
X126097676Y-66988095D01*
X126097676Y-66988095D02*
X126002438Y-67083333D01*
X126002438Y-67083333D02*
X125954819Y-67178571D01*
X125954819Y-67178571D02*
X125954819Y-67369047D01*
X125954819Y-67369047D02*
X126002438Y-67464285D01*
X126002438Y-67464285D02*
X126097676Y-67559523D01*
X126097676Y-67559523D02*
X126288152Y-67607142D01*
X126288152Y-67607142D02*
X126621485Y-67607142D01*
X126621485Y-67607142D02*
X126811961Y-67559523D01*
X126811961Y-67559523D02*
X126907200Y-67464285D01*
X126907200Y-67464285D02*
X126954819Y-67369047D01*
X126954819Y-67369047D02*
X126954819Y-67178571D01*
X126954819Y-68559523D02*
X126954819Y-67988095D01*
X126954819Y-68273809D02*
X125954819Y-68273809D01*
X125954819Y-68273809D02*
X126097676Y-68178571D01*
X126097676Y-68178571D02*
X126192914Y-68083333D01*
X126192914Y-68083333D02*
X126240533Y-67988095D01*
X126392857Y-83454819D02*
X126726190Y-82978628D01*
X126964285Y-83454819D02*
X126964285Y-82454819D01*
X126964285Y-82454819D02*
X126583333Y-82454819D01*
X126583333Y-82454819D02*
X126488095Y-82502438D01*
X126488095Y-82502438D02*
X126440476Y-82550057D01*
X126440476Y-82550057D02*
X126392857Y-82645295D01*
X126392857Y-82645295D02*
X126392857Y-82788152D01*
X126392857Y-82788152D02*
X126440476Y-82883390D01*
X126440476Y-82883390D02*
X126488095Y-82931009D01*
X126488095Y-82931009D02*
X126583333Y-82978628D01*
X126583333Y-82978628D02*
X126964285Y-82978628D01*
X125440476Y-83454819D02*
X126011904Y-83454819D01*
X125726190Y-83454819D02*
X125726190Y-82454819D01*
X125726190Y-82454819D02*
X125821428Y-82597676D01*
X125821428Y-82597676D02*
X125916666Y-82692914D01*
X125916666Y-82692914D02*
X126011904Y-82740533D01*
X124821428Y-82454819D02*
X124726190Y-82454819D01*
X124726190Y-82454819D02*
X124630952Y-82502438D01*
X124630952Y-82502438D02*
X124583333Y-82550057D01*
X124583333Y-82550057D02*
X124535714Y-82645295D01*
X124535714Y-82645295D02*
X124488095Y-82835771D01*
X124488095Y-82835771D02*
X124488095Y-83073866D01*
X124488095Y-83073866D02*
X124535714Y-83264342D01*
X124535714Y-83264342D02*
X124583333Y-83359580D01*
X124583333Y-83359580D02*
X124630952Y-83407200D01*
X124630952Y-83407200D02*
X124726190Y-83454819D01*
X124726190Y-83454819D02*
X124821428Y-83454819D01*
X124821428Y-83454819D02*
X124916666Y-83407200D01*
X124916666Y-83407200D02*
X124964285Y-83359580D01*
X124964285Y-83359580D02*
X125011904Y-83264342D01*
X125011904Y-83264342D02*
X125059523Y-83073866D01*
X125059523Y-83073866D02*
X125059523Y-82835771D01*
X125059523Y-82835771D02*
X125011904Y-82645295D01*
X125011904Y-82645295D02*
X124964285Y-82550057D01*
X124964285Y-82550057D02*
X124916666Y-82502438D01*
X124916666Y-82502438D02*
X124821428Y-82454819D01*
D11*
X107040000Y-44900000D02*
X107040000Y-47500000D01*
X107040000Y-44900000D02*
X157960000Y-44900000D01*
X107040000Y-47500000D02*
X109640000Y-47500000D01*
X107040000Y-48770000D02*
X107040000Y-50100000D01*
X107040000Y-50100000D02*
X108370000Y-50100000D01*
X109640000Y-47500000D02*
X109640000Y-50100000D01*
X109640000Y-50100000D02*
X157960000Y-50100000D01*
X157960000Y-44900000D02*
X157960000Y-50100000D01*
X120265000Y-80022936D02*
X120265000Y-80477064D01*
X121735000Y-80022936D02*
X121735000Y-80477064D01*
X123772936Y-63265000D02*
X124227064Y-63265000D01*
X123772936Y-64735000D02*
X124227064Y-64735000D01*
X110015000Y-89738748D02*
X110015000Y-90261252D01*
X111485000Y-89738748D02*
X111485000Y-90261252D01*
D12*
X121000000Y-76000000D02*
X121000000Y-74000000D01*
D11*
X118015000Y-80022936D02*
X118015000Y-80477064D01*
X119485000Y-80022936D02*
X119485000Y-80477064D01*
X120265000Y-66772936D02*
X120265000Y-67227064D01*
X121735000Y-66772936D02*
X121735000Y-67227064D01*
X110015000Y-86227064D02*
X110015000Y-85772936D01*
X111485000Y-86227064D02*
X111485000Y-85772936D01*
X122515000Y-80022936D02*
X122515000Y-80477064D01*
X123985000Y-80022936D02*
X123985000Y-80477064D01*
X143723752Y-89265000D02*
X143201248Y-89265000D01*
X143723752Y-90735000D02*
X143201248Y-90735000D01*
X125761252Y-89015000D02*
X125238748Y-89015000D01*
X125761252Y-90485000D02*
X125238748Y-90485000D01*
X122440000Y-66990000D02*
X122440000Y-68510000D01*
X122440000Y-68510000D02*
X123440000Y-68510000D01*
X122490000Y-66990000D02*
X122440000Y-66990000D01*
X124390000Y-66990000D02*
X123610000Y-66990000D01*
X124560000Y-68510000D02*
X125560000Y-68510000D01*
X125560000Y-66990000D02*
X125510000Y-66990000D01*
X125560000Y-68510000D02*
X125560000Y-66990000D01*
X123950000Y-66690000D02*
X123620000Y-66450000D01*
X123950000Y-66210000D01*
X123950000Y-66690000D01*
G36*
X123950000Y-66690000D02*
G01*
X123620000Y-66450000D01*
X123950000Y-66210000D01*
X123950000Y-66690000D01*
G37*
X124765000Y-80022936D02*
X124765000Y-80477064D01*
X126235000Y-80022936D02*
X126235000Y-80477064D01*
M02*
