M48
; DRILL file KiCad 10.0.1 date 2026-05-02T15:45:58
; FORMAT={-:-/ absolute / metric / decimal}
; #@! TF.CreationDate,2026-05-02T15:45:58+03:00
; #@! TF.GenerationSoftware,Kicad,Pcbnew,10.0.1
; #@! TF.FileFunction,Plated,1,2,PTH
FMAT,2
METRIC
; #@! TA.AperFunction,Plated,PTH,ViaDrill
T1C0.400
; #@! TA.AperFunction,Plated,PTH,ViaDrill
T2C0.500
; #@! TA.AperFunction,Plated,PTH,ViaDrill
T3C0.600
; #@! TA.AperFunction,Plated,PTH,ComponentDrill
T4C0.800
; #@! TA.AperFunction,Plated,PTH,ComponentDrill
T5C0.965
; #@! TA.AperFunction,Plated,PTH,ComponentDrill
T6C1.000
; #@! TA.AperFunction,Plated,PTH,ComponentDrill
T7C1.200
; #@! TA.AperFunction,Plated,PTH,ComponentDrill
T8C1.300
; #@! TA.AperFunction,Plated,PTH,ComponentDrill
T9C1.780
; #@! TA.AperFunction,Plated,PTH,ComponentDrill
T10C3.251
%
G90
G05
T1
X104.0Y-56.75
X107.0Y-56.75
X108.5Y-54.5
X108.75Y-62.75
X110.75Y-92.75
X113.05Y-86.95
X113.25Y-91.0
X114.78Y-73.77
X117.28Y-73.73
X118.39Y-61.98
T2
X118.0Y-86.5
X118.5Y-92.5
X122.25Y-89.75
X125.0Y-61.75
X127.0Y-64.0
X130.75Y-94.25
X132.75Y-80.0
X135.25Y-94.25
X135.5Y-59.0
X135.75Y-82.75
X137.01Y-69.92
X137.09Y-73.06
X138.5Y-61.5
X138.5Y-64.5
X138.5Y-71.5
X138.5Y-80.0
X139.77Y-69.97
X139.77Y-73.06
X140.25Y-90.0
X144.0Y-71.5
X151.5Y-67.0
X151.5Y-68.75
X151.5Y-70.5
X154.5Y-64.25
T3
X121.0Y-58.5
X121.0Y-63.75
T4
X122.2Y-70.5
X129.8Y-70.5
T5
X120.594Y-92.54
X121.61Y-94.318
X122.626Y-92.54
X123.642Y-94.318
X124.658Y-92.54
X125.674Y-94.318
X126.69Y-92.54
X127.706Y-94.318
X138.594Y-92.54
X139.61Y-94.318
X140.626Y-92.54
X141.642Y-94.318
X142.658Y-92.54
X143.674Y-94.318
X144.69Y-92.54
X145.706Y-94.318
T6
X108.37Y-46.23
X108.37Y-48.77
X110.91Y-46.23
X110.91Y-48.77
X113.45Y-46.23
X113.45Y-48.77
X115.99Y-46.23
X115.99Y-48.77
X118.53Y-46.23
X118.53Y-48.77
X121.07Y-46.23
X121.07Y-48.77
X123.61Y-46.23
X123.61Y-48.77
X126.15Y-46.23
X126.15Y-48.77
X128.69Y-46.23
X128.69Y-48.77
X131.23Y-46.23
X131.23Y-48.77
X133.77Y-46.23
X133.77Y-48.77
X136.31Y-46.23
X136.31Y-48.77
X138.85Y-46.23
X138.85Y-48.77
X141.39Y-46.23
X141.39Y-48.77
X143.93Y-46.23
X143.93Y-48.77
X146.47Y-46.23
X146.47Y-48.77
X149.01Y-46.23
X149.01Y-48.77
X151.55Y-46.23
X151.55Y-48.77
X154.09Y-46.23
X154.09Y-48.77
X156.63Y-46.23
X156.63Y-48.77
T7
X105.082Y-83.475
X105.082Y-86.975
X105.082Y-90.475
T8
X105.582Y-54.205
X105.582Y-59.285
T9
X108.8Y-66.54
X108.8Y-76.46
X112.2Y-66.54
X112.2Y-76.46
T10
X117.8Y-90.0
X130.5Y-90.0
X135.8Y-90.0
X148.5Y-90.0
M30
