G04 #@! TF.GenerationSoftware,KiCad,Pcbnew,10.0.1*
G04 #@! TF.CreationDate,2026-05-02T15:45:56+03:00*
G04 #@! TF.ProjectId,Pi-EGT,50692d45-4754-42e6-9b69-6361645f7063,rev?*
G04 #@! TF.SameCoordinates,Original*
G04 #@! TF.FileFunction,Copper,L1,Top*
G04 #@! TF.FilePolarity,Positive*
%FSLAX46Y46*%
G04 Gerber Fmt 4.6, Leading zero omitted, Abs format (unit mm)*
G04 Created by KiCad (PCBNEW 10.0.1) date 2026-05-02 15:45:56*
%MOMM*%
%LPD*%
G01*
G04 APERTURE LIST*
G04 Aperture macros list*
%AMRoundRect*
0 Rectangle with rounded corners*
0 $1 Rounding radius*
0 $2 $3 $4 $5 $6 $7 $8 $9 X,Y pos of 4 corners*
0 Add a 4 corners polygon primitive as box body*
4,1,4,$2,$3,$4,$5,$6,$7,$8,$9,$2,$3,0*
0 Add four circle primitives for the rounded corners*
1,1,$1+$1,$2,$3*
1,1,$1+$1,$4,$5*
1,1,$1+$1,$6,$7*
1,1,$1+$1,$8,$9*
0 Add four rect primitives between the rounded corners*
20,1,$1+$1,$2,$3,$4,$5,0*
20,1,$1+$1,$4,$5,$6,$7,0*
20,1,$1+$1,$6,$7,$8,$9,0*
20,1,$1+$1,$8,$9,$2,$3,0*%
%AMFreePoly0*
4,1,32,2.050000,1.984000,2.000000,1.960000,1.900000,1.905000,1.800000,1.844000,1.700000,1.775000,1.600000,1.697000,1.500000,1.609000,1.400000,1.510000,1.300000,1.396000,1.200000,1.265000,1.100000,1.109000,1.000000,0.917000,0.900000,0.656000,0.800000,0.000000,0.900000,-0.656000,1.000000,-0.917000,1.100000,-1.109000,1.200000,-1.265000,1.300000,-1.396000,1.400000,-1.510000,
1.500000,-1.609000,1.600000,-1.697000,1.700000,-1.775000,1.800000,-1.844000,1.900000,-1.905000,2.000000,-1.960000,2.050000,-1.984000,2.050000,-3.150000,-0.150000,-3.150000,-0.150000,3.150000,2.050000,3.150000,2.050000,1.984000,2.050000,1.984000,$1*%
%AMFreePoly1*
4,1,33,0.150000,-3.150000,-0.150000,-3.150000,-2.050000,-3.150000,-2.050000,-1.984000,-2.000000,-1.960000,-1.900000,-1.905000,-1.800000,-1.844000,-1.700000,-1.775000,-1.600000,-1.697000,-1.500000,-1.609000,-1.400000,-1.510000,-1.300000,-1.396000,-1.200000,-1.265000,-1.100000,-1.109000,-1.000000,-0.917000,-0.900000,-0.656000,-0.800000,0.000000,-0.900000,0.656000,-1.000000,0.917000,-1.100000,1.109000,
-1.200000,1.265000,-1.300000,1.396000,-1.400000,1.510000,-1.500000,1.609000,-1.600000,1.697000,-1.700000,1.775000,-1.800000,1.844000,-1.900000,1.905000,-2.000000,1.960000,-2.050000,1.984000,-2.050000,3.150000,0.150000,3.150000,0.150000,-3.150000,0.150000,-3.150000,$1*%
G04 Aperture macros list end*
%ADD10C,0.300000*%
G04 #@! TA.AperFunction,NonConductor*
%ADD11C,0.300000*%
G04 #@! TD*
G04 #@! TA.AperFunction,NonConductor*
%ADD12C,0.200000*%
G04 #@! TD*
G04 #@! TA.AperFunction,ComponentPad*
%ADD13RoundRect,0.250000X-1.050000X1.050000X-1.050000X-1.050000X1.050000X-1.050000X1.050000X1.050000X0*%
G04 #@! TD*
G04 #@! TA.AperFunction,ComponentPad*
%ADD14C,2.600000*%
G04 #@! TD*
G04 #@! TA.AperFunction,ComponentPad*
%ADD15C,2.000000*%
G04 #@! TD*
G04 #@! TA.AperFunction,ComponentPad*
%ADD16R,2.000000X2.000000*%
G04 #@! TD*
G04 #@! TA.AperFunction,SMDPad,CuDef*
%ADD17FreePoly0,180.000000*%
G04 #@! TD*
G04 #@! TA.AperFunction,SMDPad,CuDef*
%ADD18FreePoly1,180.000000*%
G04 #@! TD*
G04 #@! TA.AperFunction,SMDPad,CuDef*
%ADD19R,2.900000X5.400000*%
G04 #@! TD*
G04 #@! TA.AperFunction,SMDPad,CuDef*
%ADD20RoundRect,0.250000X2.050000X0.300000X-2.050000X0.300000X-2.050000X-0.300000X2.050000X-0.300000X0*%
G04 #@! TD*
G04 #@! TA.AperFunction,SMDPad,CuDef*
%ADD21RoundRect,0.250002X4.449998X5.149998X-4.449998X5.149998X-4.449998X-5.149998X4.449998X-5.149998X0*%
G04 #@! TD*
G04 #@! TA.AperFunction,ComponentPad*
%ADD22C,1.473200*%
G04 #@! TD*
G04 #@! TA.AperFunction,ComponentPad*
%ADD23C,3.759200*%
G04 #@! TD*
G04 #@! TA.AperFunction,SMDPad,CuDef*
%ADD24RoundRect,0.250000X0.337500X0.475000X-0.337500X0.475000X-0.337500X-0.475000X0.337500X-0.475000X0*%
G04 #@! TD*
G04 #@! TA.AperFunction,SMDPad,CuDef*
%ADD25RoundRect,0.250001X0.872499X1.044999X-0.872499X1.044999X-0.872499X-1.044999X0.872499X-1.044999X0*%
G04 #@! TD*
G04 #@! TA.AperFunction,SMDPad,CuDef*
%ADD26RoundRect,0.250001X-1.044999X0.872499X-1.044999X-0.872499X1.044999X-0.872499X1.044999X0.872499X0*%
G04 #@! TD*
G04 #@! TA.AperFunction,SMDPad,CuDef*
%ADD27RoundRect,0.250000X0.650000X-1.000000X0.650000X1.000000X-0.650000X1.000000X-0.650000X-1.000000X0*%
G04 #@! TD*
G04 #@! TA.AperFunction,ComponentPad*
%ADD28RoundRect,0.250001X-0.949999X0.949999X-0.949999X-0.949999X0.949999X-0.949999X0.949999X0.949999X0*%
G04 #@! TD*
G04 #@! TA.AperFunction,ComponentPad*
%ADD29C,2.400000*%
G04 #@! TD*
G04 #@! TA.AperFunction,ComponentPad*
%ADD30C,2.780000*%
G04 #@! TD*
G04 #@! TA.AperFunction,ComponentPad*
%ADD31R,1.700000X1.700000*%
G04 #@! TD*
G04 #@! TA.AperFunction,ComponentPad*
%ADD32O,1.700000X1.700000*%
G04 #@! TD*
G04 #@! TA.AperFunction,ViaPad*
%ADD33C,1.000000*%
G04 #@! TD*
G04 #@! TA.AperFunction,ViaPad*
%ADD34C,0.800000*%
G04 #@! TD*
G04 #@! TA.AperFunction,ViaPad*
%ADD35C,0.900000*%
G04 #@! TD*
G04 #@! TA.AperFunction,Conductor*
%ADD36C,2.500000*%
G04 #@! TD*
G04 #@! TA.AperFunction,Conductor*
%ADD37C,1.000000*%
G04 #@! TD*
G04 #@! TA.AperFunction,Conductor*
%ADD38C,0.250000*%
G04 #@! TD*
G04 #@! TA.AperFunction,Conductor*
%ADD39C,0.500000*%
G04 #@! TD*
G04 APERTURE END LIST*
D10*
D11*
X92378328Y-78357855D02*
X92378328Y-79072141D01*
X92378328Y-79072141D02*
X93092614Y-79143569D01*
X93092614Y-79143569D02*
X93021185Y-79072141D01*
X93021185Y-79072141D02*
X92949757Y-78929284D01*
X92949757Y-78929284D02*
X92949757Y-78572141D01*
X92949757Y-78572141D02*
X93021185Y-78429284D01*
X93021185Y-78429284D02*
X93092614Y-78357855D01*
X93092614Y-78357855D02*
X93235471Y-78286426D01*
X93235471Y-78286426D02*
X93592614Y-78286426D01*
X93592614Y-78286426D02*
X93735471Y-78357855D01*
X93735471Y-78357855D02*
X93806900Y-78429284D01*
X93806900Y-78429284D02*
X93878328Y-78572141D01*
X93878328Y-78572141D02*
X93878328Y-78929284D01*
X93878328Y-78929284D02*
X93806900Y-79072141D01*
X93806900Y-79072141D02*
X93735471Y-79143569D01*
X92378328Y-76929284D02*
X92378328Y-77643570D01*
X92378328Y-77643570D02*
X93092614Y-77714998D01*
X93092614Y-77714998D02*
X93021185Y-77643570D01*
X93021185Y-77643570D02*
X92949757Y-77500713D01*
X92949757Y-77500713D02*
X92949757Y-77143570D01*
X92949757Y-77143570D02*
X93021185Y-77000713D01*
X93021185Y-77000713D02*
X93092614Y-76929284D01*
X93092614Y-76929284D02*
X93235471Y-76857855D01*
X93235471Y-76857855D02*
X93592614Y-76857855D01*
X93592614Y-76857855D02*
X93735471Y-76929284D01*
X93735471Y-76929284D02*
X93806900Y-77000713D01*
X93806900Y-77000713D02*
X93878328Y-77143570D01*
X93878328Y-77143570D02*
X93878328Y-77500713D01*
X93878328Y-77500713D02*
X93806900Y-77643570D01*
X93806900Y-77643570D02*
X93735471Y-77714998D01*
X93735471Y-76214999D02*
X93806900Y-76143570D01*
X93806900Y-76143570D02*
X93878328Y-76214999D01*
X93878328Y-76214999D02*
X93806900Y-76286427D01*
X93806900Y-76286427D02*
X93735471Y-76214999D01*
X93735471Y-76214999D02*
X93878328Y-76214999D01*
X92378328Y-74786427D02*
X92378328Y-75500713D01*
X92378328Y-75500713D02*
X93092614Y-75572141D01*
X93092614Y-75572141D02*
X93021185Y-75500713D01*
X93021185Y-75500713D02*
X92949757Y-75357856D01*
X92949757Y-75357856D02*
X92949757Y-75000713D01*
X92949757Y-75000713D02*
X93021185Y-74857856D01*
X93021185Y-74857856D02*
X93092614Y-74786427D01*
X93092614Y-74786427D02*
X93235471Y-74714998D01*
X93235471Y-74714998D02*
X93592614Y-74714998D01*
X93592614Y-74714998D02*
X93735471Y-74786427D01*
X93735471Y-74786427D02*
X93806900Y-74857856D01*
X93806900Y-74857856D02*
X93878328Y-75000713D01*
X93878328Y-75000713D02*
X93878328Y-75357856D01*
X93878328Y-75357856D02*
X93806900Y-75500713D01*
X93806900Y-75500713D02*
X93735471Y-75572141D01*
X92378328Y-74214999D02*
X92378328Y-73214999D01*
X92378328Y-73214999D02*
X93878328Y-73857856D01*
X92378328Y-72357856D02*
X92378328Y-72214999D01*
X92378328Y-72214999D02*
X92449757Y-72072142D01*
X92449757Y-72072142D02*
X92521185Y-72000714D01*
X92521185Y-72000714D02*
X92664042Y-71929285D01*
X92664042Y-71929285D02*
X92949757Y-71857856D01*
X92949757Y-71857856D02*
X93306900Y-71857856D01*
X93306900Y-71857856D02*
X93592614Y-71929285D01*
X93592614Y-71929285D02*
X93735471Y-72000714D01*
X93735471Y-72000714D02*
X93806900Y-72072142D01*
X93806900Y-72072142D02*
X93878328Y-72214999D01*
X93878328Y-72214999D02*
X93878328Y-72357856D01*
X93878328Y-72357856D02*
X93806900Y-72500714D01*
X93806900Y-72500714D02*
X93735471Y-72572142D01*
X93735471Y-72572142D02*
X93592614Y-72643571D01*
X93592614Y-72643571D02*
X93306900Y-72714999D01*
X93306900Y-72714999D02*
X92949757Y-72714999D01*
X92949757Y-72714999D02*
X92664042Y-72643571D01*
X92664042Y-72643571D02*
X92521185Y-72572142D01*
X92521185Y-72572142D02*
X92449757Y-72500714D01*
X92449757Y-72500714D02*
X92378328Y-72357856D01*
X92378328Y-70929285D02*
X92378328Y-70786428D01*
X92378328Y-70786428D02*
X92449757Y-70643571D01*
X92449757Y-70643571D02*
X92521185Y-70572143D01*
X92521185Y-70572143D02*
X92664042Y-70500714D01*
X92664042Y-70500714D02*
X92949757Y-70429285D01*
X92949757Y-70429285D02*
X93306900Y-70429285D01*
X93306900Y-70429285D02*
X93592614Y-70500714D01*
X93592614Y-70500714D02*
X93735471Y-70572143D01*
X93735471Y-70572143D02*
X93806900Y-70643571D01*
X93806900Y-70643571D02*
X93878328Y-70786428D01*
X93878328Y-70786428D02*
X93878328Y-70929285D01*
X93878328Y-70929285D02*
X93806900Y-71072143D01*
X93806900Y-71072143D02*
X93735471Y-71143571D01*
X93735471Y-71143571D02*
X93592614Y-71215000D01*
X93592614Y-71215000D02*
X93306900Y-71286428D01*
X93306900Y-71286428D02*
X92949757Y-71286428D01*
X92949757Y-71286428D02*
X92664042Y-71215000D01*
X92664042Y-71215000D02*
X92521185Y-71143571D01*
X92521185Y-71143571D02*
X92449757Y-71072143D01*
X92449757Y-71072143D02*
X92378328Y-70929285D01*
X93878328Y-68643572D02*
X92878328Y-68643572D01*
X93021185Y-68643572D02*
X92949757Y-68572143D01*
X92949757Y-68572143D02*
X92878328Y-68429286D01*
X92878328Y-68429286D02*
X92878328Y-68215000D01*
X92878328Y-68215000D02*
X92949757Y-68072143D01*
X92949757Y-68072143D02*
X93092614Y-68000715D01*
X93092614Y-68000715D02*
X93878328Y-68000715D01*
X93092614Y-68000715D02*
X92949757Y-67929286D01*
X92949757Y-67929286D02*
X92878328Y-67786429D01*
X92878328Y-67786429D02*
X92878328Y-67572143D01*
X92878328Y-67572143D02*
X92949757Y-67429286D01*
X92949757Y-67429286D02*
X93092614Y-67357857D01*
X93092614Y-67357857D02*
X93878328Y-67357857D01*
X93878328Y-66643572D02*
X92878328Y-66643572D01*
X93021185Y-66643572D02*
X92949757Y-66572143D01*
X92949757Y-66572143D02*
X92878328Y-66429286D01*
X92878328Y-66429286D02*
X92878328Y-66215000D01*
X92878328Y-66215000D02*
X92949757Y-66072143D01*
X92949757Y-66072143D02*
X93092614Y-66000715D01*
X93092614Y-66000715D02*
X93878328Y-66000715D01*
X93092614Y-66000715D02*
X92949757Y-65929286D01*
X92949757Y-65929286D02*
X92878328Y-65786429D01*
X92878328Y-65786429D02*
X92878328Y-65572143D01*
X92878328Y-65572143D02*
X92949757Y-65429286D01*
X92949757Y-65429286D02*
X93092614Y-65357857D01*
X93092614Y-65357857D02*
X93878328Y-65357857D01*
D12*
X103000000Y-100000000D02*
X94413580Y-100000000D01*
X94413580Y-44430000D02*
X106070000Y-44430000D01*
X95000000Y-100000000D02*
X95000000Y-44430000D01*
X95000000Y-100000000D02*
X94413579Y-98873496D01*
X95000000Y-100000000D02*
X95586421Y-98873496D01*
X95000000Y-44430000D02*
X95586421Y-45556504D01*
X95000000Y-44430000D02*
X94413579Y-45556504D01*
D10*
D11*
X126285716Y-108878328D02*
X126000001Y-108878328D01*
X126000001Y-108878328D02*
X125857144Y-108949757D01*
X125857144Y-108949757D02*
X125785716Y-109021185D01*
X125785716Y-109021185D02*
X125642858Y-109235471D01*
X125642858Y-109235471D02*
X125571430Y-109521185D01*
X125571430Y-109521185D02*
X125571430Y-110092614D01*
X125571430Y-110092614D02*
X125642858Y-110235471D01*
X125642858Y-110235471D02*
X125714287Y-110306900D01*
X125714287Y-110306900D02*
X125857144Y-110378328D01*
X125857144Y-110378328D02*
X126142858Y-110378328D01*
X126142858Y-110378328D02*
X126285716Y-110306900D01*
X126285716Y-110306900D02*
X126357144Y-110235471D01*
X126357144Y-110235471D02*
X126428573Y-110092614D01*
X126428573Y-110092614D02*
X126428573Y-109735471D01*
X126428573Y-109735471D02*
X126357144Y-109592614D01*
X126357144Y-109592614D02*
X126285716Y-109521185D01*
X126285716Y-109521185D02*
X126142858Y-109449757D01*
X126142858Y-109449757D02*
X125857144Y-109449757D01*
X125857144Y-109449757D02*
X125714287Y-109521185D01*
X125714287Y-109521185D02*
X125642858Y-109592614D01*
X125642858Y-109592614D02*
X125571430Y-109735471D01*
X127785715Y-108878328D02*
X127071429Y-108878328D01*
X127071429Y-108878328D02*
X127000001Y-109592614D01*
X127000001Y-109592614D02*
X127071429Y-109521185D01*
X127071429Y-109521185D02*
X127214287Y-109449757D01*
X127214287Y-109449757D02*
X127571429Y-109449757D01*
X127571429Y-109449757D02*
X127714287Y-109521185D01*
X127714287Y-109521185D02*
X127785715Y-109592614D01*
X127785715Y-109592614D02*
X127857144Y-109735471D01*
X127857144Y-109735471D02*
X127857144Y-110092614D01*
X127857144Y-110092614D02*
X127785715Y-110235471D01*
X127785715Y-110235471D02*
X127714287Y-110306900D01*
X127714287Y-110306900D02*
X127571429Y-110378328D01*
X127571429Y-110378328D02*
X127214287Y-110378328D01*
X127214287Y-110378328D02*
X127071429Y-110306900D01*
X127071429Y-110306900D02*
X127000001Y-110235471D01*
X128500000Y-110235471D02*
X128571429Y-110306900D01*
X128571429Y-110306900D02*
X128500000Y-110378328D01*
X128500000Y-110378328D02*
X128428572Y-110306900D01*
X128428572Y-110306900D02*
X128500000Y-110235471D01*
X128500000Y-110235471D02*
X128500000Y-110378328D01*
X129500001Y-108878328D02*
X129642858Y-108878328D01*
X129642858Y-108878328D02*
X129785715Y-108949757D01*
X129785715Y-108949757D02*
X129857144Y-109021185D01*
X129857144Y-109021185D02*
X129928572Y-109164042D01*
X129928572Y-109164042D02*
X130000001Y-109449757D01*
X130000001Y-109449757D02*
X130000001Y-109806900D01*
X130000001Y-109806900D02*
X129928572Y-110092614D01*
X129928572Y-110092614D02*
X129857144Y-110235471D01*
X129857144Y-110235471D02*
X129785715Y-110306900D01*
X129785715Y-110306900D02*
X129642858Y-110378328D01*
X129642858Y-110378328D02*
X129500001Y-110378328D01*
X129500001Y-110378328D02*
X129357144Y-110306900D01*
X129357144Y-110306900D02*
X129285715Y-110235471D01*
X129285715Y-110235471D02*
X129214286Y-110092614D01*
X129214286Y-110092614D02*
X129142858Y-109806900D01*
X129142858Y-109806900D02*
X129142858Y-109449757D01*
X129142858Y-109449757D02*
X129214286Y-109164042D01*
X129214286Y-109164042D02*
X129285715Y-109021185D01*
X129285715Y-109021185D02*
X129357144Y-108949757D01*
X129357144Y-108949757D02*
X129500001Y-108878328D01*
X130928572Y-108878328D02*
X131071429Y-108878328D01*
X131071429Y-108878328D02*
X131214286Y-108949757D01*
X131214286Y-108949757D02*
X131285715Y-109021185D01*
X131285715Y-109021185D02*
X131357143Y-109164042D01*
X131357143Y-109164042D02*
X131428572Y-109449757D01*
X131428572Y-109449757D02*
X131428572Y-109806900D01*
X131428572Y-109806900D02*
X131357143Y-110092614D01*
X131357143Y-110092614D02*
X131285715Y-110235471D01*
X131285715Y-110235471D02*
X131214286Y-110306900D01*
X131214286Y-110306900D02*
X131071429Y-110378328D01*
X131071429Y-110378328D02*
X130928572Y-110378328D01*
X130928572Y-110378328D02*
X130785715Y-110306900D01*
X130785715Y-110306900D02*
X130714286Y-110235471D01*
X130714286Y-110235471D02*
X130642857Y-110092614D01*
X130642857Y-110092614D02*
X130571429Y-109806900D01*
X130571429Y-109806900D02*
X130571429Y-109449757D01*
X130571429Y-109449757D02*
X130642857Y-109164042D01*
X130642857Y-109164042D02*
X130714286Y-109021185D01*
X130714286Y-109021185D02*
X130785715Y-108949757D01*
X130785715Y-108949757D02*
X130928572Y-108878328D01*
X132357143Y-108878328D02*
X132500000Y-108878328D01*
X132500000Y-108878328D02*
X132642857Y-108949757D01*
X132642857Y-108949757D02*
X132714286Y-109021185D01*
X132714286Y-109021185D02*
X132785714Y-109164042D01*
X132785714Y-109164042D02*
X132857143Y-109449757D01*
X132857143Y-109449757D02*
X132857143Y-109806900D01*
X132857143Y-109806900D02*
X132785714Y-110092614D01*
X132785714Y-110092614D02*
X132714286Y-110235471D01*
X132714286Y-110235471D02*
X132642857Y-110306900D01*
X132642857Y-110306900D02*
X132500000Y-110378328D01*
X132500000Y-110378328D02*
X132357143Y-110378328D01*
X132357143Y-110378328D02*
X132214286Y-110306900D01*
X132214286Y-110306900D02*
X132142857Y-110235471D01*
X132142857Y-110235471D02*
X132071428Y-110092614D01*
X132071428Y-110092614D02*
X132000000Y-109806900D01*
X132000000Y-109806900D02*
X132000000Y-109449757D01*
X132000000Y-109449757D02*
X132071428Y-109164042D01*
X132071428Y-109164042D02*
X132142857Y-109021185D01*
X132142857Y-109021185D02*
X132214286Y-108949757D01*
X132214286Y-108949757D02*
X132357143Y-108878328D01*
X133785714Y-108878328D02*
X133928571Y-108878328D01*
X133928571Y-108878328D02*
X134071428Y-108949757D01*
X134071428Y-108949757D02*
X134142857Y-109021185D01*
X134142857Y-109021185D02*
X134214285Y-109164042D01*
X134214285Y-109164042D02*
X134285714Y-109449757D01*
X134285714Y-109449757D02*
X134285714Y-109806900D01*
X134285714Y-109806900D02*
X134214285Y-110092614D01*
X134214285Y-110092614D02*
X134142857Y-110235471D01*
X134142857Y-110235471D02*
X134071428Y-110306900D01*
X134071428Y-110306900D02*
X133928571Y-110378328D01*
X133928571Y-110378328D02*
X133785714Y-110378328D01*
X133785714Y-110378328D02*
X133642857Y-110306900D01*
X133642857Y-110306900D02*
X133571428Y-110235471D01*
X133571428Y-110235471D02*
X133499999Y-110092614D01*
X133499999Y-110092614D02*
X133428571Y-109806900D01*
X133428571Y-109806900D02*
X133428571Y-109449757D01*
X133428571Y-109449757D02*
X133499999Y-109164042D01*
X133499999Y-109164042D02*
X133571428Y-109021185D01*
X133571428Y-109021185D02*
X133642857Y-108949757D01*
X133642857Y-108949757D02*
X133785714Y-108878328D01*
X136071427Y-110378328D02*
X136071427Y-109378328D01*
X136071427Y-109521185D02*
X136142856Y-109449757D01*
X136142856Y-109449757D02*
X136285713Y-109378328D01*
X136285713Y-109378328D02*
X136499999Y-109378328D01*
X136499999Y-109378328D02*
X136642856Y-109449757D01*
X136642856Y-109449757D02*
X136714285Y-109592614D01*
X136714285Y-109592614D02*
X136714285Y-110378328D01*
X136714285Y-109592614D02*
X136785713Y-109449757D01*
X136785713Y-109449757D02*
X136928570Y-109378328D01*
X136928570Y-109378328D02*
X137142856Y-109378328D01*
X137142856Y-109378328D02*
X137285713Y-109449757D01*
X137285713Y-109449757D02*
X137357142Y-109592614D01*
X137357142Y-109592614D02*
X137357142Y-110378328D01*
X138071427Y-110378328D02*
X138071427Y-109378328D01*
X138071427Y-109521185D02*
X138142856Y-109449757D01*
X138142856Y-109449757D02*
X138285713Y-109378328D01*
X138285713Y-109378328D02*
X138499999Y-109378328D01*
X138499999Y-109378328D02*
X138642856Y-109449757D01*
X138642856Y-109449757D02*
X138714285Y-109592614D01*
X138714285Y-109592614D02*
X138714285Y-110378328D01*
X138714285Y-109592614D02*
X138785713Y-109449757D01*
X138785713Y-109449757D02*
X138928570Y-109378328D01*
X138928570Y-109378328D02*
X139142856Y-109378328D01*
X139142856Y-109378328D02*
X139285713Y-109449757D01*
X139285713Y-109449757D02*
X139357142Y-109592614D01*
X139357142Y-109592614D02*
X139357142Y-110378328D01*
D12*
X100000000Y-97000000D02*
X100000000Y-112086420D01*
X165000000Y-112086420D02*
X165000000Y-97500000D01*
X100000000Y-111500000D02*
X165000000Y-111500000D01*
X100000000Y-111500000D02*
X101126504Y-110913579D01*
X100000000Y-111500000D02*
X101126504Y-112086421D01*
X165000000Y-111500000D02*
X163873496Y-112086421D01*
X165000000Y-111500000D02*
X163873496Y-110913579D01*
D13*
X105582500Y-54205000D03*
D14*
X105582500Y-59285000D03*
D15*
X129800000Y-70500000D03*
D16*
X122200000Y-70500000D03*
D17*
X142500000Y-54750000D03*
D18*
X136500000Y-54750000D03*
D19*
X156700000Y-58500000D03*
X147000000Y-58500000D03*
D20*
X147650000Y-74900000D03*
X147650000Y-73200000D03*
X147650000Y-71500000D03*
D21*
X138500000Y-71500000D03*
D20*
X147650000Y-69800000D03*
X147650000Y-68100000D03*
D22*
X138594000Y-92540000D03*
X139610000Y-94318000D03*
X140626000Y-92540000D03*
X141642000Y-94318000D03*
X142658000Y-92540000D03*
X143674000Y-94318000D03*
X144690000Y-92540000D03*
X145706000Y-94318000D03*
D23*
X135800000Y-90000000D03*
X148500000Y-90000000D03*
D24*
X120595500Y-51867000D03*
X118520500Y-51867000D03*
D25*
X142207500Y-80000000D03*
X135792500Y-80000000D03*
D26*
X131500000Y-53292500D03*
X131500000Y-59707500D03*
D25*
X141957500Y-63000000D03*
X135542500Y-63000000D03*
D27*
X113750000Y-61250000D03*
X113750000Y-57250000D03*
D28*
X105082500Y-83475000D03*
D29*
X105082500Y-86975000D03*
X105082500Y-90475000D03*
D30*
X112200000Y-66540000D03*
X108800000Y-66540000D03*
X112200000Y-76460000D03*
X108800000Y-76460000D03*
D22*
X120594000Y-92540000D03*
X121610000Y-94318000D03*
X122626000Y-92540000D03*
X123642000Y-94318000D03*
X124658000Y-92540000D03*
X125674000Y-94318000D03*
X126690000Y-92540000D03*
X127706000Y-94318000D03*
D23*
X117800000Y-90000000D03*
X130500000Y-90000000D03*
D27*
X154500000Y-71000000D03*
X154500000Y-67000000D03*
D31*
X108370000Y-48770000D03*
D32*
X108370000Y-46230000D03*
X110910000Y-48770000D03*
X110910000Y-46230000D03*
X113450000Y-48770000D03*
X113450000Y-46230000D03*
X115990000Y-48770000D03*
X115990000Y-46230000D03*
X118530000Y-48770000D03*
X118530000Y-46230000D03*
X121070000Y-48770000D03*
X121070000Y-46230000D03*
X123610000Y-48770000D03*
X123610000Y-46230000D03*
X126150000Y-48770000D03*
X126150000Y-46230000D03*
X128690000Y-48770000D03*
X128690000Y-46230000D03*
X131230000Y-48770000D03*
X131230000Y-46230000D03*
X133770000Y-48770000D03*
X133770000Y-46230000D03*
X136310000Y-48770000D03*
X136310000Y-46230000D03*
X138850000Y-48770000D03*
X138850000Y-46230000D03*
X141390000Y-48770000D03*
X141390000Y-46230000D03*
X143930000Y-48770000D03*
X143930000Y-46230000D03*
X146470000Y-48770000D03*
X146470000Y-46230000D03*
X149010000Y-48770000D03*
X149010000Y-46230000D03*
X151550000Y-48770000D03*
X151550000Y-46230000D03*
X154090000Y-48770000D03*
X154090000Y-46230000D03*
X156630000Y-48770000D03*
X156630000Y-46230000D03*
D33*
X138500000Y-61500000D03*
X138500000Y-80000000D03*
X151500000Y-67000000D03*
X151500000Y-70500000D03*
X139770000Y-69970000D03*
X137090000Y-73060000D03*
X118500000Y-92500000D03*
D34*
X108750000Y-62750000D03*
D33*
X144000000Y-71500000D03*
X130750000Y-94250000D03*
X138500000Y-64500000D03*
D34*
X108500000Y-54500000D03*
X110750000Y-92750000D03*
X114780000Y-73770000D03*
D33*
X139770000Y-73060000D03*
X138500000Y-71500000D03*
D34*
X104000000Y-56750000D03*
D33*
X127000000Y-64000000D03*
X118000000Y-86500000D03*
D34*
X107000000Y-56750000D03*
X118390000Y-61980000D03*
D33*
X135500000Y-59000000D03*
D34*
X113250000Y-91000000D03*
D33*
X135750000Y-82750000D03*
X135250000Y-94250000D03*
D34*
X117280000Y-73730000D03*
D33*
X154500000Y-64250000D03*
X137010000Y-69920000D03*
X122250000Y-89750000D03*
X132750000Y-80000000D03*
X125000000Y-61750000D03*
X151500000Y-68750000D03*
X140250000Y-90000000D03*
D34*
X113050000Y-86950000D03*
D35*
X121000000Y-58500000D03*
X121000000Y-63750000D03*
D36*
X109750000Y-57250000D02*
X113750000Y-57250000D01*
X105582500Y-59285000D02*
X107715000Y-59285000D01*
X107715000Y-59285000D02*
X109750000Y-57250000D01*
X123114000Y-53518000D02*
X131274500Y-53518000D01*
D37*
X107810000Y-46230000D02*
X106604000Y-47436000D01*
X106604000Y-47436000D02*
X106604000Y-51232000D01*
X108370000Y-46230000D02*
X107810000Y-46230000D01*
X119500000Y-71500000D02*
X116764000Y-68764000D01*
X121200000Y-71500000D02*
X122200000Y-70500000D01*
X110910000Y-46230000D02*
X108370000Y-46230000D01*
X106604000Y-51232000D02*
X107493000Y-52121000D01*
D36*
X113976000Y-52000000D02*
X116764000Y-54788000D01*
D37*
X116764000Y-68764000D02*
X116764000Y-54788000D01*
D36*
X123114000Y-53518000D02*
X121844000Y-54788000D01*
D37*
X107493000Y-52121000D02*
X109379000Y-52121000D01*
X109379000Y-52121000D02*
X109500000Y-52000000D01*
D36*
X134292500Y-53292500D02*
X131500000Y-53292500D01*
D37*
X121463000Y-51867000D02*
X123114000Y-53518000D01*
X136500000Y-54750000D02*
X136000000Y-54750000D01*
D36*
X131274500Y-53518000D02*
X131500000Y-53292500D01*
X136000000Y-54750000D02*
X135750000Y-54750000D01*
D37*
X119500000Y-71500000D02*
X121200000Y-71500000D01*
D36*
X135750000Y-54750000D02*
X134292500Y-53292500D01*
X109500000Y-52000000D02*
X113976000Y-52000000D01*
X121844000Y-54788000D02*
X116764000Y-54788000D01*
D37*
X120595500Y-51867000D02*
X121463000Y-51867000D01*
X145350000Y-69800000D02*
X144323000Y-68773000D01*
D36*
X145207500Y-57457500D02*
X145207500Y-58500000D01*
D37*
X144323000Y-66599000D02*
X145212000Y-65710000D01*
D36*
X143250000Y-54750000D02*
X147000000Y-58500000D01*
X147000000Y-58500000D02*
X145207500Y-58500000D01*
X145212000Y-65710000D02*
X147000000Y-63922000D01*
X143000000Y-54750000D02*
X143250000Y-54750000D01*
X147000000Y-63922000D02*
X147000000Y-58500000D01*
D37*
X142500000Y-54750000D02*
X143000000Y-54750000D01*
X144323000Y-68773000D02*
X144323000Y-66599000D01*
X147650000Y-69800000D02*
X145350000Y-69800000D01*
D36*
X145207500Y-58500000D02*
X142207500Y-61500000D01*
D37*
X150673000Y-73203000D02*
X151816000Y-73203000D01*
D36*
X158420000Y-60220000D02*
X156700000Y-58500000D01*
X154500000Y-71000000D02*
X156178000Y-71000000D01*
X156178000Y-71000000D02*
X158420000Y-68758000D01*
X151816000Y-73203000D02*
X152297000Y-73203000D01*
D37*
X147650000Y-73200000D02*
X150670000Y-73200000D01*
X150670000Y-73200000D02*
X150673000Y-73203000D01*
D36*
X152297000Y-73203000D02*
X154500000Y-71000000D01*
X158420000Y-68758000D02*
X158420000Y-60220000D01*
D37*
X145500000Y-75500000D02*
X145500000Y-76500000D01*
D36*
X120740000Y-85000000D02*
X139500000Y-85000000D01*
X139500000Y-85000000D02*
X142207500Y-82292500D01*
X145000000Y-80000000D02*
X142207500Y-80000000D01*
X108800000Y-76460000D02*
X112200000Y-76460000D01*
X145500000Y-76500000D02*
X145500000Y-79500000D01*
D37*
X147650000Y-74900000D02*
X146100000Y-74900000D01*
X146100000Y-74900000D02*
X145500000Y-75500000D01*
D36*
X112200000Y-76460000D02*
X120740000Y-85000000D01*
X142207500Y-82292500D02*
X142207500Y-80000000D01*
X145500000Y-79500000D02*
X145000000Y-80000000D01*
D38*
X127250000Y-90750000D02*
X121250000Y-90750000D01*
X138594000Y-92540000D02*
X129040000Y-92540000D01*
X120594000Y-91406000D02*
X120594000Y-92540000D01*
X129040000Y-92540000D02*
X127250000Y-90750000D01*
X121250000Y-90750000D02*
X120594000Y-91406000D01*
X140210000Y-95750000D02*
X125074000Y-95750000D01*
X141642000Y-94318000D02*
X140210000Y-95750000D01*
X125074000Y-95750000D02*
X123642000Y-94318000D01*
D36*
X108800000Y-66540000D02*
X112200000Y-66540000D01*
X113750000Y-61250000D02*
X113750000Y-64990000D01*
X113750000Y-64990000D02*
X112200000Y-66540000D01*
D39*
X113050000Y-86950000D02*
X113025000Y-86975000D01*
X113025000Y-86975000D02*
X105082500Y-86975000D01*
X121000000Y-63750000D02*
X121000000Y-58500000D01*
G04 #@! TA.AperFunction,Conductor*
G36*
X127130850Y-91095185D02*
G01*
X127151492Y-91111819D01*
X128840138Y-92800465D01*
X128914361Y-92843318D01*
X128997147Y-92865500D01*
X129082853Y-92865500D01*
X137631663Y-92865500D01*
X137698702Y-92885185D01*
X137744457Y-92937989D01*
X137746224Y-92942048D01*
X137763549Y-92983876D01*
X137763556Y-92983889D01*
X137866106Y-93137365D01*
X137866109Y-93137369D01*
X137996630Y-93267890D01*
X137996634Y-93267893D01*
X138150110Y-93370443D01*
X138150114Y-93370445D01*
X138150117Y-93370447D01*
X138320658Y-93441088D01*
X138466548Y-93470107D01*
X138501699Y-93477099D01*
X138501703Y-93477100D01*
X138501704Y-93477100D01*
X138686297Y-93477100D01*
X138686297Y-93477099D01*
X138833813Y-93447757D01*
X138903403Y-93453984D01*
X138958580Y-93496847D01*
X138981825Y-93562736D01*
X138965757Y-93630733D01*
X138945685Y-93657055D01*
X138882106Y-93720634D01*
X138779556Y-93874110D01*
X138779551Y-93874120D01*
X138708912Y-94044657D01*
X138708910Y-94044665D01*
X138672900Y-94225699D01*
X138672900Y-94410300D01*
X138708910Y-94591334D01*
X138708912Y-94591342D01*
X138779551Y-94761879D01*
X138779556Y-94761889D01*
X138882106Y-94915365D01*
X138882109Y-94915369D01*
X139012630Y-95045890D01*
X139012634Y-95045893D01*
X139166110Y-95148443D01*
X139166114Y-95148445D01*
X139166117Y-95148447D01*
X139256630Y-95185939D01*
X139311033Y-95229780D01*
X139333098Y-95296074D01*
X139315819Y-95363774D01*
X139264681Y-95411384D01*
X139209177Y-95424500D01*
X128106823Y-95424500D01*
X128039784Y-95404815D01*
X127994029Y-95352011D01*
X127984085Y-95282853D01*
X128013110Y-95219297D01*
X128059370Y-95185939D01*
X128149883Y-95148447D01*
X128303366Y-95045893D01*
X128433893Y-94915366D01*
X128536447Y-94761883D01*
X128607088Y-94591342D01*
X128643100Y-94410296D01*
X128643100Y-94225704D01*
X128607088Y-94044658D01*
X128536447Y-93874117D01*
X128536445Y-93874114D01*
X128536443Y-93874110D01*
X128433893Y-93720634D01*
X128433890Y-93720630D01*
X128303369Y-93590109D01*
X128303365Y-93590106D01*
X128149889Y-93487556D01*
X128149879Y-93487551D01*
X127979342Y-93416912D01*
X127979334Y-93416910D01*
X127798300Y-93380900D01*
X127798296Y-93380900D01*
X127613704Y-93380900D01*
X127613699Y-93380900D01*
X127466187Y-93410242D01*
X127396595Y-93404015D01*
X127341418Y-93361151D01*
X127318174Y-93295262D01*
X127334242Y-93227265D01*
X127354311Y-93200947D01*
X127417893Y-93137366D01*
X127520447Y-92983883D01*
X127591088Y-92813342D01*
X127627100Y-92632296D01*
X127627100Y-92447704D01*
X127591088Y-92266658D01*
X127520447Y-92096117D01*
X127520445Y-92096114D01*
X127520443Y-92096110D01*
X127417893Y-91942634D01*
X127417890Y-91942630D01*
X127287369Y-91812109D01*
X127287365Y-91812106D01*
X127133889Y-91709556D01*
X127133879Y-91709551D01*
X126963342Y-91638912D01*
X126963334Y-91638910D01*
X126782300Y-91602900D01*
X126782296Y-91602900D01*
X126597704Y-91602900D01*
X126597699Y-91602900D01*
X126416665Y-91638910D01*
X126416657Y-91638912D01*
X126246120Y-91709551D01*
X126246110Y-91709556D01*
X126092634Y-91812106D01*
X126092630Y-91812109D01*
X125962109Y-91942630D01*
X125962106Y-91942634D01*
X125859556Y-92096110D01*
X125859551Y-92096120D01*
X125815350Y-92202830D01*
X125771508Y-92257234D01*
X125705214Y-92279298D01*
X125637515Y-92262018D01*
X125589905Y-92210881D01*
X125586228Y-92202830D01*
X125532315Y-92072671D01*
X125510912Y-92040640D01*
X125126755Y-92424796D01*
X125107711Y-92353723D01*
X125044176Y-92243677D01*
X124954323Y-92153824D01*
X124844277Y-92090289D01*
X124773202Y-92071244D01*
X125157358Y-91687087D01*
X125157358Y-91687086D01*
X125125336Y-91665689D01*
X125125327Y-91665684D01*
X124945781Y-91591314D01*
X124945773Y-91591312D01*
X124755176Y-91553400D01*
X124560823Y-91553400D01*
X124370226Y-91591312D01*
X124370218Y-91591314D01*
X124190671Y-91665685D01*
X124158639Y-91687087D01*
X124542797Y-92071244D01*
X124471723Y-92090289D01*
X124361677Y-92153824D01*
X124271824Y-92243677D01*
X124208289Y-92353723D01*
X124189244Y-92424797D01*
X123805087Y-92040639D01*
X123783685Y-92072671D01*
X123756561Y-92138155D01*
X123712719Y-92192559D01*
X123646425Y-92214623D01*
X123578726Y-92197343D01*
X123531116Y-92146206D01*
X123527439Y-92138155D01*
X123500315Y-92072672D01*
X123478912Y-92040640D01*
X123094755Y-92424796D01*
X123075711Y-92353723D01*
X123012176Y-92243677D01*
X122922323Y-92153824D01*
X122812277Y-92090289D01*
X122741202Y-92071244D01*
X123125358Y-91687087D01*
X123125358Y-91687086D01*
X123093336Y-91665689D01*
X123093327Y-91665684D01*
X122913781Y-91591314D01*
X122913773Y-91591312D01*
X122723176Y-91553400D01*
X122528823Y-91553400D01*
X122338226Y-91591312D01*
X122338218Y-91591314D01*
X122158671Y-91665685D01*
X122126639Y-91687087D01*
X122510797Y-92071244D01*
X122439723Y-92090289D01*
X122329677Y-92153824D01*
X122239824Y-92243677D01*
X122176289Y-92353723D01*
X122157244Y-92424797D01*
X121773087Y-92040639D01*
X121751686Y-92072669D01*
X121697771Y-92202831D01*
X121653929Y-92257234D01*
X121587635Y-92279298D01*
X121519936Y-92262018D01*
X121472326Y-92210881D01*
X121468652Y-92202838D01*
X121438977Y-92131196D01*
X121424448Y-92096119D01*
X121424443Y-92096110D01*
X121321893Y-91942634D01*
X121321890Y-91942630D01*
X121191369Y-91812109D01*
X121191361Y-91812103D01*
X121037885Y-91709554D01*
X121037881Y-91709552D01*
X121006318Y-91696478D01*
X120951915Y-91652637D01*
X120929850Y-91586342D01*
X120947129Y-91518643D01*
X120966086Y-91494240D01*
X121348508Y-91111819D01*
X121409831Y-91078334D01*
X121436189Y-91075500D01*
X127063811Y-91075500D01*
X127130850Y-91095185D01*
G37*
G04 #@! TD.AperFunction*
G04 #@! TA.AperFunction,Conductor*
G36*
X124208289Y-92726277D02*
G01*
X124271824Y-92836323D01*
X124361677Y-92926176D01*
X124471723Y-92989711D01*
X124542797Y-93008755D01*
X124128995Y-93422556D01*
X124067672Y-93456041D01*
X123997980Y-93451057D01*
X123993861Y-93449436D01*
X123984817Y-93445690D01*
X123915342Y-93416912D01*
X123915334Y-93416910D01*
X123734300Y-93380900D01*
X123734296Y-93380900D01*
X123549704Y-93380900D01*
X123549699Y-93380900D01*
X123368665Y-93416910D01*
X123368653Y-93416913D01*
X123290137Y-93449436D01*
X123220668Y-93456905D01*
X123158189Y-93425630D01*
X123155004Y-93422556D01*
X122741203Y-93008755D01*
X122812277Y-92989711D01*
X122922323Y-92926176D01*
X123012176Y-92836323D01*
X123075711Y-92726277D01*
X123094755Y-92655202D01*
X123478911Y-93039359D01*
X123478912Y-93039358D01*
X123500310Y-93007336D01*
X123500316Y-93007325D01*
X123527439Y-92941845D01*
X123571280Y-92887441D01*
X123637574Y-92865376D01*
X123705273Y-92882655D01*
X123752884Y-92933792D01*
X123756561Y-92941845D01*
X123783682Y-93007323D01*
X123783689Y-93007336D01*
X123805086Y-93039358D01*
X123805087Y-93039358D01*
X124189244Y-92655201D01*
X124208289Y-92726277D01*
G37*
G04 #@! TD.AperFunction*
G04 #@! TA.AperFunction,Conductor*
G36*
X125510911Y-93039359D02*
G01*
X125510912Y-93039358D01*
X125532310Y-93007336D01*
X125532316Y-93007325D01*
X125586228Y-92877170D01*
X125630069Y-92822766D01*
X125696363Y-92800701D01*
X125764062Y-92817980D01*
X125811673Y-92869117D01*
X125815350Y-92877169D01*
X125859551Y-92983879D01*
X125859556Y-92983889D01*
X125962106Y-93137365D01*
X125962109Y-93137369D01*
X126025684Y-93200944D01*
X126059169Y-93262267D01*
X126054185Y-93331959D01*
X126012313Y-93387892D01*
X125946849Y-93412309D01*
X125913812Y-93410242D01*
X125766300Y-93380900D01*
X125766296Y-93380900D01*
X125581704Y-93380900D01*
X125581699Y-93380900D01*
X125400665Y-93416910D01*
X125400653Y-93416913D01*
X125322137Y-93449436D01*
X125252668Y-93456905D01*
X125190189Y-93425630D01*
X125187004Y-93422556D01*
X124773203Y-93008755D01*
X124844277Y-92989711D01*
X124954323Y-92926176D01*
X125044176Y-92836323D01*
X125107711Y-92726277D01*
X125126755Y-92655202D01*
X125510911Y-93039359D01*
G37*
G04 #@! TD.AperFunction*
G04 #@! TA.AperFunction,Conductor*
G36*
X142208289Y-92726277D02*
G01*
X142271824Y-92836323D01*
X142361677Y-92926176D01*
X142471723Y-92989711D01*
X142542797Y-93008755D01*
X142128995Y-93422556D01*
X142067672Y-93456041D01*
X141997980Y-93451057D01*
X141993861Y-93449436D01*
X141984817Y-93445690D01*
X141915342Y-93416912D01*
X141915334Y-93416910D01*
X141734300Y-93380900D01*
X141734296Y-93380900D01*
X141549704Y-93380900D01*
X141549699Y-93380900D01*
X141368665Y-93416910D01*
X141368653Y-93416913D01*
X141290137Y-93449436D01*
X141220668Y-93456905D01*
X141158189Y-93425630D01*
X141155004Y-93422556D01*
X140741203Y-93008755D01*
X140812277Y-92989711D01*
X140922323Y-92926176D01*
X141012176Y-92836323D01*
X141075711Y-92726277D01*
X141094755Y-92655202D01*
X141478911Y-93039359D01*
X141478912Y-93039358D01*
X141500310Y-93007336D01*
X141500316Y-93007325D01*
X141527439Y-92941845D01*
X141571280Y-92887441D01*
X141637574Y-92865376D01*
X141705273Y-92882655D01*
X141752884Y-92933792D01*
X141756561Y-92941845D01*
X141783682Y-93007323D01*
X141783689Y-93007336D01*
X141805086Y-93039358D01*
X141805087Y-93039358D01*
X142189244Y-92655201D01*
X142208289Y-92726277D01*
G37*
G04 #@! TD.AperFunction*
G04 #@! TA.AperFunction,Conductor*
G36*
X143510911Y-93039359D02*
G01*
X143510912Y-93039358D01*
X143532310Y-93007336D01*
X143532316Y-93007325D01*
X143586228Y-92877170D01*
X143630069Y-92822766D01*
X143696363Y-92800701D01*
X143764062Y-92817980D01*
X143811673Y-92869117D01*
X143815350Y-92877169D01*
X143859551Y-92983879D01*
X143859556Y-92983889D01*
X143962106Y-93137365D01*
X143962109Y-93137369D01*
X144025684Y-93200944D01*
X144059169Y-93262267D01*
X144054185Y-93331959D01*
X144012313Y-93387892D01*
X143946849Y-93412309D01*
X143913812Y-93410242D01*
X143766300Y-93380900D01*
X143766296Y-93380900D01*
X143581704Y-93380900D01*
X143581699Y-93380900D01*
X143400665Y-93416910D01*
X143400653Y-93416913D01*
X143322137Y-93449436D01*
X143252668Y-93456905D01*
X143190189Y-93425630D01*
X143187004Y-93422556D01*
X142773203Y-93008755D01*
X142844277Y-92989711D01*
X142954323Y-92926176D01*
X143044176Y-92836323D01*
X143107711Y-92726277D01*
X143126755Y-92655202D01*
X143510911Y-93039359D01*
G37*
G04 #@! TD.AperFunction*
G04 #@! TA.AperFunction,Conductor*
G36*
X122176289Y-92726277D02*
G01*
X122239824Y-92836323D01*
X122329677Y-92926176D01*
X122439723Y-92989711D01*
X122510797Y-93008755D01*
X122096995Y-93422556D01*
X122035672Y-93456041D01*
X121965980Y-93451057D01*
X121961861Y-93449436D01*
X121952817Y-93445690D01*
X121883342Y-93416912D01*
X121883334Y-93416910D01*
X121702300Y-93380900D01*
X121702296Y-93380900D01*
X121517704Y-93380900D01*
X121517699Y-93380900D01*
X121370187Y-93410242D01*
X121300595Y-93404015D01*
X121245418Y-93361151D01*
X121222174Y-93295262D01*
X121238242Y-93227265D01*
X121258311Y-93200947D01*
X121321893Y-93137366D01*
X121424447Y-92983883D01*
X121468649Y-92877169D01*
X121512490Y-92822766D01*
X121578784Y-92800701D01*
X121646483Y-92817980D01*
X121694094Y-92869117D01*
X121697771Y-92877169D01*
X121751684Y-93007326D01*
X121751689Y-93007336D01*
X121773086Y-93039358D01*
X121773087Y-93039358D01*
X122157244Y-92655201D01*
X122176289Y-92726277D01*
G37*
G04 #@! TD.AperFunction*
G04 #@! TA.AperFunction,Conductor*
G36*
X140176289Y-92726277D02*
G01*
X140239824Y-92836323D01*
X140329677Y-92926176D01*
X140439723Y-92989711D01*
X140510797Y-93008755D01*
X140096995Y-93422556D01*
X140035672Y-93456041D01*
X139965980Y-93451057D01*
X139961861Y-93449436D01*
X139952817Y-93445690D01*
X139883342Y-93416912D01*
X139883334Y-93416910D01*
X139702300Y-93380900D01*
X139702296Y-93380900D01*
X139517704Y-93380900D01*
X139517699Y-93380900D01*
X139370187Y-93410242D01*
X139300595Y-93404015D01*
X139245418Y-93361151D01*
X139222174Y-93295262D01*
X139238242Y-93227265D01*
X139258311Y-93200947D01*
X139321893Y-93137366D01*
X139424447Y-92983883D01*
X139468649Y-92877169D01*
X139512490Y-92822766D01*
X139578784Y-92800701D01*
X139646483Y-92817980D01*
X139694094Y-92869117D01*
X139697771Y-92877169D01*
X139751684Y-93007326D01*
X139751689Y-93007336D01*
X139773086Y-93039358D01*
X139773087Y-93039358D01*
X140157244Y-92655201D01*
X140176289Y-92726277D01*
G37*
G04 #@! TD.AperFunction*
G04 #@! TA.AperFunction,Conductor*
G36*
X162003472Y-44300695D02*
G01*
X162295306Y-44317084D01*
X162309103Y-44318638D01*
X162593827Y-44367015D01*
X162607384Y-44370109D01*
X162884899Y-44450060D01*
X162898025Y-44454653D01*
X163164841Y-44565172D01*
X163177355Y-44571198D01*
X163374468Y-44680139D01*
X163430124Y-44710899D01*
X163441898Y-44718297D01*
X163677439Y-44885422D01*
X163688307Y-44894090D01*
X163903641Y-45086526D01*
X163913473Y-45096358D01*
X164105909Y-45311692D01*
X164114580Y-45322564D01*
X164281702Y-45558101D01*
X164289100Y-45569875D01*
X164428797Y-45822637D01*
X164434830Y-45835165D01*
X164545346Y-46101975D01*
X164549939Y-46115100D01*
X164629890Y-46392615D01*
X164632984Y-46406172D01*
X164681359Y-46690885D01*
X164682916Y-46704703D01*
X164699305Y-46996527D01*
X164699500Y-47003480D01*
X164699500Y-96996519D01*
X164699305Y-97003472D01*
X164682916Y-97295296D01*
X164681359Y-97309114D01*
X164632984Y-97593827D01*
X164629890Y-97607384D01*
X164549939Y-97884899D01*
X164545346Y-97898024D01*
X164434830Y-98164834D01*
X164428797Y-98177362D01*
X164289100Y-98430124D01*
X164281702Y-98441898D01*
X164114580Y-98677435D01*
X164105909Y-98688307D01*
X163913473Y-98903641D01*
X163903641Y-98913473D01*
X163688307Y-99105909D01*
X163677435Y-99114580D01*
X163441898Y-99281702D01*
X163430124Y-99289100D01*
X163177362Y-99428797D01*
X163164834Y-99434830D01*
X162898024Y-99545346D01*
X162884899Y-99549939D01*
X162607384Y-99629890D01*
X162593827Y-99632984D01*
X162309114Y-99681359D01*
X162295296Y-99682916D01*
X162003472Y-99699305D01*
X161996519Y-99699500D01*
X103003481Y-99699500D01*
X102996528Y-99699305D01*
X102704703Y-99682916D01*
X102690885Y-99681359D01*
X102406172Y-99632984D01*
X102392615Y-99629890D01*
X102115100Y-99549939D01*
X102101975Y-99545346D01*
X101835165Y-99434830D01*
X101822637Y-99428797D01*
X101569875Y-99289100D01*
X101558101Y-99281702D01*
X101322564Y-99114580D01*
X101311692Y-99105909D01*
X101096358Y-98913473D01*
X101086526Y-98903641D01*
X100894090Y-98688307D01*
X100885419Y-98677435D01*
X100848368Y-98625217D01*
X100718297Y-98441898D01*
X100710899Y-98430124D01*
X100571202Y-98177362D01*
X100565172Y-98164841D01*
X100454653Y-97898024D01*
X100450060Y-97884899D01*
X100370109Y-97607384D01*
X100367015Y-97593827D01*
X100358320Y-97542654D01*
X100318638Y-97309103D01*
X100317084Y-97295306D01*
X100300695Y-97003472D01*
X100300500Y-96996519D01*
X100300500Y-96374038D01*
X101899500Y-96374038D01*
X101899500Y-96625961D01*
X101938910Y-96874785D01*
X102016760Y-97114383D01*
X102095413Y-97268747D01*
X102115981Y-97309114D01*
X102131132Y-97338848D01*
X102279201Y-97542649D01*
X102279205Y-97542654D01*
X102457345Y-97720794D01*
X102457350Y-97720798D01*
X102635117Y-97849952D01*
X102661155Y-97868870D01*
X102804184Y-97941747D01*
X102885616Y-97983239D01*
X102885618Y-97983239D01*
X102885621Y-97983241D01*
X103125215Y-98061090D01*
X103374038Y-98100500D01*
X103374039Y-98100500D01*
X103625961Y-98100500D01*
X103625962Y-98100500D01*
X103874785Y-98061090D01*
X104114379Y-97983241D01*
X104338845Y-97868870D01*
X104542656Y-97720793D01*
X104720793Y-97542656D01*
X104868870Y-97338845D01*
X104983241Y-97114379D01*
X105061090Y-96874785D01*
X105100500Y-96625962D01*
X105100500Y-96374038D01*
X159899500Y-96374038D01*
X159899500Y-96625961D01*
X159938910Y-96874785D01*
X160016760Y-97114383D01*
X160095413Y-97268747D01*
X160115981Y-97309114D01*
X160131132Y-97338848D01*
X160279201Y-97542649D01*
X160279205Y-97542654D01*
X160457345Y-97720794D01*
X160457350Y-97720798D01*
X160635117Y-97849952D01*
X160661155Y-97868870D01*
X160804184Y-97941747D01*
X160885616Y-97983239D01*
X160885618Y-97983239D01*
X160885621Y-97983241D01*
X161125215Y-98061090D01*
X161374038Y-98100500D01*
X161374039Y-98100500D01*
X161625961Y-98100500D01*
X161625962Y-98100500D01*
X161874785Y-98061090D01*
X162114379Y-97983241D01*
X162338845Y-97868870D01*
X162542656Y-97720793D01*
X162720793Y-97542656D01*
X162868870Y-97338845D01*
X162983241Y-97114379D01*
X163061090Y-96874785D01*
X163100500Y-96625962D01*
X163100500Y-96374038D01*
X163061090Y-96125215D01*
X162983241Y-95885621D01*
X162983239Y-95885618D01*
X162983239Y-95885616D01*
X162941747Y-95804184D01*
X162868870Y-95661155D01*
X162849952Y-95635117D01*
X162720798Y-95457350D01*
X162720794Y-95457345D01*
X162542654Y-95279205D01*
X162542649Y-95279201D01*
X162338848Y-95131132D01*
X162338847Y-95131131D01*
X162338845Y-95131130D01*
X162268747Y-95095413D01*
X162114383Y-95016760D01*
X161874785Y-94938910D01*
X161726135Y-94915366D01*
X161625962Y-94899500D01*
X161374038Y-94899500D01*
X161273871Y-94915365D01*
X161125214Y-94938910D01*
X160885616Y-95016760D01*
X160661151Y-95131132D01*
X160457350Y-95279201D01*
X160457345Y-95279205D01*
X160279205Y-95457345D01*
X160279201Y-95457350D01*
X160131132Y-95661151D01*
X160016760Y-95885616D01*
X159938910Y-96125214D01*
X159899500Y-96374038D01*
X105100500Y-96374038D01*
X105061090Y-96125215D01*
X104983241Y-95885621D01*
X104983239Y-95885618D01*
X104983239Y-95885616D01*
X104941747Y-95804184D01*
X104868870Y-95661155D01*
X104849952Y-95635117D01*
X104720798Y-95457350D01*
X104720794Y-95457345D01*
X104542654Y-95279205D01*
X104542649Y-95279201D01*
X104338848Y-95131132D01*
X104338847Y-95131131D01*
X104338845Y-95131130D01*
X104268747Y-95095413D01*
X104114383Y-95016760D01*
X103874785Y-94938910D01*
X103726135Y-94915366D01*
X103625962Y-94899500D01*
X103374038Y-94899500D01*
X103273871Y-94915365D01*
X103125214Y-94938910D01*
X102885616Y-95016760D01*
X102661151Y-95131132D01*
X102457350Y-95279201D01*
X102457345Y-95279205D01*
X102279205Y-95457345D01*
X102279201Y-95457350D01*
X102131132Y-95661151D01*
X102016760Y-95885616D01*
X101938910Y-96125214D01*
X101899500Y-96374038D01*
X100300500Y-96374038D01*
X100300500Y-92447699D01*
X119656900Y-92447699D01*
X119656900Y-92632300D01*
X119692910Y-92813334D01*
X119692912Y-92813342D01*
X119763551Y-92983879D01*
X119763556Y-92983889D01*
X119866106Y-93137365D01*
X119866109Y-93137369D01*
X119996630Y-93267890D01*
X119996634Y-93267893D01*
X120150110Y-93370443D01*
X120150114Y-93370445D01*
X120150117Y-93370447D01*
X120320658Y-93441088D01*
X120466548Y-93470107D01*
X120501699Y-93477099D01*
X120501703Y-93477100D01*
X120501704Y-93477100D01*
X120686297Y-93477100D01*
X120686297Y-93477099D01*
X120833813Y-93447757D01*
X120903403Y-93453984D01*
X120958580Y-93496847D01*
X120981825Y-93562736D01*
X120965757Y-93630733D01*
X120945685Y-93657055D01*
X120882106Y-93720634D01*
X120779556Y-93874110D01*
X120779551Y-93874120D01*
X120708912Y-94044657D01*
X120708910Y-94044665D01*
X120672900Y-94225699D01*
X120672900Y-94410300D01*
X120708910Y-94591334D01*
X120708912Y-94591342D01*
X120779551Y-94761879D01*
X120779556Y-94761889D01*
X120882106Y-94915365D01*
X120882109Y-94915369D01*
X121012630Y-95045890D01*
X121012634Y-95045893D01*
X121166110Y-95148443D01*
X121166114Y-95148445D01*
X121166117Y-95148447D01*
X121336658Y-95219088D01*
X121517699Y-95255099D01*
X121517703Y-95255100D01*
X121517704Y-95255100D01*
X121702297Y-95255100D01*
X121702298Y-95255099D01*
X121883342Y-95219088D01*
X122053883Y-95148447D01*
X122207366Y-95045893D01*
X122337893Y-94915366D01*
X122440447Y-94761883D01*
X122511088Y-94591342D01*
X122511088Y-94591340D01*
X122511439Y-94590494D01*
X122555280Y-94536091D01*
X122621574Y-94514026D01*
X122689274Y-94531305D01*
X122736884Y-94582443D01*
X122740561Y-94590494D01*
X122811551Y-94761879D01*
X122811556Y-94761889D01*
X122914106Y-94915365D01*
X122914109Y-94915369D01*
X123044630Y-95045890D01*
X123044634Y-95045893D01*
X123198110Y-95148443D01*
X123198114Y-95148445D01*
X123198117Y-95148447D01*
X123368658Y-95219088D01*
X123549699Y-95255099D01*
X123549703Y-95255100D01*
X123549704Y-95255100D01*
X123734297Y-95255100D01*
X123734298Y-95255099D01*
X123915342Y-95219088D01*
X123957177Y-95201759D01*
X124026646Y-95194289D01*
X124089126Y-95225563D01*
X124092312Y-95228638D01*
X124813533Y-95949859D01*
X124813535Y-95949862D01*
X124874138Y-96010465D01*
X124911250Y-96031891D01*
X124920370Y-96037157D01*
X124920373Y-96037159D01*
X124939709Y-96048322D01*
X124948361Y-96053318D01*
X125031147Y-96075500D01*
X125031149Y-96075500D01*
X140252851Y-96075500D01*
X140252853Y-96075500D01*
X140335639Y-96053318D01*
X140409862Y-96010465D01*
X141191688Y-95228636D01*
X141253009Y-95195153D01*
X141322700Y-95200137D01*
X141326820Y-95201758D01*
X141334376Y-95204887D01*
X141368658Y-95219088D01*
X141549699Y-95255099D01*
X141549703Y-95255100D01*
X141549704Y-95255100D01*
X141734297Y-95255100D01*
X141734298Y-95255099D01*
X141915342Y-95219088D01*
X142085883Y-95148447D01*
X142239366Y-95045893D01*
X142369893Y-94915366D01*
X142472447Y-94761883D01*
X142543088Y-94591342D01*
X142543088Y-94591340D01*
X142543439Y-94590494D01*
X142587280Y-94536091D01*
X142653574Y-94514026D01*
X142721274Y-94531305D01*
X142768884Y-94582443D01*
X142772561Y-94590494D01*
X142843551Y-94761879D01*
X142843556Y-94761889D01*
X142946106Y-94915365D01*
X142946109Y-94915369D01*
X143076630Y-95045890D01*
X143076634Y-95045893D01*
X143230110Y-95148443D01*
X143230114Y-95148445D01*
X143230117Y-95148447D01*
X143400658Y-95219088D01*
X143581699Y-95255099D01*
X143581703Y-95255100D01*
X143581704Y-95255100D01*
X143766297Y-95255100D01*
X143766298Y-95255099D01*
X143947342Y-95219088D01*
X144117883Y-95148447D01*
X144271366Y-95045893D01*
X144401893Y-94915366D01*
X144504447Y-94761883D01*
X144575088Y-94591342D01*
X144575088Y-94591340D01*
X144575439Y-94590494D01*
X144619280Y-94536091D01*
X144685574Y-94514026D01*
X144753274Y-94531305D01*
X144800884Y-94582443D01*
X144804561Y-94590494D01*
X144875551Y-94761879D01*
X144875556Y-94761889D01*
X144978106Y-94915365D01*
X144978109Y-94915369D01*
X145108630Y-95045890D01*
X145108634Y-95045893D01*
X145262110Y-95148443D01*
X145262114Y-95148445D01*
X145262117Y-95148447D01*
X145432658Y-95219088D01*
X145613699Y-95255099D01*
X145613703Y-95255100D01*
X145613704Y-95255100D01*
X145798297Y-95255100D01*
X145798298Y-95255099D01*
X145979342Y-95219088D01*
X146149883Y-95148447D01*
X146303366Y-95045893D01*
X146433893Y-94915366D01*
X146536447Y-94761883D01*
X146607088Y-94591342D01*
X146643100Y-94410296D01*
X146643100Y-94225704D01*
X146607088Y-94044658D01*
X146536447Y-93874117D01*
X146536445Y-93874114D01*
X146536443Y-93874110D01*
X146433893Y-93720634D01*
X146433890Y-93720630D01*
X146303369Y-93590109D01*
X146303365Y-93590106D01*
X146149889Y-93487556D01*
X146149879Y-93487551D01*
X145979342Y-93416912D01*
X145979334Y-93416910D01*
X145798300Y-93380900D01*
X145798296Y-93380900D01*
X145613704Y-93380900D01*
X145613699Y-93380900D01*
X145466187Y-93410242D01*
X145396595Y-93404015D01*
X145341418Y-93361151D01*
X145318174Y-93295262D01*
X145334242Y-93227265D01*
X145354311Y-93200947D01*
X145417893Y-93137366D01*
X145520447Y-92983883D01*
X145591088Y-92813342D01*
X145627100Y-92632296D01*
X145627100Y-92447704D01*
X145591088Y-92266658D01*
X145520447Y-92096117D01*
X145520445Y-92096114D01*
X145520443Y-92096110D01*
X145417893Y-91942634D01*
X145417890Y-91942630D01*
X145287369Y-91812109D01*
X145287365Y-91812106D01*
X145133889Y-91709556D01*
X145133879Y-91709551D01*
X144963342Y-91638912D01*
X144963334Y-91638910D01*
X144782300Y-91602900D01*
X144782296Y-91602900D01*
X144597704Y-91602900D01*
X144597699Y-91602900D01*
X144416665Y-91638910D01*
X144416657Y-91638912D01*
X144246120Y-91709551D01*
X144246110Y-91709556D01*
X144092634Y-91812106D01*
X144092630Y-91812109D01*
X143962109Y-91942630D01*
X143962106Y-91942634D01*
X143859556Y-92096110D01*
X143859551Y-92096120D01*
X143815350Y-92202830D01*
X143771508Y-92257234D01*
X143705214Y-92279298D01*
X143637515Y-92262018D01*
X143589905Y-92210881D01*
X143586228Y-92202830D01*
X143532315Y-92072671D01*
X143510912Y-92040640D01*
X143126755Y-92424796D01*
X143107711Y-92353723D01*
X143044176Y-92243677D01*
X142954323Y-92153824D01*
X142844277Y-92090289D01*
X142773202Y-92071244D01*
X143157358Y-91687087D01*
X143157358Y-91687086D01*
X143125336Y-91665689D01*
X143125327Y-91665684D01*
X142945781Y-91591314D01*
X142945773Y-91591312D01*
X142755176Y-91553400D01*
X142560823Y-91553400D01*
X142370226Y-91591312D01*
X142370218Y-91591314D01*
X142190671Y-91665685D01*
X142158639Y-91687087D01*
X142542797Y-92071244D01*
X142471723Y-92090289D01*
X142361677Y-92153824D01*
X142271824Y-92243677D01*
X142208289Y-92353723D01*
X142189244Y-92424797D01*
X141805087Y-92040639D01*
X141783685Y-92072671D01*
X141756561Y-92138155D01*
X141712719Y-92192559D01*
X141646425Y-92214623D01*
X141578726Y-92197343D01*
X141531116Y-92146206D01*
X141527439Y-92138155D01*
X141500315Y-92072672D01*
X141478912Y-92040640D01*
X141094755Y-92424796D01*
X141075711Y-92353723D01*
X141012176Y-92243677D01*
X140922323Y-92153824D01*
X140812277Y-92090289D01*
X140741202Y-92071244D01*
X141125358Y-91687087D01*
X141125358Y-91687086D01*
X141093336Y-91665689D01*
X141093327Y-91665684D01*
X140913781Y-91591314D01*
X140913773Y-91591312D01*
X140723176Y-91553400D01*
X140528823Y-91553400D01*
X140338226Y-91591312D01*
X140338218Y-91591314D01*
X140158671Y-91665685D01*
X140126639Y-91687087D01*
X140510797Y-92071244D01*
X140439723Y-92090289D01*
X140329677Y-92153824D01*
X140239824Y-92243677D01*
X140176289Y-92353723D01*
X140157244Y-92424797D01*
X139773087Y-92040639D01*
X139751686Y-92072669D01*
X139697771Y-92202831D01*
X139653929Y-92257234D01*
X139587635Y-92279298D01*
X139519936Y-92262018D01*
X139472326Y-92210881D01*
X139468652Y-92202838D01*
X139438977Y-92131196D01*
X139424448Y-92096119D01*
X139424443Y-92096110D01*
X139321893Y-91942634D01*
X139321890Y-91942630D01*
X139191369Y-91812109D01*
X139191365Y-91812106D01*
X139037889Y-91709556D01*
X139037879Y-91709551D01*
X138867342Y-91638912D01*
X138867334Y-91638910D01*
X138686300Y-91602900D01*
X138686296Y-91602900D01*
X138501704Y-91602900D01*
X138501699Y-91602900D01*
X138320665Y-91638910D01*
X138320657Y-91638912D01*
X138150120Y-91709551D01*
X138150110Y-91709556D01*
X137996634Y-91812106D01*
X137996630Y-91812109D01*
X137866109Y-91942630D01*
X137866106Y-91942634D01*
X137763556Y-92096110D01*
X137763549Y-92096123D01*
X137746224Y-92137952D01*
X137702383Y-92192356D01*
X137636089Y-92214421D01*
X137631663Y-92214500D01*
X136512438Y-92214500D01*
X136445399Y-92194815D01*
X136399644Y-92142011D01*
X136389700Y-92072853D01*
X136418725Y-92009297D01*
X136466894Y-91976898D01*
X136466311Y-91975489D01*
X136470058Y-91973936D01*
X136470061Y-91973936D01*
X136601027Y-91919687D01*
X136721970Y-91869592D01*
X136721973Y-91869590D01*
X136721979Y-91869588D01*
X136958121Y-91733251D01*
X137174448Y-91567257D01*
X137367257Y-91374448D01*
X137533251Y-91158121D01*
X137669588Y-90921979D01*
X137773936Y-90670061D01*
X137844509Y-90406678D01*
X137880100Y-90136337D01*
X137880100Y-89863669D01*
X146419900Y-89863669D01*
X146419900Y-90136330D01*
X146419901Y-90136346D01*
X146455489Y-90406667D01*
X146455490Y-90406672D01*
X146455491Y-90406678D01*
X146477693Y-90489537D01*
X146526063Y-90670059D01*
X146630407Y-90921970D01*
X146630415Y-90921986D01*
X146766744Y-91158113D01*
X146766755Y-91158129D01*
X146932741Y-91374446D01*
X146932747Y-91374453D01*
X147125546Y-91567252D01*
X147125553Y-91567258D01*
X147253831Y-91665689D01*
X147341879Y-91733251D01*
X147341886Y-91733255D01*
X147578013Y-91869584D01*
X147578029Y-91869592D01*
X147735123Y-91934662D01*
X147829939Y-91973936D01*
X148093322Y-92044509D01*
X148363663Y-92080100D01*
X148363670Y-92080100D01*
X148636330Y-92080100D01*
X148636337Y-92080100D01*
X148906678Y-92044509D01*
X149170061Y-91973936D01*
X149359691Y-91895388D01*
X149421970Y-91869592D01*
X149421973Y-91869590D01*
X149421979Y-91869588D01*
X149658121Y-91733251D01*
X149874448Y-91567257D01*
X150067257Y-91374448D01*
X150233251Y-91158121D01*
X150369588Y-90921979D01*
X150473936Y-90670061D01*
X150544509Y-90406678D01*
X150580100Y-90136337D01*
X150580100Y-89863663D01*
X150544509Y-89593322D01*
X150473936Y-89329939D01*
X150382414Y-89108985D01*
X150369592Y-89078029D01*
X150369584Y-89078013D01*
X150233255Y-88841886D01*
X150233251Y-88841879D01*
X150067257Y-88625552D01*
X150067252Y-88625546D01*
X149874453Y-88432747D01*
X149874446Y-88432741D01*
X149658129Y-88266755D01*
X149658127Y-88266753D01*
X149658121Y-88266749D01*
X149658116Y-88266746D01*
X149658113Y-88266744D01*
X149421986Y-88130415D01*
X149421970Y-88130407D01*
X149170059Y-88026063D01*
X149038369Y-87990777D01*
X148906678Y-87955491D01*
X148906672Y-87955490D01*
X148906667Y-87955489D01*
X148636346Y-87919901D01*
X148636343Y-87919900D01*
X148636337Y-87919900D01*
X148363663Y-87919900D01*
X148363657Y-87919900D01*
X148363653Y-87919901D01*
X148093332Y-87955489D01*
X148093325Y-87955490D01*
X148093322Y-87955491D01*
X148037659Y-87970405D01*
X147829940Y-88026063D01*
X147578029Y-88130407D01*
X147578013Y-88130415D01*
X147341886Y-88266744D01*
X147341870Y-88266755D01*
X147125553Y-88432741D01*
X147125546Y-88432747D01*
X146932747Y-88625546D01*
X146932741Y-88625553D01*
X146766755Y-88841870D01*
X146766744Y-88841886D01*
X146630415Y-89078013D01*
X146630407Y-89078029D01*
X146526063Y-89329940D01*
X146455492Y-89593319D01*
X146455489Y-89593332D01*
X146419901Y-89863653D01*
X146419900Y-89863669D01*
X137880100Y-89863669D01*
X137880100Y-89863663D01*
X137844509Y-89593322D01*
X137773936Y-89329939D01*
X137682414Y-89108985D01*
X137669592Y-89078029D01*
X137669584Y-89078013D01*
X137533255Y-88841886D01*
X137533251Y-88841879D01*
X137367257Y-88625552D01*
X137367252Y-88625546D01*
X137174453Y-88432747D01*
X137174446Y-88432741D01*
X136958129Y-88266755D01*
X136958127Y-88266753D01*
X136958121Y-88266749D01*
X136958116Y-88266746D01*
X136958113Y-88266744D01*
X136721986Y-88130415D01*
X136721970Y-88130407D01*
X136470059Y-88026063D01*
X136338369Y-87990777D01*
X136206678Y-87955491D01*
X136206672Y-87955490D01*
X136206667Y-87955489D01*
X135936346Y-87919901D01*
X135936343Y-87919900D01*
X135936337Y-87919900D01*
X135663663Y-87919900D01*
X135663657Y-87919900D01*
X135663653Y-87919901D01*
X135393332Y-87955489D01*
X135393325Y-87955490D01*
X135393322Y-87955491D01*
X135337659Y-87970405D01*
X135129940Y-88026063D01*
X134878029Y-88130407D01*
X134878013Y-88130415D01*
X134641886Y-88266744D01*
X134641870Y-88266755D01*
X134425553Y-88432741D01*
X134425546Y-88432747D01*
X134232747Y-88625546D01*
X134232741Y-88625553D01*
X134066755Y-88841870D01*
X134066744Y-88841886D01*
X133930415Y-89078013D01*
X133930407Y-89078029D01*
X133826063Y-89329940D01*
X133755492Y-89593319D01*
X133755489Y-89593332D01*
X133719901Y-89863653D01*
X133719900Y-89863669D01*
X133719900Y-90136330D01*
X133719901Y-90136346D01*
X133755489Y-90406667D01*
X133755490Y-90406672D01*
X133755491Y-90406678D01*
X133777693Y-90489537D01*
X133826063Y-90670059D01*
X133930407Y-90921970D01*
X133930415Y-90921986D01*
X134066744Y-91158113D01*
X134066755Y-91158129D01*
X134232741Y-91374446D01*
X134232747Y-91374453D01*
X134425546Y-91567252D01*
X134425553Y-91567258D01*
X134553831Y-91665689D01*
X134641879Y-91733251D01*
X134641886Y-91733255D01*
X134878013Y-91869584D01*
X134878029Y-91869592D01*
X135054360Y-91942630D01*
X135129939Y-91973936D01*
X135129940Y-91973936D01*
X135133689Y-91975489D01*
X135133049Y-91977033D01*
X135184586Y-92013284D01*
X135210930Y-92077997D01*
X135198105Y-92146680D01*
X135150184Y-92197526D01*
X135087562Y-92214500D01*
X131212438Y-92214500D01*
X131145399Y-92194815D01*
X131099644Y-92142011D01*
X131089700Y-92072853D01*
X131118725Y-92009297D01*
X131166894Y-91976898D01*
X131166311Y-91975489D01*
X131170058Y-91973936D01*
X131170061Y-91973936D01*
X131301027Y-91919687D01*
X131421970Y-91869592D01*
X131421973Y-91869590D01*
X131421979Y-91869588D01*
X131658121Y-91733251D01*
X131874448Y-91567257D01*
X132067257Y-91374448D01*
X132233251Y-91158121D01*
X132369588Y-90921979D01*
X132473936Y-90670061D01*
X132544509Y-90406678D01*
X132580100Y-90136337D01*
X132580100Y-89863663D01*
X132544509Y-89593322D01*
X132473936Y-89329939D01*
X132382414Y-89108985D01*
X132369592Y-89078029D01*
X132369584Y-89078013D01*
X132233255Y-88841886D01*
X132233251Y-88841879D01*
X132067257Y-88625552D01*
X132067252Y-88625546D01*
X131874453Y-88432747D01*
X131874446Y-88432741D01*
X131658129Y-88266755D01*
X131658127Y-88266753D01*
X131658121Y-88266749D01*
X131658116Y-88266746D01*
X131658113Y-88266744D01*
X131421986Y-88130415D01*
X131421970Y-88130407D01*
X131170059Y-88026063D01*
X131038369Y-87990777D01*
X130906678Y-87955491D01*
X130906672Y-87955490D01*
X130906667Y-87955489D01*
X130636346Y-87919901D01*
X130636343Y-87919900D01*
X130636337Y-87919900D01*
X130363663Y-87919900D01*
X130363657Y-87919900D01*
X130363653Y-87919901D01*
X130093332Y-87955489D01*
X130093325Y-87955490D01*
X130093322Y-87955491D01*
X130037659Y-87970405D01*
X129829940Y-88026063D01*
X129578029Y-88130407D01*
X129578013Y-88130415D01*
X129341886Y-88266744D01*
X129341870Y-88266755D01*
X129125553Y-88432741D01*
X129125546Y-88432747D01*
X128932747Y-88625546D01*
X128932741Y-88625553D01*
X128766755Y-88841870D01*
X128766744Y-88841886D01*
X128630415Y-89078013D01*
X128630407Y-89078029D01*
X128526063Y-89329940D01*
X128455492Y-89593319D01*
X128455489Y-89593332D01*
X128419901Y-89863653D01*
X128419900Y-89863669D01*
X128419900Y-90136330D01*
X128419901Y-90136346D01*
X128455489Y-90406667D01*
X128455490Y-90406672D01*
X128455491Y-90406678D01*
X128477693Y-90489537D01*
X128526063Y-90670059D01*
X128630407Y-90921970D01*
X128630415Y-90921986D01*
X128766744Y-91158113D01*
X128766755Y-91158129D01*
X128932741Y-91374446D01*
X128932747Y-91374453D01*
X129125546Y-91567252D01*
X129125553Y-91567258D01*
X129253831Y-91665689D01*
X129341879Y-91733251D01*
X129341886Y-91733255D01*
X129578013Y-91869584D01*
X129578029Y-91869592D01*
X129754360Y-91942630D01*
X129829939Y-91973936D01*
X129829940Y-91973936D01*
X129833689Y-91975489D01*
X129833049Y-91977033D01*
X129884586Y-92013284D01*
X129910930Y-92077997D01*
X129898105Y-92146680D01*
X129850184Y-92197526D01*
X129787562Y-92214500D01*
X129226189Y-92214500D01*
X129159150Y-92194815D01*
X129138508Y-92178181D01*
X127449864Y-90489537D01*
X127449862Y-90489535D01*
X127412750Y-90468108D01*
X127375640Y-90446682D01*
X127334246Y-90435591D01*
X127292853Y-90424500D01*
X121292853Y-90424500D01*
X121207147Y-90424500D01*
X121124359Y-90446682D01*
X121050138Y-90489535D01*
X121050135Y-90489537D01*
X120333537Y-91206135D01*
X120333533Y-91206141D01*
X120290681Y-91280361D01*
X120290682Y-91280362D01*
X120268500Y-91363147D01*
X120268500Y-91577662D01*
X120248815Y-91644701D01*
X120196011Y-91690456D01*
X120191954Y-91692222D01*
X120150123Y-91709549D01*
X120150114Y-91709554D01*
X119996638Y-91812103D01*
X119996630Y-91812109D01*
X119866109Y-91942630D01*
X119866106Y-91942634D01*
X119763556Y-92096110D01*
X119763551Y-92096120D01*
X119692912Y-92266657D01*
X119692910Y-92266665D01*
X119656900Y-92447699D01*
X100300500Y-92447699D01*
X100300500Y-90364778D01*
X103682000Y-90364778D01*
X103682000Y-90585221D01*
X103716485Y-90802952D01*
X103784603Y-91012603D01*
X103784604Y-91012606D01*
X103835157Y-91111819D01*
X103858753Y-91158129D01*
X103884687Y-91209025D01*
X104014252Y-91387358D01*
X104014256Y-91387363D01*
X104170136Y-91543243D01*
X104170141Y-91543247D01*
X104301811Y-91638910D01*
X104348478Y-91672815D01*
X104420578Y-91709552D01*
X104544893Y-91772895D01*
X104544896Y-91772896D01*
X104649721Y-91806955D01*
X104754549Y-91841015D01*
X104972278Y-91875500D01*
X104972279Y-91875500D01*
X105192721Y-91875500D01*
X105192722Y-91875500D01*
X105410451Y-91841015D01*
X105620106Y-91772895D01*
X105816522Y-91672815D01*
X105994865Y-91543242D01*
X106150742Y-91387365D01*
X106280315Y-91209022D01*
X106380395Y-91012606D01*
X106448515Y-90802951D01*
X106483000Y-90585222D01*
X106483000Y-90364778D01*
X106448515Y-90147049D01*
X106380395Y-89937394D01*
X106380392Y-89937388D01*
X106369443Y-89915898D01*
X106342830Y-89863669D01*
X115719900Y-89863669D01*
X115719900Y-90136330D01*
X115719901Y-90136346D01*
X115755489Y-90406667D01*
X115755490Y-90406672D01*
X115755491Y-90406678D01*
X115777693Y-90489537D01*
X115826063Y-90670059D01*
X115930407Y-90921970D01*
X115930415Y-90921986D01*
X116066744Y-91158113D01*
X116066755Y-91158129D01*
X116232741Y-91374446D01*
X116232747Y-91374453D01*
X116425546Y-91567252D01*
X116425553Y-91567258D01*
X116553831Y-91665689D01*
X116641879Y-91733251D01*
X116641886Y-91733255D01*
X116878013Y-91869584D01*
X116878029Y-91869592D01*
X117035123Y-91934662D01*
X117129939Y-91973936D01*
X117393322Y-92044509D01*
X117663663Y-92080100D01*
X117663670Y-92080100D01*
X117936330Y-92080100D01*
X117936337Y-92080100D01*
X118206678Y-92044509D01*
X118470061Y-91973936D01*
X118659691Y-91895388D01*
X118721970Y-91869592D01*
X118721973Y-91869590D01*
X118721979Y-91869588D01*
X118958121Y-91733251D01*
X119174448Y-91567257D01*
X119367257Y-91374448D01*
X119533251Y-91158121D01*
X119669588Y-90921979D01*
X119773936Y-90670061D01*
X119844509Y-90406678D01*
X119880100Y-90136337D01*
X119880100Y-89863663D01*
X119844509Y-89593322D01*
X119773936Y-89329939D01*
X119682414Y-89108985D01*
X119669592Y-89078029D01*
X119669584Y-89078013D01*
X119533255Y-88841886D01*
X119533251Y-88841879D01*
X119367257Y-88625552D01*
X119367252Y-88625546D01*
X119174453Y-88432747D01*
X119174446Y-88432741D01*
X118958129Y-88266755D01*
X118958127Y-88266753D01*
X118958121Y-88266749D01*
X118958116Y-88266746D01*
X118958113Y-88266744D01*
X118721986Y-88130415D01*
X118721970Y-88130407D01*
X118470059Y-88026063D01*
X118338369Y-87990777D01*
X118206678Y-87955491D01*
X118206672Y-87955490D01*
X118206667Y-87955489D01*
X117936346Y-87919901D01*
X117936343Y-87919900D01*
X117936337Y-87919900D01*
X117663663Y-87919900D01*
X117663657Y-87919900D01*
X117663653Y-87919901D01*
X117393332Y-87955489D01*
X117393325Y-87955490D01*
X117393322Y-87955491D01*
X117337659Y-87970405D01*
X117129940Y-88026063D01*
X116878029Y-88130407D01*
X116878013Y-88130415D01*
X116641886Y-88266744D01*
X116641870Y-88266755D01*
X116425553Y-88432741D01*
X116425546Y-88432747D01*
X116232747Y-88625546D01*
X116232741Y-88625553D01*
X116066755Y-88841870D01*
X116066744Y-88841886D01*
X115930415Y-89078013D01*
X115930407Y-89078029D01*
X115826063Y-89329940D01*
X115755492Y-89593319D01*
X115755489Y-89593332D01*
X115719901Y-89863653D01*
X115719900Y-89863669D01*
X106342830Y-89863669D01*
X106280314Y-89740976D01*
X106150747Y-89562641D01*
X106150743Y-89562636D01*
X105994863Y-89406756D01*
X105994858Y-89406752D01*
X105816525Y-89277187D01*
X105816524Y-89277186D01*
X105816522Y-89277185D01*
X105753596Y-89245122D01*
X105620106Y-89177104D01*
X105620103Y-89177103D01*
X105410452Y-89108985D01*
X105301586Y-89091742D01*
X105192722Y-89074500D01*
X104972278Y-89074500D01*
X104899701Y-89085995D01*
X104754547Y-89108985D01*
X104544896Y-89177103D01*
X104544893Y-89177104D01*
X104348474Y-89277187D01*
X104170141Y-89406752D01*
X104170136Y-89406756D01*
X104014256Y-89562636D01*
X104014252Y-89562641D01*
X103884687Y-89740974D01*
X103784604Y-89937393D01*
X103784603Y-89937396D01*
X103716485Y-90147047D01*
X103682000Y-90364778D01*
X100300500Y-90364778D01*
X100300500Y-86864778D01*
X103682000Y-86864778D01*
X103682000Y-87085221D01*
X103716485Y-87302952D01*
X103784603Y-87512603D01*
X103784604Y-87512606D01*
X103884687Y-87709025D01*
X104014252Y-87887358D01*
X104014256Y-87887363D01*
X104170136Y-88043243D01*
X104170141Y-88043247D01*
X104290108Y-88130407D01*
X104348478Y-88172815D01*
X104476875Y-88238237D01*
X104544893Y-88272895D01*
X104544896Y-88272896D01*
X104649721Y-88306955D01*
X104754549Y-88341015D01*
X104972278Y-88375500D01*
X104972279Y-88375500D01*
X105192721Y-88375500D01*
X105192722Y-88375500D01*
X105410451Y-88341015D01*
X105620106Y-88272895D01*
X105816522Y-88172815D01*
X105994865Y-88043242D01*
X106150742Y-87887365D01*
X106280315Y-87709022D01*
X106380395Y-87512606D01*
X106380397Y-87512600D01*
X106380858Y-87511183D01*
X106381178Y-87510713D01*
X106382259Y-87508106D01*
X106382806Y-87508332D01*
X106420295Y-87453507D01*
X106484653Y-87426308D01*
X106498789Y-87425500D01*
X112639363Y-87425500D01*
X112701362Y-87442112D01*
X112818216Y-87509577D01*
X112970943Y-87550500D01*
X112970945Y-87550500D01*
X113129055Y-87550500D01*
X113129057Y-87550500D01*
X113281784Y-87509577D01*
X113418716Y-87430520D01*
X113530520Y-87318716D01*
X113609577Y-87181784D01*
X113650500Y-87029057D01*
X113650500Y-86870943D01*
X113609577Y-86718216D01*
X113568488Y-86647047D01*
X113530524Y-86581290D01*
X113530518Y-86581282D01*
X113418717Y-86469481D01*
X113418709Y-86469475D01*
X113281790Y-86390426D01*
X113281786Y-86390424D01*
X113281784Y-86390423D01*
X113129057Y-86349500D01*
X112970943Y-86349500D01*
X112818216Y-86390423D01*
X112818209Y-86390426D01*
X112681290Y-86469475D01*
X112681282Y-86469481D01*
X112662583Y-86488181D01*
X112601260Y-86521666D01*
X112574902Y-86524500D01*
X106498789Y-86524500D01*
X106431750Y-86504815D01*
X106385995Y-86452011D01*
X106380858Y-86438817D01*
X106380397Y-86437399D01*
X106380395Y-86437393D01*
X106335610Y-86349500D01*
X106280315Y-86240978D01*
X106238995Y-86184105D01*
X106150747Y-86062641D01*
X106150743Y-86062636D01*
X105994863Y-85906756D01*
X105994858Y-85906752D01*
X105816525Y-85777187D01*
X105816524Y-85777186D01*
X105816522Y-85777185D01*
X105753596Y-85745122D01*
X105620106Y-85677104D01*
X105620103Y-85677103D01*
X105410452Y-85608985D01*
X105301586Y-85591742D01*
X105192722Y-85574500D01*
X104972278Y-85574500D01*
X104899701Y-85585995D01*
X104754547Y-85608985D01*
X104544896Y-85677103D01*
X104544893Y-85677104D01*
X104348474Y-85777187D01*
X104170141Y-85906752D01*
X104170136Y-85906756D01*
X104014256Y-86062636D01*
X104014252Y-86062641D01*
X103884687Y-86240974D01*
X103784604Y-86437393D01*
X103784603Y-86437396D01*
X103716485Y-86647047D01*
X103682000Y-86864778D01*
X100300500Y-86864778D01*
X100300500Y-82477156D01*
X103632500Y-82477156D01*
X103632500Y-83225000D01*
X104534018Y-83225000D01*
X104523389Y-83243409D01*
X104482500Y-83396009D01*
X104482500Y-83553991D01*
X104523389Y-83706591D01*
X104534018Y-83725000D01*
X103632501Y-83725000D01*
X103632501Y-84472830D01*
X103638902Y-84532377D01*
X103689147Y-84667087D01*
X103775311Y-84782188D01*
X103890409Y-84868350D01*
X104025129Y-84918598D01*
X104025128Y-84918598D01*
X104084664Y-84924999D01*
X104832499Y-84924999D01*
X104832500Y-84924998D01*
X104832500Y-84023482D01*
X104850909Y-84034111D01*
X105003509Y-84075000D01*
X105161491Y-84075000D01*
X105314091Y-84034111D01*
X105332500Y-84023482D01*
X105332500Y-84924999D01*
X106080323Y-84924999D01*
X106080330Y-84924998D01*
X106139877Y-84918597D01*
X106274587Y-84868352D01*
X106389688Y-84782188D01*
X106475850Y-84667090D01*
X106526098Y-84532371D01*
X106532499Y-84472843D01*
X106532500Y-84472826D01*
X106532500Y-83725000D01*
X105630982Y-83725000D01*
X105641611Y-83706591D01*
X105682500Y-83553991D01*
X105682500Y-83396009D01*
X105641611Y-83243409D01*
X105630982Y-83225000D01*
X106532499Y-83225000D01*
X106532499Y-82477176D01*
X106532498Y-82477169D01*
X106526097Y-82417622D01*
X106475852Y-82282912D01*
X106389688Y-82167811D01*
X106274590Y-82081649D01*
X106139870Y-82031401D01*
X106139871Y-82031401D01*
X106080343Y-82025000D01*
X105332500Y-82025000D01*
X105332500Y-82926517D01*
X105314091Y-82915889D01*
X105161491Y-82875000D01*
X105003509Y-82875000D01*
X104850909Y-82915889D01*
X104832500Y-82926517D01*
X104832500Y-82025000D01*
X104084676Y-82025000D01*
X104084669Y-82025001D01*
X104025122Y-82031402D01*
X103890412Y-82081647D01*
X103775311Y-82167811D01*
X103689149Y-82282909D01*
X103638901Y-82417628D01*
X103632500Y-82477156D01*
X100300500Y-82477156D01*
X100300500Y-81012200D01*
X100302877Y-80988037D01*
X100310851Y-80947901D01*
X100329325Y-80903242D01*
X100345136Y-80879546D01*
X100379278Y-80845345D01*
X100402942Y-80829496D01*
X100447569Y-80810943D01*
X100487592Y-80802919D01*
X100511967Y-80800500D01*
X104578845Y-80800500D01*
X104682888Y-80779803D01*
X104733497Y-80769737D01*
X104879179Y-80709393D01*
X105010289Y-80621788D01*
X105121788Y-80510289D01*
X105209393Y-80379179D01*
X105269737Y-80233497D01*
X105300500Y-80078843D01*
X105300500Y-80000001D01*
X105300500Y-79952406D01*
X105300500Y-79952405D01*
X105300500Y-76334825D01*
X107209500Y-76334825D01*
X107209500Y-76585174D01*
X107248664Y-76832444D01*
X107248664Y-76832447D01*
X107326024Y-77070537D01*
X107326026Y-77070540D01*
X107439683Y-77293604D01*
X107586835Y-77496141D01*
X107763859Y-77673165D01*
X107966396Y-77820317D01*
X108189460Y-77933974D01*
X108189462Y-77933975D01*
X108427553Y-78011335D01*
X108427554Y-78011335D01*
X108427557Y-78011336D01*
X108674825Y-78050500D01*
X108674826Y-78050500D01*
X108925174Y-78050500D01*
X108925175Y-78050500D01*
X109172443Y-78011336D01*
X109172446Y-78011335D01*
X109172447Y-78011335D01*
X109410537Y-77933975D01*
X109410537Y-77933974D01*
X109410540Y-77933974D01*
X109430086Y-77924015D01*
X109486381Y-77910500D01*
X111513619Y-77910500D01*
X111521794Y-77912126D01*
X111526872Y-77911210D01*
X111546405Y-77917021D01*
X111561070Y-77919938D01*
X111565575Y-77921804D01*
X111589460Y-77933974D01*
X111614959Y-77942259D01*
X111619455Y-77944121D01*
X111630998Y-77953423D01*
X111659685Y-77971002D01*
X119795066Y-86106383D01*
X119902042Y-86184105D01*
X119902045Y-86184106D01*
X119979772Y-86240579D01*
X120075884Y-86289550D01*
X120183196Y-86344229D01*
X120183198Y-86344229D01*
X120183201Y-86344231D01*
X120299592Y-86382049D01*
X120400339Y-86414784D01*
X120625838Y-86450500D01*
X120625843Y-86450500D01*
X139614162Y-86450500D01*
X139839660Y-86414784D01*
X140056799Y-86344231D01*
X140260228Y-86240579D01*
X140337954Y-86184106D01*
X140444937Y-86106380D01*
X143313879Y-83237437D01*
X143448079Y-83052728D01*
X143551731Y-82849299D01*
X143622284Y-82632160D01*
X143646831Y-82477176D01*
X143658000Y-82406662D01*
X143658000Y-81574500D01*
X143677685Y-81507461D01*
X143730489Y-81461706D01*
X143782000Y-81450500D01*
X145114162Y-81450500D01*
X145339660Y-81414784D01*
X145378426Y-81402188D01*
X145556799Y-81344231D01*
X145760228Y-81240579D01*
X145837954Y-81184106D01*
X145944937Y-81106380D01*
X146606380Y-80444937D01*
X146711319Y-80300500D01*
X146740579Y-80260228D01*
X146844231Y-80056799D01*
X146914784Y-79839660D01*
X146928985Y-79750000D01*
X146950500Y-79614162D01*
X146950500Y-76385837D01*
X146914784Y-76160339D01*
X146844229Y-75943196D01*
X146807096Y-75870319D01*
X146786956Y-75830793D01*
X146774061Y-75762126D01*
X146800337Y-75697385D01*
X146857443Y-75657128D01*
X146897442Y-75650500D01*
X149754270Y-75650500D01*
X149784699Y-75647646D01*
X149784701Y-75647646D01*
X149848790Y-75625219D01*
X149912882Y-75602793D01*
X150022150Y-75522150D01*
X150102793Y-75412882D01*
X150125219Y-75348790D01*
X150147646Y-75284701D01*
X150147646Y-75284699D01*
X150150500Y-75254269D01*
X150150500Y-74545725D01*
X150147646Y-74515300D01*
X150147646Y-74515298D01*
X150114006Y-74419163D01*
X150102793Y-74387118D01*
X150022150Y-74277850D01*
X149912882Y-74197207D01*
X149912880Y-74197206D01*
X149826674Y-74167041D01*
X149803222Y-74150220D01*
X149778177Y-74135874D01*
X149775178Y-74130106D01*
X149769898Y-74126319D01*
X149759264Y-74099492D01*
X149745950Y-74073881D01*
X149746545Y-74067407D01*
X149744151Y-74061366D01*
X149749708Y-74033049D01*
X149752355Y-74004305D01*
X149756356Y-73999181D01*
X149757608Y-73992805D01*
X149777593Y-73971986D01*
X149795359Y-73949238D01*
X149803490Y-73945010D01*
X149805995Y-73942402D01*
X149826670Y-73932959D01*
X149899551Y-73907457D01*
X149940504Y-73900500D01*
X150467538Y-73900500D01*
X150534577Y-73920185D01*
X150573268Y-73959714D01*
X150575421Y-73963229D01*
X150605265Y-74004305D01*
X150709621Y-74147937D01*
X150871063Y-74309379D01*
X151055772Y-74443579D01*
X151151884Y-74492550D01*
X151259196Y-74547229D01*
X151259198Y-74547229D01*
X151259201Y-74547231D01*
X151375592Y-74585049D01*
X151476339Y-74617784D01*
X151701838Y-74653500D01*
X151701843Y-74653500D01*
X152411162Y-74653500D01*
X152636660Y-74617784D01*
X152853799Y-74547231D01*
X153057228Y-74443579D01*
X153134954Y-74387106D01*
X153241937Y-74309380D01*
X155064498Y-72486819D01*
X155125821Y-72453334D01*
X155152179Y-72450500D01*
X156292162Y-72450500D01*
X156517660Y-72414784D01*
X156734799Y-72344231D01*
X156938228Y-72240579D01*
X157015954Y-72184106D01*
X157122937Y-72106380D01*
X159526380Y-69702937D01*
X159612567Y-69584310D01*
X159660579Y-69518228D01*
X159764231Y-69314799D01*
X159834784Y-69097660D01*
X159853844Y-68977322D01*
X159870500Y-68872162D01*
X159870500Y-60105837D01*
X159834784Y-59880339D01*
X159764229Y-59663196D01*
X159660578Y-59459771D01*
X159619398Y-59403092D01*
X159526379Y-59275063D01*
X159364937Y-59113621D01*
X158386819Y-58135502D01*
X158353334Y-58074179D01*
X158350500Y-58047821D01*
X158350500Y-55780249D01*
X158350499Y-55780247D01*
X158338868Y-55721770D01*
X158338867Y-55721769D01*
X158294552Y-55655447D01*
X158228230Y-55611132D01*
X158228229Y-55611131D01*
X158169752Y-55599500D01*
X158169748Y-55599500D01*
X155230252Y-55599500D01*
X155230247Y-55599500D01*
X155171770Y-55611131D01*
X155171769Y-55611132D01*
X155105447Y-55655447D01*
X155061132Y-55721769D01*
X155061131Y-55721770D01*
X155049500Y-55780247D01*
X155049500Y-61219752D01*
X155061131Y-61278229D01*
X155061132Y-61278230D01*
X155105447Y-61344552D01*
X155171769Y-61388867D01*
X155171770Y-61388868D01*
X155230247Y-61400499D01*
X155230250Y-61400500D01*
X155230252Y-61400500D01*
X156845500Y-61400500D01*
X156912539Y-61420185D01*
X156958294Y-61472989D01*
X156969500Y-61524500D01*
X156969500Y-68105821D01*
X156949815Y-68172860D01*
X156933181Y-68193502D01*
X155613502Y-69513181D01*
X155552179Y-69546666D01*
X155525821Y-69549500D01*
X153795730Y-69549500D01*
X153765300Y-69552353D01*
X153765298Y-69552353D01*
X153637119Y-69597206D01*
X153637117Y-69597207D01*
X153527850Y-69677850D01*
X153447207Y-69787117D01*
X153447206Y-69787119D01*
X153402353Y-69915298D01*
X153402353Y-69915300D01*
X153399500Y-69945730D01*
X153399500Y-69997820D01*
X153379815Y-70064859D01*
X153363181Y-70085501D01*
X151723606Y-71725075D01*
X151662283Y-71758560D01*
X151655323Y-71759867D01*
X151476343Y-71788215D01*
X151259198Y-71858770D01*
X151055771Y-71962421D01*
X150871061Y-72096622D01*
X150709622Y-72258061D01*
X150572557Y-72446714D01*
X150571044Y-72445615D01*
X150525160Y-72487151D01*
X150471215Y-72499500D01*
X149940504Y-72499500D01*
X149899549Y-72492541D01*
X149784701Y-72452354D01*
X149784699Y-72452353D01*
X149754270Y-72449500D01*
X149754266Y-72449500D01*
X145545734Y-72449500D01*
X145545730Y-72449500D01*
X145515300Y-72452353D01*
X145515298Y-72452353D01*
X145387119Y-72497206D01*
X145387117Y-72497207D01*
X145277850Y-72577850D01*
X145197207Y-72687117D01*
X145197206Y-72687119D01*
X145152353Y-72815298D01*
X145152353Y-72815300D01*
X145149500Y-72845730D01*
X145149500Y-73554269D01*
X145152353Y-73584699D01*
X145152353Y-73584701D01*
X145197206Y-73712880D01*
X145197207Y-73712882D01*
X145277850Y-73822150D01*
X145387118Y-73902793D01*
X145400450Y-73907458D01*
X145473326Y-73932959D01*
X145530102Y-73973681D01*
X145555849Y-74038634D01*
X145542392Y-74107195D01*
X145494005Y-74157598D01*
X145473326Y-74167041D01*
X145387119Y-74197206D01*
X145387117Y-74197207D01*
X145277850Y-74277850D01*
X145197207Y-74387117D01*
X145197206Y-74387119D01*
X145152353Y-74515298D01*
X145152353Y-74515300D01*
X145149500Y-74545725D01*
X145149500Y-74808480D01*
X145129815Y-74875519D01*
X145113181Y-74896161D01*
X144955888Y-75053453D01*
X144955882Y-75053461D01*
X144876761Y-75171875D01*
X144829955Y-75213469D01*
X144739784Y-75259414D01*
X144739777Y-75259418D01*
X144739772Y-75259421D01*
X144555063Y-75393621D01*
X144555061Y-75393623D01*
X144555060Y-75393623D01*
X144393622Y-75555061D01*
X144259421Y-75739771D01*
X144155770Y-75943196D01*
X144085215Y-76160339D01*
X144049500Y-76385837D01*
X144049500Y-78425500D01*
X144029815Y-78492539D01*
X143977011Y-78538294D01*
X143925500Y-78549500D01*
X143306215Y-78549500D01*
X143265261Y-78542542D01*
X143225151Y-78528507D01*
X143164698Y-78507354D01*
X143164697Y-78507353D01*
X143164695Y-78507353D01*
X143134268Y-78504500D01*
X141280741Y-78504500D01*
X141250301Y-78507354D01*
X141250300Y-78507354D01*
X141122118Y-78552206D01*
X141012850Y-78632850D01*
X140932206Y-78742118D01*
X140887353Y-78870302D01*
X140884500Y-78900731D01*
X140884500Y-79371762D01*
X140870986Y-79428054D01*
X140863268Y-79443200D01*
X140863268Y-79443202D01*
X140792716Y-79660335D01*
X140792716Y-79660338D01*
X140757000Y-79885837D01*
X140757000Y-81640321D01*
X140737315Y-81707360D01*
X140720681Y-81728002D01*
X138935502Y-83513181D01*
X138874179Y-83546666D01*
X138847821Y-83549500D01*
X121392179Y-83549500D01*
X121325140Y-83529815D01*
X121304498Y-83513181D01*
X118884147Y-81092830D01*
X134420001Y-81092830D01*
X134426402Y-81152377D01*
X134476647Y-81287087D01*
X134562811Y-81402188D01*
X134677909Y-81488350D01*
X134812629Y-81538598D01*
X134812628Y-81538598D01*
X134872164Y-81544999D01*
X135542499Y-81544999D01*
X136042500Y-81544999D01*
X136712823Y-81544999D01*
X136712830Y-81544998D01*
X136772377Y-81538597D01*
X136907087Y-81488352D01*
X137022188Y-81402188D01*
X137108350Y-81287090D01*
X137158598Y-81152371D01*
X137164999Y-81092843D01*
X137165000Y-81092826D01*
X137165000Y-80250000D01*
X136042500Y-80250000D01*
X136042500Y-81544999D01*
X135542499Y-81544999D01*
X135542500Y-81544998D01*
X135542500Y-80250000D01*
X134420001Y-80250000D01*
X134420001Y-81092830D01*
X118884147Y-81092830D01*
X116698473Y-78907156D01*
X134420000Y-78907156D01*
X134420000Y-79750000D01*
X135542500Y-79750000D01*
X136042500Y-79750000D01*
X137164999Y-79750000D01*
X137164999Y-78907176D01*
X137164998Y-78907169D01*
X137158597Y-78847622D01*
X137108352Y-78712912D01*
X137022188Y-78597811D01*
X136907090Y-78511649D01*
X136772370Y-78461401D01*
X136772371Y-78461401D01*
X136712843Y-78455000D01*
X136042500Y-78455000D01*
X136042500Y-79750000D01*
X135542500Y-79750000D01*
X135542500Y-78455000D01*
X134872176Y-78455000D01*
X134872169Y-78455001D01*
X134812622Y-78461402D01*
X134677912Y-78511647D01*
X134562811Y-78597811D01*
X134476649Y-78712909D01*
X134426401Y-78847628D01*
X134420000Y-78907156D01*
X116698473Y-78907156D01*
X113711002Y-75919685D01*
X113680751Y-75870319D01*
X113673974Y-75849460D01*
X113673974Y-75849459D01*
X113596488Y-75697385D01*
X113560317Y-75626396D01*
X113413165Y-75423859D01*
X113236141Y-75246835D01*
X113033604Y-75099683D01*
X112810537Y-74986024D01*
X112572446Y-74908664D01*
X112363177Y-74875519D01*
X112325175Y-74869500D01*
X112074825Y-74869500D01*
X111992402Y-74882554D01*
X111827555Y-74908664D01*
X111827552Y-74908664D01*
X111589462Y-74986024D01*
X111569914Y-74995985D01*
X111513619Y-75009500D01*
X109486381Y-75009500D01*
X109430086Y-74995985D01*
X109410537Y-74986024D01*
X109172446Y-74908664D01*
X108963177Y-74875519D01*
X108925175Y-74869500D01*
X108674825Y-74869500D01*
X108592402Y-74882554D01*
X108427555Y-74908664D01*
X108427552Y-74908664D01*
X108189462Y-74986024D01*
X107966395Y-75099683D01*
X107872106Y-75168189D01*
X107763859Y-75246835D01*
X107763857Y-75246837D01*
X107763856Y-75246837D01*
X107586837Y-75423856D01*
X107586837Y-75423857D01*
X107586835Y-75423859D01*
X107523638Y-75510841D01*
X107439683Y-75626395D01*
X107326024Y-75849462D01*
X107248664Y-76087552D01*
X107248664Y-76087555D01*
X107209500Y-76334825D01*
X105300500Y-76334825D01*
X105300500Y-66414825D01*
X107209500Y-66414825D01*
X107209500Y-66665174D01*
X107248664Y-66912444D01*
X107248664Y-66912447D01*
X107326024Y-67150537D01*
X107439683Y-67373604D01*
X107586835Y-67576141D01*
X107763859Y-67753165D01*
X107966396Y-67900317D01*
X108189460Y-68013974D01*
X108189462Y-68013975D01*
X108427553Y-68091335D01*
X108427554Y-68091335D01*
X108427557Y-68091336D01*
X108674825Y-68130500D01*
X108674826Y-68130500D01*
X108925174Y-68130500D01*
X108925175Y-68130500D01*
X109172443Y-68091336D01*
X109172446Y-68091335D01*
X109172447Y-68091335D01*
X109410537Y-68013975D01*
X109410537Y-68013974D01*
X109410540Y-68013974D01*
X109430086Y-68004015D01*
X109486381Y-67990500D01*
X111513619Y-67990500D01*
X111569914Y-68004015D01*
X111589462Y-68013975D01*
X111827553Y-68091335D01*
X111827554Y-68091335D01*
X111827557Y-68091336D01*
X112074825Y-68130500D01*
X112074826Y-68130500D01*
X112325174Y-68130500D01*
X112325175Y-68130500D01*
X112572443Y-68091336D01*
X112572446Y-68091335D01*
X112572447Y-68091335D01*
X112810537Y-68013975D01*
X112810537Y-68013974D01*
X112810540Y-68013974D01*
X113033604Y-67900317D01*
X113236141Y-67753165D01*
X113413165Y-67576141D01*
X113560317Y-67373604D01*
X113673974Y-67150540D01*
X113680752Y-67129677D01*
X113711000Y-67080315D01*
X114856380Y-65934937D01*
X114936866Y-65824157D01*
X114990579Y-65750228D01*
X115094231Y-65546799D01*
X115164784Y-65329660D01*
X115188538Y-65179683D01*
X115200500Y-65104162D01*
X115200500Y-61135837D01*
X115164784Y-60910339D01*
X115107975Y-60735500D01*
X115094231Y-60693201D01*
X115094229Y-60693198D01*
X115094229Y-60693196D01*
X115023846Y-60555063D01*
X114990579Y-60489772D01*
X114874181Y-60329566D01*
X114850702Y-60263761D01*
X114850500Y-60256681D01*
X114850500Y-60195730D01*
X114847646Y-60165300D01*
X114847646Y-60165298D01*
X114802793Y-60037119D01*
X114802792Y-60037117D01*
X114722150Y-59927850D01*
X114612882Y-59847207D01*
X114612880Y-59847206D01*
X114484700Y-59802353D01*
X114454270Y-59799500D01*
X114454266Y-59799500D01*
X113045734Y-59799500D01*
X113045730Y-59799500D01*
X113015300Y-59802353D01*
X113015298Y-59802353D01*
X112887119Y-59847206D01*
X112887117Y-59847207D01*
X112777850Y-59927850D01*
X112697207Y-60037117D01*
X112697206Y-60037119D01*
X112652353Y-60165298D01*
X112652353Y-60165300D01*
X112649500Y-60195730D01*
X112649500Y-60256681D01*
X112629815Y-60323720D01*
X112625818Y-60329567D01*
X112509421Y-60489771D01*
X112405770Y-60693196D01*
X112335215Y-60910339D01*
X112299500Y-61135837D01*
X112299500Y-64337820D01*
X112279815Y-64404859D01*
X112263181Y-64425501D01*
X111659684Y-65028997D01*
X111652753Y-65033627D01*
X111649811Y-65037866D01*
X111631883Y-65047572D01*
X111619457Y-65055876D01*
X111614942Y-65057745D01*
X111589460Y-65066026D01*
X111565580Y-65078193D01*
X111561074Y-65080060D01*
X111546345Y-65081643D01*
X111513620Y-65089500D01*
X109486381Y-65089500D01*
X109430086Y-65075985D01*
X109410537Y-65066024D01*
X109172446Y-64988664D01*
X108986992Y-64959291D01*
X108925175Y-64949500D01*
X108674825Y-64949500D01*
X108592402Y-64962554D01*
X108427555Y-64988664D01*
X108427552Y-64988664D01*
X108189462Y-65066024D01*
X107966395Y-65179683D01*
X107850841Y-65263638D01*
X107763859Y-65326835D01*
X107763857Y-65326837D01*
X107763856Y-65326837D01*
X107586837Y-65503856D01*
X107586837Y-65503857D01*
X107586835Y-65503859D01*
X107548484Y-65556645D01*
X107439683Y-65706395D01*
X107326024Y-65929462D01*
X107248664Y-66167552D01*
X107248664Y-66167555D01*
X107209500Y-66414825D01*
X105300500Y-66414825D01*
X105300500Y-63960438D01*
X105300500Y-63921157D01*
X105300500Y-63921154D01*
X105269738Y-63766508D01*
X105269737Y-63766507D01*
X105269737Y-63766503D01*
X105209393Y-63620821D01*
X105209391Y-63620818D01*
X105209389Y-63620814D01*
X105121788Y-63489711D01*
X105121785Y-63489707D01*
X105010292Y-63378214D01*
X105010288Y-63378211D01*
X104879185Y-63290610D01*
X104879175Y-63290605D01*
X104733497Y-63230263D01*
X104733491Y-63230261D01*
X104578845Y-63199500D01*
X104578843Y-63199500D01*
X104539562Y-63199500D01*
X100509757Y-63199500D01*
X100490361Y-63197973D01*
X100467156Y-63194298D01*
X100457749Y-63192808D01*
X100420855Y-63180821D01*
X100400235Y-63170314D01*
X100368849Y-63147511D01*
X100352488Y-63131150D01*
X100329685Y-63099766D01*
X100319176Y-63079140D01*
X100307192Y-63042254D01*
X100302025Y-63009629D01*
X100300500Y-62990243D01*
X100300500Y-59166902D01*
X104082000Y-59166902D01*
X104082000Y-59403097D01*
X104118946Y-59636368D01*
X104191933Y-59860996D01*
X104281673Y-60037119D01*
X104299157Y-60071433D01*
X104437983Y-60262510D01*
X104604990Y-60429517D01*
X104796067Y-60568343D01*
X104843470Y-60592496D01*
X105006503Y-60675566D01*
X105006505Y-60675566D01*
X105006508Y-60675568D01*
X105060777Y-60693201D01*
X105231131Y-60748553D01*
X105464403Y-60785500D01*
X105464408Y-60785500D01*
X105700597Y-60785500D01*
X105813684Y-60767588D01*
X105933868Y-60748553D01*
X105933873Y-60748551D01*
X105933875Y-60748551D01*
X105955361Y-60741570D01*
X105993681Y-60735500D01*
X107829162Y-60735500D01*
X108054660Y-60699784D01*
X108074936Y-60693196D01*
X108271799Y-60629231D01*
X108274557Y-60627826D01*
X108287959Y-60620997D01*
X108475228Y-60525579D01*
X108552954Y-60469106D01*
X108659937Y-60391380D01*
X110314498Y-58736819D01*
X110375821Y-58703334D01*
X110402179Y-58700500D01*
X114454270Y-58700500D01*
X114484699Y-58697646D01*
X114484701Y-58697646D01*
X114548790Y-58675219D01*
X114612882Y-58652793D01*
X114722150Y-58572150D01*
X114802793Y-58462882D01*
X114845301Y-58341402D01*
X114847646Y-58334701D01*
X114847646Y-58334699D01*
X114850500Y-58304269D01*
X114850500Y-58243318D01*
X114870185Y-58176279D01*
X114874165Y-58170456D01*
X114990579Y-58010228D01*
X115094231Y-57806799D01*
X115164784Y-57589660D01*
X115200500Y-57364162D01*
X115200500Y-57135837D01*
X115164784Y-56910339D01*
X115107486Y-56733995D01*
X115094231Y-56693201D01*
X115094229Y-56693198D01*
X115094229Y-56693196D01*
X115033155Y-56573333D01*
X114990579Y-56489772D01*
X114874181Y-56329566D01*
X114850702Y-56263761D01*
X114850500Y-56256681D01*
X114850500Y-56195730D01*
X114847646Y-56165300D01*
X114847646Y-56165298D01*
X114802793Y-56037119D01*
X114802792Y-56037117D01*
X114799111Y-56032129D01*
X114722150Y-55927850D01*
X114612882Y-55847207D01*
X114612880Y-55847206D01*
X114484700Y-55802353D01*
X114454270Y-55799500D01*
X114454266Y-55799500D01*
X113864157Y-55799500D01*
X109635843Y-55799500D01*
X109635838Y-55799500D01*
X109410338Y-55835216D01*
X109410335Y-55835216D01*
X109193204Y-55905767D01*
X109193203Y-55905767D01*
X109089549Y-55958580D01*
X109089550Y-55958581D01*
X108989772Y-56009420D01*
X108921517Y-56059011D01*
X108805063Y-56143620D01*
X108805061Y-56143622D01*
X108805060Y-56143622D01*
X107150502Y-57798181D01*
X107089179Y-57831666D01*
X107062821Y-57834500D01*
X105993681Y-57834500D01*
X105955361Y-57828430D01*
X105933875Y-57821448D01*
X105933869Y-57821447D01*
X105700597Y-57784500D01*
X105700592Y-57784500D01*
X105464408Y-57784500D01*
X105464403Y-57784500D01*
X105231131Y-57821446D01*
X105006503Y-57894433D01*
X104796066Y-58001657D01*
X104714848Y-58060666D01*
X104604990Y-58140483D01*
X104604988Y-58140485D01*
X104604987Y-58140485D01*
X104437985Y-58307487D01*
X104437985Y-58307488D01*
X104437983Y-58307490D01*
X104378362Y-58389550D01*
X104299157Y-58498566D01*
X104191933Y-58709003D01*
X104118946Y-58933631D01*
X104082000Y-59166902D01*
X100300500Y-59166902D01*
X100300500Y-53107155D01*
X104032500Y-53107155D01*
X104032500Y-53955000D01*
X104982499Y-53955000D01*
X104957479Y-54015402D01*
X104932500Y-54140981D01*
X104932500Y-54269019D01*
X104957479Y-54394598D01*
X104982499Y-54455000D01*
X104032500Y-54455000D01*
X104032500Y-55302844D01*
X104038901Y-55362372D01*
X104038903Y-55362379D01*
X104089145Y-55497086D01*
X104089149Y-55497093D01*
X104175309Y-55612187D01*
X104175312Y-55612190D01*
X104290406Y-55698350D01*
X104290413Y-55698354D01*
X104425120Y-55748596D01*
X104425127Y-55748598D01*
X104484655Y-55754999D01*
X104484672Y-55755000D01*
X105332500Y-55755000D01*
X105332500Y-54805001D01*
X105392902Y-54830021D01*
X105518481Y-54855000D01*
X105646519Y-54855000D01*
X105772098Y-54830021D01*
X105832500Y-54805001D01*
X105832500Y-55755000D01*
X106680328Y-55755000D01*
X106680344Y-55754999D01*
X106739872Y-55748598D01*
X106739879Y-55748596D01*
X106874586Y-55698354D01*
X106874593Y-55698350D01*
X106989687Y-55612190D01*
X106989690Y-55612187D01*
X107075850Y-55497093D01*
X107075854Y-55497086D01*
X107126096Y-55362379D01*
X107126098Y-55362372D01*
X107132499Y-55302844D01*
X107132500Y-55302827D01*
X107132500Y-54455000D01*
X106182501Y-54455000D01*
X106207521Y-54394598D01*
X106232500Y-54269019D01*
X106232500Y-54140981D01*
X106207521Y-54015402D01*
X106182501Y-53955000D01*
X107132500Y-53955000D01*
X107132500Y-53107172D01*
X107132499Y-53107155D01*
X107126098Y-53047627D01*
X107126097Y-53047623D01*
X107084318Y-52935609D01*
X107079334Y-52865917D01*
X107112819Y-52804594D01*
X107174142Y-52771109D01*
X107243833Y-52776093D01*
X107247938Y-52777707D01*
X107288672Y-52794580D01*
X107288676Y-52794580D01*
X107288677Y-52794581D01*
X107424003Y-52821500D01*
X107424006Y-52821500D01*
X107424007Y-52821500D01*
X108240757Y-52821500D01*
X108307796Y-52841185D01*
X108341074Y-52872613D01*
X108393621Y-52944937D01*
X108555063Y-53106379D01*
X108739772Y-53240579D01*
X108816777Y-53279815D01*
X108943196Y-53344229D01*
X108943198Y-53344229D01*
X108943201Y-53344231D01*
X109046765Y-53377881D01*
X109160339Y-53414784D01*
X109385838Y-53450500D01*
X109385843Y-53450500D01*
X113323821Y-53450500D01*
X113390860Y-53470185D01*
X113411502Y-53486819D01*
X115657621Y-55732937D01*
X115819063Y-55894379D01*
X116003772Y-56028579D01*
X116003774Y-56028580D01*
X116003777Y-56028582D01*
X116004290Y-56028897D01*
X116004443Y-56029067D01*
X116007714Y-56031443D01*
X116007214Y-56032129D01*
X116051165Y-56080708D01*
X116063500Y-56134624D01*
X116063500Y-68695006D01*
X116063500Y-68832994D01*
X116063500Y-68832996D01*
X116063499Y-68832996D01*
X116090418Y-68968322D01*
X116090421Y-68968332D01*
X116143222Y-69095807D01*
X116219887Y-69210545D01*
X116219888Y-69210546D01*
X117667824Y-70658481D01*
X119053457Y-72044114D01*
X119099412Y-72074819D01*
X119168189Y-72120775D01*
X119258332Y-72158113D01*
X119295671Y-72173580D01*
X119322591Y-72178934D01*
X119412937Y-72196905D01*
X119431006Y-72200500D01*
X119431007Y-72200500D01*
X121268996Y-72200500D01*
X121377432Y-72178930D01*
X121404328Y-72173580D01*
X121468069Y-72147177D01*
X121531807Y-72120777D01*
X121531808Y-72120776D01*
X121531811Y-72120775D01*
X121646543Y-72044114D01*
X121953838Y-71736819D01*
X122015161Y-71703334D01*
X122041519Y-71700500D01*
X123219750Y-71700500D01*
X123219751Y-71700499D01*
X123234568Y-71697552D01*
X123278229Y-71688868D01*
X123278229Y-71688867D01*
X123278231Y-71688867D01*
X123344552Y-71644552D01*
X123388867Y-71578231D01*
X123388867Y-71578229D01*
X123388868Y-71578229D01*
X123400499Y-71519752D01*
X123400500Y-71519750D01*
X123400500Y-70405513D01*
X128599500Y-70405513D01*
X128599500Y-70594486D01*
X128629059Y-70781118D01*
X128687454Y-70960836D01*
X128773240Y-71129199D01*
X128884310Y-71282073D01*
X129017927Y-71415690D01*
X129170801Y-71526760D01*
X129250347Y-71567290D01*
X129339163Y-71612545D01*
X129339165Y-71612545D01*
X129339168Y-71612547D01*
X129435497Y-71643846D01*
X129518881Y-71670940D01*
X129705514Y-71700500D01*
X129705519Y-71700500D01*
X129894486Y-71700500D01*
X130081118Y-71670940D01*
X130260832Y-71612547D01*
X130429199Y-71526760D01*
X130582073Y-71415690D01*
X130715690Y-71282073D01*
X130826760Y-71129199D01*
X130912547Y-70960832D01*
X130970940Y-70781118D01*
X130973781Y-70763181D01*
X131000500Y-70594486D01*
X131000500Y-70405513D01*
X130970940Y-70218881D01*
X130943846Y-70135497D01*
X130912547Y-70039168D01*
X130912545Y-70039165D01*
X130912545Y-70039163D01*
X130826759Y-69870800D01*
X130715690Y-69717927D01*
X130582073Y-69584310D01*
X130429199Y-69473240D01*
X130260836Y-69387454D01*
X130081118Y-69329059D01*
X129894486Y-69299500D01*
X129894481Y-69299500D01*
X129705519Y-69299500D01*
X129705514Y-69299500D01*
X129518881Y-69329059D01*
X129339163Y-69387454D01*
X129170800Y-69473240D01*
X129017924Y-69584312D01*
X128884312Y-69717924D01*
X128884312Y-69717925D01*
X128884310Y-69717927D01*
X128836610Y-69783579D01*
X128773240Y-69870800D01*
X128687454Y-70039163D01*
X128629059Y-70218881D01*
X128599500Y-70405513D01*
X123400500Y-70405513D01*
X123400500Y-69480249D01*
X123400499Y-69480247D01*
X123388868Y-69421770D01*
X123388867Y-69421769D01*
X123344552Y-69355447D01*
X123278230Y-69311132D01*
X123278229Y-69311131D01*
X123219752Y-69299500D01*
X123219748Y-69299500D01*
X121180252Y-69299500D01*
X121180247Y-69299500D01*
X121121770Y-69311131D01*
X121121769Y-69311132D01*
X121055447Y-69355447D01*
X121011132Y-69421769D01*
X121011131Y-69421770D01*
X120999500Y-69480247D01*
X120999500Y-70658481D01*
X120990855Y-70687921D01*
X120984332Y-70717908D01*
X120980577Y-70722923D01*
X120979815Y-70725520D01*
X120963181Y-70746162D01*
X120946162Y-70763181D01*
X120884839Y-70796666D01*
X120858481Y-70799500D01*
X119841519Y-70799500D01*
X119774480Y-70779815D01*
X119753838Y-70763181D01*
X117500819Y-68510162D01*
X117467334Y-68448839D01*
X117464500Y-68422481D01*
X117464500Y-58564071D01*
X120349499Y-58564071D01*
X120374497Y-58689738D01*
X120374499Y-58689744D01*
X120423533Y-58808124D01*
X120423538Y-58808133D01*
X120494723Y-58914668D01*
X120494725Y-58914671D01*
X120513179Y-58933124D01*
X120546666Y-58994446D01*
X120549500Y-59020807D01*
X120549500Y-63229192D01*
X120529815Y-63296231D01*
X120513181Y-63316873D01*
X120494726Y-63335327D01*
X120494723Y-63335331D01*
X120423538Y-63441866D01*
X120423533Y-63441875D01*
X120374499Y-63560255D01*
X120374497Y-63560261D01*
X120349500Y-63685928D01*
X120349500Y-63685931D01*
X120349500Y-63814069D01*
X120349500Y-63814071D01*
X120349499Y-63814071D01*
X120374497Y-63939738D01*
X120374499Y-63939744D01*
X120423533Y-64058124D01*
X120423538Y-64058133D01*
X120494723Y-64164668D01*
X120494726Y-64164672D01*
X120585327Y-64255273D01*
X120585331Y-64255276D01*
X120691866Y-64326461D01*
X120691872Y-64326464D01*
X120691873Y-64326465D01*
X120810256Y-64375501D01*
X120810260Y-64375501D01*
X120810261Y-64375502D01*
X120935928Y-64400500D01*
X120935931Y-64400500D01*
X121064071Y-64400500D01*
X121148615Y-64383682D01*
X121189744Y-64375501D01*
X121308127Y-64326465D01*
X121414669Y-64255276D01*
X121505276Y-64164669D01*
X121553277Y-64092830D01*
X134170001Y-64092830D01*
X134176402Y-64152377D01*
X134226647Y-64287087D01*
X134312811Y-64402188D01*
X134427909Y-64488350D01*
X134562629Y-64538598D01*
X134562628Y-64538598D01*
X134622164Y-64544999D01*
X135292499Y-64544999D01*
X135792500Y-64544999D01*
X136462823Y-64544999D01*
X136462830Y-64544998D01*
X136522377Y-64538597D01*
X136657087Y-64488352D01*
X136772188Y-64402188D01*
X136858350Y-64287090D01*
X136908598Y-64152371D01*
X136914999Y-64092843D01*
X136915000Y-64092826D01*
X136915000Y-63250000D01*
X135792500Y-63250000D01*
X135792500Y-64544999D01*
X135292499Y-64544999D01*
X135292500Y-64544998D01*
X135292500Y-63250000D01*
X134170001Y-63250000D01*
X134170001Y-64092830D01*
X121553277Y-64092830D01*
X121576465Y-64058127D01*
X121625501Y-63939744D01*
X121650500Y-63814069D01*
X121650500Y-63685931D01*
X121650500Y-63685928D01*
X121625502Y-63560261D01*
X121625501Y-63560260D01*
X121625501Y-63560256D01*
X121576465Y-63441873D01*
X121576464Y-63441872D01*
X121576461Y-63441866D01*
X121505276Y-63335331D01*
X121505273Y-63335327D01*
X121486819Y-63316873D01*
X121472115Y-63289945D01*
X121455523Y-63264127D01*
X121454631Y-63257926D01*
X121453334Y-63255550D01*
X121450500Y-63229192D01*
X121450500Y-61907156D01*
X134170000Y-61907156D01*
X134170000Y-62750000D01*
X135292500Y-62750000D01*
X135792500Y-62750000D01*
X136914999Y-62750000D01*
X136914999Y-61907176D01*
X136914998Y-61907169D01*
X136908597Y-61847622D01*
X136858352Y-61712912D01*
X136772188Y-61597811D01*
X136657090Y-61511649D01*
X136522370Y-61461401D01*
X136522371Y-61461401D01*
X136462843Y-61455000D01*
X135792500Y-61455000D01*
X135792500Y-62750000D01*
X135292500Y-62750000D01*
X135292500Y-61455000D01*
X134622176Y-61455000D01*
X134622169Y-61455001D01*
X134562622Y-61461402D01*
X134427912Y-61511647D01*
X134312811Y-61597811D01*
X134226649Y-61712909D01*
X134176401Y-61847628D01*
X134170000Y-61907156D01*
X121450500Y-61907156D01*
X121450500Y-60627830D01*
X129955001Y-60627830D01*
X129961402Y-60687377D01*
X130011647Y-60822087D01*
X130097811Y-60937188D01*
X130212909Y-61023350D01*
X130347629Y-61073598D01*
X130347628Y-61073598D01*
X130407164Y-61079999D01*
X131249999Y-61079999D01*
X131750000Y-61079999D01*
X132592823Y-61079999D01*
X132592830Y-61079998D01*
X132652377Y-61073597D01*
X132787087Y-61023352D01*
X132902188Y-60937188D01*
X132988350Y-60822090D01*
X133038598Y-60687371D01*
X133044999Y-60627843D01*
X133045000Y-60627826D01*
X133045000Y-59957500D01*
X131750000Y-59957500D01*
X131750000Y-61079999D01*
X131249999Y-61079999D01*
X131250000Y-61079998D01*
X131250000Y-59957500D01*
X129955001Y-59957500D01*
X129955001Y-60627830D01*
X121450500Y-60627830D01*
X121450500Y-59020807D01*
X121470185Y-58953768D01*
X121486821Y-58933124D01*
X121505274Y-58914671D01*
X121505276Y-58914669D01*
X121576465Y-58808127D01*
X121585152Y-58787156D01*
X129955000Y-58787156D01*
X129955000Y-59457500D01*
X131250000Y-59457500D01*
X131750000Y-59457500D01*
X133044999Y-59457500D01*
X133044999Y-58787176D01*
X133044998Y-58787169D01*
X133038597Y-58727622D01*
X132988352Y-58592912D01*
X132902188Y-58477811D01*
X132787090Y-58391649D01*
X132652370Y-58341401D01*
X132652371Y-58341401D01*
X132592843Y-58335000D01*
X131750000Y-58335000D01*
X131750000Y-59457500D01*
X131250000Y-59457500D01*
X131250000Y-58335000D01*
X130407176Y-58335000D01*
X130407169Y-58335001D01*
X130347622Y-58341402D01*
X130212912Y-58391647D01*
X130097811Y-58477811D01*
X130011649Y-58592909D01*
X129961401Y-58727628D01*
X129955000Y-58787156D01*
X121585152Y-58787156D01*
X121625501Y-58689744D01*
X121650500Y-58564069D01*
X121650500Y-58435931D01*
X121650500Y-58435928D01*
X121625502Y-58310261D01*
X121625501Y-58310260D01*
X121625501Y-58310256D01*
X121576465Y-58191873D01*
X121576464Y-58191872D01*
X121576461Y-58191866D01*
X121505276Y-58085331D01*
X121505273Y-58085327D01*
X121414672Y-57994726D01*
X121414668Y-57994723D01*
X121308133Y-57923538D01*
X121308124Y-57923533D01*
X121189744Y-57874499D01*
X121189738Y-57874497D01*
X121064071Y-57849500D01*
X121064069Y-57849500D01*
X120935931Y-57849500D01*
X120935929Y-57849500D01*
X120810261Y-57874497D01*
X120810255Y-57874499D01*
X120691875Y-57923533D01*
X120691866Y-57923538D01*
X120585331Y-57994723D01*
X120585327Y-57994726D01*
X120494726Y-58085327D01*
X120494723Y-58085331D01*
X120423538Y-58191866D01*
X120423533Y-58191875D01*
X120374499Y-58310255D01*
X120374497Y-58310261D01*
X120349500Y-58435928D01*
X120349500Y-58435931D01*
X120349500Y-58564069D01*
X120349500Y-58564071D01*
X120349499Y-58564071D01*
X117464500Y-58564071D01*
X117464500Y-56362500D01*
X117484185Y-56295461D01*
X117536989Y-56249706D01*
X117588500Y-56238500D01*
X121958162Y-56238500D01*
X122183660Y-56202784D01*
X122190689Y-56200500D01*
X122400799Y-56132231D01*
X122604228Y-56028579D01*
X122681954Y-55972106D01*
X122788937Y-55894380D01*
X123678497Y-55004818D01*
X123739820Y-54971334D01*
X123766178Y-54968500D01*
X131388662Y-54968500D01*
X131614160Y-54932784D01*
X131831299Y-54862231D01*
X131990681Y-54781022D01*
X132038779Y-54756515D01*
X132095074Y-54743000D01*
X133640321Y-54743000D01*
X133707360Y-54762685D01*
X133728002Y-54779319D01*
X134643621Y-55694937D01*
X134805063Y-55856379D01*
X134989772Y-55990579D01*
X135065309Y-56029067D01*
X135193196Y-56094229D01*
X135193198Y-56094229D01*
X135193201Y-56094231D01*
X135279025Y-56122117D01*
X135410339Y-56164784D01*
X135635838Y-56200500D01*
X136020500Y-56200500D01*
X136087539Y-56220185D01*
X136133294Y-56272989D01*
X136144500Y-56324500D01*
X136144500Y-57900004D01*
X136149651Y-57945728D01*
X136189333Y-58028126D01*
X136189334Y-58028127D01*
X136260837Y-58085149D01*
X136322324Y-58099183D01*
X136349995Y-58105499D01*
X136350000Y-58105500D01*
X138550003Y-58105500D01*
X138550003Y-58105499D01*
X138595728Y-58100348D01*
X138678127Y-58060666D01*
X138735149Y-57989163D01*
X138755500Y-57900000D01*
X138755500Y-56734000D01*
X138750289Y-56688016D01*
X138750288Y-56688013D01*
X138710503Y-56605668D01*
X138710502Y-56605667D01*
X138638927Y-56548738D01*
X138638926Y-56548737D01*
X138597142Y-56528680D01*
X138591048Y-56525544D01*
X138505530Y-56478510D01*
X138500713Y-56475718D01*
X138414927Y-56423389D01*
X138409078Y-56419592D01*
X138324632Y-56361324D01*
X138318791Y-56357036D01*
X138234083Y-56290963D01*
X138228449Y-56286295D01*
X138142998Y-56211098D01*
X138137695Y-56206147D01*
X138052811Y-56122111D01*
X138046839Y-56115768D01*
X137961874Y-56018909D01*
X137956546Y-56012399D01*
X137892005Y-55927850D01*
X137871536Y-55901036D01*
X137865714Y-55892723D01*
X137781002Y-55760572D01*
X137775418Y-55750934D01*
X137690967Y-55588789D01*
X137685152Y-55575873D01*
X137604595Y-55365618D01*
X137597803Y-55339941D01*
X137520071Y-54830021D01*
X137510721Y-54768682D01*
X137510721Y-54731317D01*
X137597803Y-54160055D01*
X137604595Y-54134380D01*
X137685152Y-53924125D01*
X137690962Y-53911218D01*
X137775421Y-53749057D01*
X137781002Y-53739426D01*
X137851802Y-53628978D01*
X137865721Y-53607264D01*
X137871528Y-53598973D01*
X137956563Y-53487577D01*
X137961862Y-53481103D01*
X138046859Y-53384208D01*
X138052797Y-53377901D01*
X138137715Y-53293832D01*
X138142980Y-53288916D01*
X138228469Y-53213686D01*
X138234083Y-53209035D01*
X138318791Y-53142962D01*
X138324624Y-53138680D01*
X138409105Y-53080388D01*
X138414927Y-53076609D01*
X138462439Y-53047627D01*
X138500722Y-53024274D01*
X138505506Y-53021501D01*
X138591046Y-52974455D01*
X138597131Y-52971324D01*
X138638926Y-52951263D01*
X138678127Y-52926666D01*
X138735149Y-52855163D01*
X138755500Y-52766000D01*
X138755500Y-51600000D01*
X138755499Y-51599995D01*
X140244500Y-51599995D01*
X140244500Y-51600000D01*
X140244500Y-52766000D01*
X140245079Y-52771109D01*
X140249711Y-52811984D01*
X140249711Y-52811986D01*
X140289496Y-52894331D01*
X140289498Y-52894334D01*
X140361070Y-52951260D01*
X140361074Y-52951263D01*
X140402868Y-52971324D01*
X140408953Y-52974454D01*
X140494492Y-53021501D01*
X140499285Y-53024280D01*
X140585071Y-53076609D01*
X140590909Y-53080399D01*
X140629711Y-53107172D01*
X140675375Y-53138680D01*
X140681216Y-53142968D01*
X140765909Y-53209029D01*
X140771562Y-53213714D01*
X140846676Y-53279815D01*
X140856980Y-53288882D01*
X140862299Y-53293847D01*
X140886509Y-53317815D01*
X140947181Y-53377881D01*
X140953159Y-53384230D01*
X141038111Y-53481074D01*
X141043458Y-53487606D01*
X141128457Y-53598956D01*
X141134285Y-53607276D01*
X141218996Y-53739425D01*
X141224580Y-53749064D01*
X141309031Y-53911209D01*
X141314846Y-53924125D01*
X141395403Y-54134380D01*
X141402195Y-54160057D01*
X141489277Y-54731312D01*
X141489277Y-54768686D01*
X141402195Y-55339941D01*
X141395403Y-55365618D01*
X141314846Y-55575873D01*
X141309031Y-55588789D01*
X141224580Y-55750934D01*
X141218996Y-55760573D01*
X141134285Y-55892722D01*
X141128457Y-55901042D01*
X141043458Y-56012392D01*
X141038111Y-56018924D01*
X140953159Y-56115768D01*
X140947181Y-56122117D01*
X140862302Y-56206148D01*
X140856980Y-56211116D01*
X140771563Y-56286283D01*
X140765909Y-56290969D01*
X140681216Y-56357030D01*
X140675375Y-56361318D01*
X140590920Y-56419592D01*
X140585071Y-56423389D01*
X140499285Y-56475718D01*
X140494469Y-56478510D01*
X140408952Y-56525544D01*
X140402856Y-56528680D01*
X140361075Y-56548736D01*
X140321873Y-56573333D01*
X140264851Y-56644836D01*
X140244500Y-56733995D01*
X140244500Y-57900004D01*
X140249651Y-57945728D01*
X140289333Y-58028126D01*
X140289334Y-58028127D01*
X140360837Y-58085149D01*
X140422324Y-58099183D01*
X140449995Y-58105499D01*
X140450000Y-58105500D01*
X142650003Y-58105500D01*
X142650003Y-58105499D01*
X142695728Y-58100348D01*
X142778127Y-58060666D01*
X142835149Y-57989163D01*
X142855500Y-57900000D01*
X142855500Y-56706179D01*
X142875185Y-56639140D01*
X142927989Y-56593385D01*
X142997147Y-56583441D01*
X143060703Y-56612466D01*
X143067181Y-56618498D01*
X143720681Y-57271998D01*
X143754166Y-57333321D01*
X143757000Y-57359679D01*
X143757000Y-57847821D01*
X143737315Y-57914860D01*
X143720681Y-57935502D01*
X141101118Y-60555064D01*
X141101114Y-60555069D01*
X140966923Y-60739769D01*
X140863270Y-60943198D01*
X140792716Y-61160337D01*
X140792716Y-61160340D01*
X140757001Y-61385838D01*
X140757001Y-61599970D01*
X140737316Y-61667009D01*
X140732772Y-61673602D01*
X140682207Y-61742116D01*
X140637353Y-61870302D01*
X140634500Y-61900731D01*
X140634500Y-64099258D01*
X140637354Y-64129698D01*
X140637354Y-64129699D01*
X140682206Y-64257881D01*
X140682207Y-64257882D01*
X140762850Y-64367150D01*
X140872118Y-64447793D01*
X141000302Y-64492646D01*
X141000301Y-64492646D01*
X141004271Y-64493018D01*
X141030735Y-64495500D01*
X142884264Y-64495499D01*
X142914698Y-64492646D01*
X143042882Y-64447793D01*
X143152150Y-64367150D01*
X143232793Y-64257882D01*
X143277646Y-64129698D01*
X143280500Y-64099265D01*
X143280499Y-62529677D01*
X143300184Y-62462639D01*
X143316813Y-62442002D01*
X145137820Y-60620995D01*
X145199142Y-60587512D01*
X145268834Y-60592496D01*
X145324767Y-60634368D01*
X145349184Y-60699832D01*
X145349500Y-60708678D01*
X145349500Y-61219752D01*
X145361131Y-61278229D01*
X145361132Y-61278230D01*
X145405447Y-61344552D01*
X145471769Y-61388867D01*
X145472949Y-61389356D01*
X145475126Y-61391110D01*
X145481923Y-61395652D01*
X145481516Y-61396259D01*
X145527354Y-61433195D01*
X145549421Y-61499489D01*
X145549500Y-61503918D01*
X145549500Y-63269821D01*
X145529815Y-63336860D01*
X145513181Y-63357502D01*
X144105618Y-64765064D01*
X144105614Y-64765069D01*
X143971423Y-64949769D01*
X143867770Y-65153198D01*
X143797216Y-65370337D01*
X143797216Y-65370340D01*
X143761501Y-65595838D01*
X143761501Y-65824157D01*
X143761500Y-65824160D01*
X143797216Y-66049663D01*
X143797867Y-66052373D01*
X143797813Y-66053433D01*
X143797978Y-66054470D01*
X143797760Y-66054504D01*
X143794371Y-66122155D01*
X143780394Y-66150200D01*
X143702223Y-66267192D01*
X143649421Y-66394668D01*
X143649418Y-66394680D01*
X143638366Y-66450242D01*
X143638366Y-66450243D01*
X143622500Y-66530004D01*
X143622500Y-66530007D01*
X143622500Y-68704006D01*
X143622500Y-68841994D01*
X143622500Y-68841996D01*
X143622499Y-68841996D01*
X143649418Y-68977322D01*
X143649421Y-68977332D01*
X143702222Y-69104807D01*
X143778887Y-69219545D01*
X143778888Y-69219546D01*
X144805886Y-70246542D01*
X144872224Y-70312880D01*
X144903459Y-70344115D01*
X145018182Y-70420771D01*
X145018186Y-70420773D01*
X145018189Y-70420775D01*
X145072333Y-70443202D01*
X145145671Y-70473580D01*
X145172591Y-70478934D01*
X145270892Y-70498488D01*
X145281006Y-70500500D01*
X145281007Y-70500500D01*
X145359496Y-70500500D01*
X145400451Y-70507459D01*
X145515298Y-70547645D01*
X145515300Y-70547646D01*
X145545730Y-70550500D01*
X145545734Y-70550500D01*
X149754270Y-70550500D01*
X149784699Y-70547646D01*
X149784701Y-70547646D01*
X149848790Y-70525219D01*
X149912882Y-70502793D01*
X150022150Y-70422150D01*
X150102793Y-70312882D01*
X150135685Y-70218882D01*
X150147646Y-70184701D01*
X150147646Y-70184699D01*
X150150500Y-70154269D01*
X150150500Y-69445730D01*
X150147646Y-69415300D01*
X150147646Y-69415298D01*
X150111195Y-69311131D01*
X150102793Y-69287118D01*
X150022150Y-69177850D01*
X149912882Y-69097207D01*
X149912880Y-69097206D01*
X149784700Y-69052353D01*
X149754270Y-69049500D01*
X149754266Y-69049500D01*
X145641518Y-69049500D01*
X145574479Y-69029815D01*
X145553837Y-69013181D01*
X145059819Y-68519162D01*
X145026334Y-68457839D01*
X145023500Y-68431481D01*
X145023500Y-68047844D01*
X153350000Y-68047844D01*
X153356401Y-68107372D01*
X153356403Y-68107379D01*
X153406645Y-68242086D01*
X153406649Y-68242093D01*
X153492809Y-68357187D01*
X153492812Y-68357190D01*
X153607906Y-68443350D01*
X153607913Y-68443354D01*
X153742620Y-68493596D01*
X153742627Y-68493598D01*
X153802155Y-68499999D01*
X153802172Y-68500000D01*
X154250000Y-68500000D01*
X154750000Y-68500000D01*
X155197828Y-68500000D01*
X155197844Y-68499999D01*
X155257372Y-68493598D01*
X155257379Y-68493596D01*
X155392086Y-68443354D01*
X155392093Y-68443350D01*
X155507187Y-68357190D01*
X155507190Y-68357187D01*
X155593350Y-68242093D01*
X155593354Y-68242086D01*
X155643596Y-68107379D01*
X155643598Y-68107372D01*
X155649999Y-68047844D01*
X155650000Y-68047827D01*
X155650000Y-67250000D01*
X154750000Y-67250000D01*
X154750000Y-68500000D01*
X154250000Y-68500000D01*
X154250000Y-67250000D01*
X153350000Y-67250000D01*
X153350000Y-68047844D01*
X145023500Y-68047844D01*
X145023500Y-67284499D01*
X145043185Y-67217460D01*
X145095989Y-67171705D01*
X145147500Y-67160499D01*
X145326161Y-67160499D01*
X145413614Y-67146647D01*
X145551659Y-67124784D01*
X145768799Y-67054231D01*
X145972227Y-66950579D01*
X146156937Y-66816380D01*
X147021162Y-65952155D01*
X153350000Y-65952155D01*
X153350000Y-66750000D01*
X154250000Y-66750000D01*
X154750000Y-66750000D01*
X155650000Y-66750000D01*
X155650000Y-65952172D01*
X155649999Y-65952155D01*
X155643598Y-65892627D01*
X155643596Y-65892620D01*
X155593354Y-65757913D01*
X155593350Y-65757906D01*
X155507190Y-65642812D01*
X155507187Y-65642809D01*
X155392093Y-65556649D01*
X155392086Y-65556645D01*
X155257379Y-65506403D01*
X155257372Y-65506401D01*
X155197844Y-65500000D01*
X154750000Y-65500000D01*
X154750000Y-66750000D01*
X154250000Y-66750000D01*
X154250000Y-65500000D01*
X153802155Y-65500000D01*
X153742627Y-65506401D01*
X153742620Y-65506403D01*
X153607913Y-65556645D01*
X153607906Y-65556649D01*
X153492812Y-65642809D01*
X153492809Y-65642812D01*
X153406649Y-65757906D01*
X153406645Y-65757913D01*
X153356403Y-65892620D01*
X153356401Y-65892627D01*
X153350000Y-65952155D01*
X147021162Y-65952155D01*
X148106380Y-64866937D01*
X148180390Y-64765069D01*
X148184104Y-64759957D01*
X148184106Y-64759954D01*
X148240579Y-64682228D01*
X148344231Y-64478799D01*
X148414784Y-64261660D01*
X148415796Y-64255273D01*
X148450500Y-64036162D01*
X148450500Y-61503918D01*
X148470185Y-61436879D01*
X148522989Y-61391124D01*
X148527051Y-61389356D01*
X148528229Y-61388867D01*
X148528231Y-61388867D01*
X148594552Y-61344552D01*
X148638867Y-61278231D01*
X148638867Y-61278229D01*
X148638868Y-61278229D01*
X148650499Y-61219752D01*
X148650500Y-61219750D01*
X148650500Y-55780249D01*
X148650499Y-55780247D01*
X148638868Y-55721770D01*
X148638867Y-55721769D01*
X148594552Y-55655447D01*
X148528230Y-55611132D01*
X148528229Y-55611131D01*
X148469752Y-55599500D01*
X148469748Y-55599500D01*
X146202179Y-55599500D01*
X146135140Y-55579815D01*
X146114498Y-55563181D01*
X144194937Y-53643620D01*
X144174784Y-53628978D01*
X144062530Y-53547421D01*
X144062528Y-53547420D01*
X144062528Y-53547419D01*
X144010228Y-53509421D01*
X143806803Y-53405770D01*
X143589660Y-53335215D01*
X143364162Y-53299500D01*
X143364157Y-53299500D01*
X142979500Y-53299500D01*
X142912461Y-53279815D01*
X142866706Y-53227011D01*
X142855500Y-53175500D01*
X142855500Y-51599997D01*
X142855499Y-51599995D01*
X142850348Y-51554271D01*
X142810666Y-51471873D01*
X142739163Y-51414851D01*
X142650004Y-51394500D01*
X142650000Y-51394500D01*
X140450000Y-51394500D01*
X140449995Y-51394500D01*
X140404271Y-51399651D01*
X140321873Y-51439333D01*
X140264851Y-51510836D01*
X140244500Y-51599995D01*
X138755499Y-51599995D01*
X138750348Y-51554271D01*
X138710666Y-51471873D01*
X138639163Y-51414851D01*
X138550004Y-51394500D01*
X138550000Y-51394500D01*
X136350000Y-51394500D01*
X136349995Y-51394500D01*
X136304271Y-51399651D01*
X136221873Y-51439333D01*
X136164851Y-51510836D01*
X136144500Y-51599995D01*
X136144500Y-52793821D01*
X136124815Y-52860860D01*
X136072011Y-52906615D01*
X136002853Y-52916559D01*
X135939297Y-52887534D01*
X135932819Y-52881502D01*
X135237439Y-52186122D01*
X135237433Y-52186117D01*
X135079439Y-52071328D01*
X135079438Y-52071326D01*
X135063194Y-52059525D01*
X135052728Y-52051921D01*
X134984596Y-52017206D01*
X134849303Y-51948270D01*
X134632160Y-51877715D01*
X134406662Y-51842000D01*
X134406657Y-51842000D01*
X131385843Y-51842000D01*
X131385838Y-51842000D01*
X131160338Y-51877716D01*
X131160335Y-51877716D01*
X130943205Y-51948267D01*
X130943201Y-51948268D01*
X130928052Y-51955987D01*
X130871762Y-51969500D01*
X130400741Y-51969500D01*
X130370301Y-51972354D01*
X130370300Y-51972354D01*
X130242118Y-52017206D01*
X130242115Y-52017208D01*
X130206803Y-52043270D01*
X130141174Y-52067241D01*
X130133170Y-52067500D01*
X122999838Y-52067500D01*
X122774335Y-52103216D01*
X122773725Y-52103363D01*
X122773486Y-52103351D01*
X122769528Y-52103978D01*
X122769396Y-52103145D01*
X122703943Y-52099858D01*
X122657121Y-52070464D01*
X121909546Y-51322888D01*
X121909545Y-51322887D01*
X121794807Y-51246222D01*
X121667332Y-51193421D01*
X121667322Y-51193418D01*
X121531996Y-51166500D01*
X121531994Y-51166500D01*
X121531993Y-51166500D01*
X121389079Y-51166500D01*
X121322040Y-51146815D01*
X121289308Y-51116133D01*
X121255151Y-51069851D01*
X121255150Y-51069850D01*
X121145882Y-50989207D01*
X121145880Y-50989206D01*
X121017700Y-50944353D01*
X120987270Y-50941500D01*
X120987266Y-50941500D01*
X120203734Y-50941500D01*
X120203730Y-50941500D01*
X120173300Y-50944353D01*
X120173298Y-50944353D01*
X120045119Y-50989206D01*
X120045117Y-50989207D01*
X119935850Y-51069850D01*
X119855207Y-51179117D01*
X119855206Y-51179119D01*
X119810353Y-51307298D01*
X119810353Y-51307300D01*
X119807500Y-51337730D01*
X119807500Y-52396269D01*
X119810353Y-52426699D01*
X119810353Y-52426701D01*
X119855206Y-52554880D01*
X119855207Y-52554882D01*
X119935850Y-52664150D01*
X120045118Y-52744793D01*
X120087845Y-52759744D01*
X120173299Y-52789646D01*
X120203730Y-52792500D01*
X120203734Y-52792500D01*
X120987270Y-52792500D01*
X121017699Y-52789646D01*
X121017701Y-52789646D01*
X121085276Y-52766000D01*
X121145882Y-52744793D01*
X121149971Y-52741775D01*
X121177544Y-52721426D01*
X121209934Y-52709595D01*
X121242331Y-52697512D01*
X121242760Y-52697605D01*
X121243173Y-52697455D01*
X121276832Y-52705017D01*
X121310604Y-52712364D01*
X121311063Y-52712708D01*
X121311343Y-52712771D01*
X121338858Y-52733515D01*
X121505332Y-52899989D01*
X121538817Y-52961312D01*
X121533833Y-53031004D01*
X121505332Y-53075351D01*
X121279502Y-53301181D01*
X121218179Y-53334666D01*
X121191821Y-53337500D01*
X117416178Y-53337500D01*
X117349139Y-53317815D01*
X117328497Y-53301181D01*
X116417161Y-52389844D01*
X117683000Y-52389844D01*
X117689401Y-52449372D01*
X117689403Y-52449379D01*
X117739645Y-52584086D01*
X117739649Y-52584093D01*
X117825809Y-52699187D01*
X117825812Y-52699190D01*
X117940906Y-52785350D01*
X117940913Y-52785354D01*
X118075620Y-52835596D01*
X118075627Y-52835598D01*
X118135155Y-52841999D01*
X118135172Y-52842000D01*
X118270500Y-52842000D01*
X118770500Y-52842000D01*
X118905828Y-52842000D01*
X118905844Y-52841999D01*
X118965372Y-52835598D01*
X118965379Y-52835596D01*
X119100086Y-52785354D01*
X119100093Y-52785350D01*
X119215187Y-52699190D01*
X119215190Y-52699187D01*
X119301350Y-52584093D01*
X119301354Y-52584086D01*
X119351596Y-52449379D01*
X119351598Y-52449372D01*
X119357999Y-52389844D01*
X119358000Y-52389827D01*
X119358000Y-52117000D01*
X118770500Y-52117000D01*
X118770500Y-52842000D01*
X118270500Y-52842000D01*
X118270500Y-52117000D01*
X117683000Y-52117000D01*
X117683000Y-52389844D01*
X116417161Y-52389844D01*
X116180636Y-52153319D01*
X115371472Y-51344155D01*
X117683000Y-51344155D01*
X117683000Y-51617000D01*
X118270500Y-51617000D01*
X118770500Y-51617000D01*
X119358000Y-51617000D01*
X119358000Y-51344172D01*
X119357999Y-51344155D01*
X119351598Y-51284627D01*
X119351596Y-51284620D01*
X119301354Y-51149913D01*
X119301350Y-51149906D01*
X119215190Y-51034812D01*
X119215187Y-51034809D01*
X119100093Y-50948649D01*
X119100086Y-50948645D01*
X118965379Y-50898403D01*
X118965372Y-50898401D01*
X118905844Y-50892000D01*
X118770500Y-50892000D01*
X118770500Y-51617000D01*
X118270500Y-51617000D01*
X118270500Y-50892000D01*
X118135155Y-50892000D01*
X118075627Y-50898401D01*
X118075620Y-50898403D01*
X117940913Y-50948645D01*
X117940906Y-50948649D01*
X117825812Y-51034809D01*
X117825809Y-51034812D01*
X117739649Y-51149906D01*
X117739645Y-51149913D01*
X117689403Y-51284620D01*
X117689401Y-51284627D01*
X117683000Y-51344155D01*
X115371472Y-51344155D01*
X114920937Y-50893620D01*
X114918707Y-50892000D01*
X114772063Y-50785457D01*
X114772061Y-50785455D01*
X114772060Y-50785454D01*
X114754145Y-50772439D01*
X114736228Y-50759421D01*
X114722310Y-50752329D01*
X114532803Y-50655770D01*
X114315660Y-50585215D01*
X114090162Y-50549500D01*
X114090157Y-50549500D01*
X109385843Y-50549500D01*
X109385838Y-50549500D01*
X109160339Y-50585215D01*
X108943196Y-50655770D01*
X108739771Y-50759421D01*
X108555061Y-50893622D01*
X108393622Y-51055061D01*
X108259421Y-51239771D01*
X108201833Y-51352795D01*
X108153858Y-51403591D01*
X108091348Y-51420500D01*
X107834519Y-51420500D01*
X107767480Y-51400815D01*
X107746838Y-51384181D01*
X107340819Y-50978162D01*
X107307334Y-50916839D01*
X107304500Y-50890481D01*
X107304500Y-49932657D01*
X107324185Y-49865618D01*
X107376989Y-49819863D01*
X107446147Y-49809919D01*
X107452692Y-49811040D01*
X107500249Y-49820500D01*
X107500252Y-49820500D01*
X109239750Y-49820500D01*
X109239751Y-49820499D01*
X109254568Y-49817552D01*
X109298229Y-49808868D01*
X109298229Y-49808867D01*
X109298231Y-49808867D01*
X109364552Y-49764552D01*
X109408867Y-49698231D01*
X109408867Y-49698229D01*
X109408868Y-49698229D01*
X109420499Y-49639752D01*
X109420500Y-49639750D01*
X109420500Y-48666530D01*
X109859500Y-48666530D01*
X109859500Y-48873469D01*
X109899868Y-49076412D01*
X109899870Y-49076420D01*
X109979058Y-49267596D01*
X110094024Y-49439657D01*
X110240342Y-49585975D01*
X110240345Y-49585977D01*
X110412402Y-49700941D01*
X110603580Y-49780130D01*
X110803333Y-49819863D01*
X110806530Y-49820499D01*
X110806534Y-49820500D01*
X110806535Y-49820500D01*
X111013466Y-49820500D01*
X111013467Y-49820499D01*
X111216420Y-49780130D01*
X111407598Y-49700941D01*
X111579655Y-49585977D01*
X111725977Y-49439655D01*
X111840941Y-49267598D01*
X111920130Y-49076420D01*
X111960500Y-48873465D01*
X111960500Y-48666535D01*
X111960499Y-48666530D01*
X112399500Y-48666530D01*
X112399500Y-48873469D01*
X112439868Y-49076412D01*
X112439870Y-49076420D01*
X112519058Y-49267596D01*
X112634024Y-49439657D01*
X112780342Y-49585975D01*
X112780345Y-49585977D01*
X112952402Y-49700941D01*
X113143580Y-49780130D01*
X113343333Y-49819863D01*
X113346530Y-49820499D01*
X113346534Y-49820500D01*
X113346535Y-49820500D01*
X113553466Y-49820500D01*
X113553467Y-49820499D01*
X113756420Y-49780130D01*
X113947598Y-49700941D01*
X114119655Y-49585977D01*
X114265977Y-49439655D01*
X114380941Y-49267598D01*
X114460130Y-49076420D01*
X114500500Y-48873465D01*
X114500500Y-48666535D01*
X114500499Y-48666530D01*
X114939500Y-48666530D01*
X114939500Y-48873469D01*
X114979868Y-49076412D01*
X114979870Y-49076420D01*
X115059058Y-49267596D01*
X115174024Y-49439657D01*
X115320342Y-49585975D01*
X115320345Y-49585977D01*
X115492402Y-49700941D01*
X115683580Y-49780130D01*
X115883333Y-49819863D01*
X115886530Y-49820499D01*
X115886534Y-49820500D01*
X115886535Y-49820500D01*
X116093466Y-49820500D01*
X116093467Y-49820499D01*
X116296420Y-49780130D01*
X116487598Y-49700941D01*
X116659655Y-49585977D01*
X116805977Y-49439655D01*
X116920941Y-49267598D01*
X117000130Y-49076420D01*
X117011353Y-49020000D01*
X117023532Y-48958773D01*
X117023537Y-48958745D01*
X117040499Y-48873469D01*
X117040500Y-48873465D01*
X117040500Y-48666535D01*
X117011352Y-48519999D01*
X117455884Y-48519999D01*
X117455885Y-48520000D01*
X118096988Y-48520000D01*
X118064075Y-48577007D01*
X118030000Y-48704174D01*
X118030000Y-48835826D01*
X118064075Y-48962993D01*
X118096988Y-49020000D01*
X117455885Y-49020000D01*
X117457085Y-49027584D01*
X117510591Y-49192255D01*
X117589195Y-49346524D01*
X117690967Y-49486602D01*
X117813397Y-49609032D01*
X117953475Y-49710804D01*
X118107744Y-49789408D01*
X118272415Y-49842914D01*
X118272414Y-49842914D01*
X118279999Y-49844115D01*
X118280000Y-49844114D01*
X118280000Y-49203012D01*
X118337007Y-49235925D01*
X118464174Y-49270000D01*
X118595826Y-49270000D01*
X118722993Y-49235925D01*
X118780000Y-49203012D01*
X118780000Y-49844115D01*
X118787584Y-49842914D01*
X118952255Y-49789408D01*
X119106524Y-49710804D01*
X119246602Y-49609032D01*
X119369032Y-49486602D01*
X119470804Y-49346524D01*
X119549408Y-49192255D01*
X119602914Y-49027584D01*
X119604115Y-49020000D01*
X118963012Y-49020000D01*
X118995925Y-48962993D01*
X119030000Y-48835826D01*
X119030000Y-48704174D01*
X119019913Y-48666530D01*
X120019500Y-48666530D01*
X120019500Y-48873469D01*
X120059868Y-49076412D01*
X120059870Y-49076420D01*
X120139058Y-49267596D01*
X120254024Y-49439657D01*
X120400342Y-49585975D01*
X120400345Y-49585977D01*
X120572402Y-49700941D01*
X120763580Y-49780130D01*
X120963333Y-49819863D01*
X120966530Y-49820499D01*
X120966534Y-49820500D01*
X120966535Y-49820500D01*
X121173466Y-49820500D01*
X121173467Y-49820499D01*
X121376420Y-49780130D01*
X121567598Y-49700941D01*
X121739655Y-49585977D01*
X121885977Y-49439655D01*
X122000941Y-49267598D01*
X122080130Y-49076420D01*
X122120500Y-48873465D01*
X122120500Y-48666535D01*
X122120499Y-48666530D01*
X122559500Y-48666530D01*
X122559500Y-48873469D01*
X122599868Y-49076412D01*
X122599870Y-49076420D01*
X122679058Y-49267596D01*
X122794024Y-49439657D01*
X122940342Y-49585975D01*
X122940345Y-49585977D01*
X123112402Y-49700941D01*
X123303580Y-49780130D01*
X123503333Y-49819863D01*
X123506530Y-49820499D01*
X123506534Y-49820500D01*
X123506535Y-49820500D01*
X123713466Y-49820500D01*
X123713467Y-49820499D01*
X123916420Y-49780130D01*
X124107598Y-49700941D01*
X124279655Y-49585977D01*
X124425977Y-49439655D01*
X124540941Y-49267598D01*
X124620130Y-49076420D01*
X124660500Y-48873465D01*
X124660500Y-48666535D01*
X124660499Y-48666530D01*
X125099500Y-48666530D01*
X125099500Y-48873469D01*
X125139868Y-49076412D01*
X125139870Y-49076420D01*
X125219058Y-49267596D01*
X125334024Y-49439657D01*
X125480342Y-49585975D01*
X125480345Y-49585977D01*
X125652402Y-49700941D01*
X125843580Y-49780130D01*
X126043333Y-49819863D01*
X126046530Y-49820499D01*
X126046534Y-49820500D01*
X126046535Y-49820500D01*
X126253466Y-49820500D01*
X126253467Y-49820499D01*
X126456420Y-49780130D01*
X126647598Y-49700941D01*
X126819655Y-49585977D01*
X126965977Y-49439655D01*
X127080941Y-49267598D01*
X127160130Y-49076420D01*
X127200500Y-48873465D01*
X127200500Y-48666535D01*
X127200499Y-48666530D01*
X127639500Y-48666530D01*
X127639500Y-48873469D01*
X127679868Y-49076412D01*
X127679870Y-49076420D01*
X127759058Y-49267596D01*
X127874024Y-49439657D01*
X128020342Y-49585975D01*
X128020345Y-49585977D01*
X128192402Y-49700941D01*
X128383580Y-49780130D01*
X128583333Y-49819863D01*
X128586530Y-49820499D01*
X128586534Y-49820500D01*
X128586535Y-49820500D01*
X128793466Y-49820500D01*
X128793467Y-49820499D01*
X128996420Y-49780130D01*
X129187598Y-49700941D01*
X129359655Y-49585977D01*
X129505977Y-49439655D01*
X129620941Y-49267598D01*
X129700130Y-49076420D01*
X129740500Y-48873465D01*
X129740500Y-48666535D01*
X129740499Y-48666530D01*
X130179500Y-48666530D01*
X130179500Y-48873469D01*
X130219868Y-49076412D01*
X130219870Y-49076420D01*
X130299058Y-49267596D01*
X130414024Y-49439657D01*
X130560342Y-49585975D01*
X130560345Y-49585977D01*
X130732402Y-49700941D01*
X130923580Y-49780130D01*
X131123333Y-49819863D01*
X131126530Y-49820499D01*
X131126534Y-49820500D01*
X131126535Y-49820500D01*
X131333466Y-49820500D01*
X131333467Y-49820499D01*
X131536420Y-49780130D01*
X131727598Y-49700941D01*
X131899655Y-49585977D01*
X132045977Y-49439655D01*
X132160941Y-49267598D01*
X132240130Y-49076420D01*
X132280500Y-48873465D01*
X132280500Y-48666535D01*
X132280499Y-48666530D01*
X132719500Y-48666530D01*
X132719500Y-48873469D01*
X132759868Y-49076412D01*
X132759870Y-49076420D01*
X132839058Y-49267596D01*
X132954024Y-49439657D01*
X133100342Y-49585975D01*
X133100345Y-49585977D01*
X133272402Y-49700941D01*
X133463580Y-49780130D01*
X133663333Y-49819863D01*
X133666530Y-49820499D01*
X133666534Y-49820500D01*
X133666535Y-49820500D01*
X133873466Y-49820500D01*
X133873467Y-49820499D01*
X134076420Y-49780130D01*
X134267598Y-49700941D01*
X134439655Y-49585977D01*
X134585977Y-49439655D01*
X134700941Y-49267598D01*
X134780130Y-49076420D01*
X134820500Y-48873465D01*
X134820500Y-48666535D01*
X134820499Y-48666530D01*
X135259500Y-48666530D01*
X135259500Y-48873469D01*
X135299868Y-49076412D01*
X135299870Y-49076420D01*
X135379058Y-49267596D01*
X135494024Y-49439657D01*
X135640342Y-49585975D01*
X135640345Y-49585977D01*
X135812402Y-49700941D01*
X136003580Y-49780130D01*
X136203333Y-49819863D01*
X136206530Y-49820499D01*
X136206534Y-49820500D01*
X136206535Y-49820500D01*
X136413466Y-49820500D01*
X136413467Y-49820499D01*
X136616420Y-49780130D01*
X136807598Y-49700941D01*
X136979655Y-49585977D01*
X137125977Y-49439655D01*
X137240941Y-49267598D01*
X137320130Y-49076420D01*
X137331353Y-49020000D01*
X137343532Y-48958773D01*
X137343537Y-48958745D01*
X137360499Y-48873469D01*
X137360500Y-48873465D01*
X137360500Y-48666535D01*
X137331352Y-48519999D01*
X137775884Y-48519999D01*
X137775885Y-48520000D01*
X138416988Y-48520000D01*
X138384075Y-48577007D01*
X138350000Y-48704174D01*
X138350000Y-48835826D01*
X138384075Y-48962993D01*
X138416988Y-49020000D01*
X137775885Y-49020000D01*
X137777085Y-49027584D01*
X137830591Y-49192255D01*
X137909195Y-49346524D01*
X138010967Y-49486602D01*
X138133397Y-49609032D01*
X138273475Y-49710804D01*
X138427744Y-49789408D01*
X138592415Y-49842914D01*
X138592414Y-49842914D01*
X138599999Y-49844115D01*
X138600000Y-49844114D01*
X138600000Y-49203012D01*
X138657007Y-49235925D01*
X138784174Y-49270000D01*
X138915826Y-49270000D01*
X139042993Y-49235925D01*
X139100000Y-49203012D01*
X139100000Y-49844115D01*
X139107584Y-49842914D01*
X139272255Y-49789408D01*
X139426524Y-49710804D01*
X139566602Y-49609032D01*
X139689032Y-49486602D01*
X139790804Y-49346524D01*
X139869408Y-49192255D01*
X139922914Y-49027584D01*
X139924115Y-49020000D01*
X139283012Y-49020000D01*
X139315925Y-48962993D01*
X139350000Y-48835826D01*
X139350000Y-48704174D01*
X139339913Y-48666530D01*
X140339500Y-48666530D01*
X140339500Y-48873469D01*
X140379868Y-49076412D01*
X140379870Y-49076420D01*
X140459058Y-49267596D01*
X140574024Y-49439657D01*
X140720342Y-49585975D01*
X140720345Y-49585977D01*
X140892402Y-49700941D01*
X141083580Y-49780130D01*
X141283333Y-49819863D01*
X141286530Y-49820499D01*
X141286534Y-49820500D01*
X141286535Y-49820500D01*
X141493466Y-49820500D01*
X141493467Y-49820499D01*
X141696420Y-49780130D01*
X141887598Y-49700941D01*
X142059655Y-49585977D01*
X142205977Y-49439655D01*
X142320941Y-49267598D01*
X142400130Y-49076420D01*
X142440500Y-48873465D01*
X142440500Y-48666535D01*
X142440499Y-48666530D01*
X142879500Y-48666530D01*
X142879500Y-48873469D01*
X142919868Y-49076412D01*
X142919870Y-49076420D01*
X142999058Y-49267596D01*
X143114024Y-49439657D01*
X143260342Y-49585975D01*
X143260345Y-49585977D01*
X143432402Y-49700941D01*
X143623580Y-49780130D01*
X143823333Y-49819863D01*
X143826530Y-49820499D01*
X143826534Y-49820500D01*
X143826535Y-49820500D01*
X144033466Y-49820500D01*
X144033467Y-49820499D01*
X144236420Y-49780130D01*
X144427598Y-49700941D01*
X144599655Y-49585977D01*
X144745977Y-49439655D01*
X144860941Y-49267598D01*
X144940130Y-49076420D01*
X144980500Y-48873465D01*
X144980500Y-48666535D01*
X144980499Y-48666530D01*
X145419500Y-48666530D01*
X145419500Y-48873469D01*
X145459868Y-49076412D01*
X145459870Y-49076420D01*
X145539058Y-49267596D01*
X145654024Y-49439657D01*
X145800342Y-49585975D01*
X145800345Y-49585977D01*
X145972402Y-49700941D01*
X146163580Y-49780130D01*
X146363333Y-49819863D01*
X146366530Y-49820499D01*
X146366534Y-49820500D01*
X146366535Y-49820500D01*
X146573466Y-49820500D01*
X146573467Y-49820499D01*
X146776420Y-49780130D01*
X146967598Y-49700941D01*
X147139655Y-49585977D01*
X147285977Y-49439655D01*
X147400941Y-49267598D01*
X147480130Y-49076420D01*
X147520500Y-48873465D01*
X147520500Y-48666535D01*
X147520499Y-48666530D01*
X147959500Y-48666530D01*
X147959500Y-48873469D01*
X147999868Y-49076412D01*
X147999870Y-49076420D01*
X148079058Y-49267596D01*
X148194024Y-49439657D01*
X148340342Y-49585975D01*
X148340345Y-49585977D01*
X148512402Y-49700941D01*
X148703580Y-49780130D01*
X148903333Y-49819863D01*
X148906530Y-49820499D01*
X148906534Y-49820500D01*
X148906535Y-49820500D01*
X149113466Y-49820500D01*
X149113467Y-49820499D01*
X149316420Y-49780130D01*
X149507598Y-49700941D01*
X149679655Y-49585977D01*
X149825977Y-49439655D01*
X149940941Y-49267598D01*
X150020130Y-49076420D01*
X150060500Y-48873465D01*
X150060500Y-48666535D01*
X150060499Y-48666530D01*
X150499500Y-48666530D01*
X150499500Y-48873469D01*
X150539868Y-49076412D01*
X150539870Y-49076420D01*
X150619058Y-49267596D01*
X150734024Y-49439657D01*
X150880342Y-49585975D01*
X150880345Y-49585977D01*
X151052402Y-49700941D01*
X151243580Y-49780130D01*
X151443333Y-49819863D01*
X151446530Y-49820499D01*
X151446534Y-49820500D01*
X151446535Y-49820500D01*
X151653466Y-49820500D01*
X151653467Y-49820499D01*
X151856420Y-49780130D01*
X152047598Y-49700941D01*
X152219655Y-49585977D01*
X152365977Y-49439655D01*
X152480941Y-49267598D01*
X152560130Y-49076420D01*
X152600500Y-48873465D01*
X152600500Y-48666535D01*
X152600499Y-48666530D01*
X153039500Y-48666530D01*
X153039500Y-48873469D01*
X153079868Y-49076412D01*
X153079870Y-49076420D01*
X153159058Y-49267596D01*
X153274024Y-49439657D01*
X153420342Y-49585975D01*
X153420345Y-49585977D01*
X153592402Y-49700941D01*
X153783580Y-49780130D01*
X153983333Y-49819863D01*
X153986530Y-49820499D01*
X153986534Y-49820500D01*
X153986535Y-49820500D01*
X154193466Y-49820500D01*
X154193467Y-49820499D01*
X154396420Y-49780130D01*
X154587598Y-49700941D01*
X154759655Y-49585977D01*
X154905977Y-49439655D01*
X155020941Y-49267598D01*
X155100130Y-49076420D01*
X155111353Y-49020000D01*
X155123532Y-48958773D01*
X155123537Y-48958745D01*
X155140499Y-48873469D01*
X155140500Y-48873465D01*
X155140500Y-48666535D01*
X155123537Y-48581255D01*
X155123537Y-48581252D01*
X155111353Y-48519999D01*
X155555884Y-48519999D01*
X155555885Y-48520000D01*
X156196988Y-48520000D01*
X156164075Y-48577007D01*
X156130000Y-48704174D01*
X156130000Y-48835826D01*
X156164075Y-48962993D01*
X156196988Y-49020000D01*
X155555885Y-49020000D01*
X155557085Y-49027584D01*
X155610591Y-49192255D01*
X155689195Y-49346524D01*
X155790967Y-49486602D01*
X155913397Y-49609032D01*
X156053475Y-49710804D01*
X156207744Y-49789408D01*
X156372415Y-49842914D01*
X156372414Y-49842914D01*
X156379999Y-49844115D01*
X156380000Y-49844114D01*
X156380000Y-49203012D01*
X156437007Y-49235925D01*
X156564174Y-49270000D01*
X156695826Y-49270000D01*
X156822993Y-49235925D01*
X156880000Y-49203012D01*
X156880000Y-49844115D01*
X156887584Y-49842914D01*
X157052255Y-49789408D01*
X157206524Y-49710804D01*
X157346602Y-49609032D01*
X157469032Y-49486602D01*
X157570804Y-49346524D01*
X157649408Y-49192255D01*
X157702914Y-49027584D01*
X157704115Y-49020000D01*
X157063012Y-49020000D01*
X157095925Y-48962993D01*
X157130000Y-48835826D01*
X157130000Y-48704174D01*
X157095925Y-48577007D01*
X157063012Y-48520000D01*
X157704115Y-48520000D01*
X157704115Y-48519999D01*
X157702914Y-48512415D01*
X157649408Y-48347744D01*
X157570804Y-48193475D01*
X157469032Y-48053397D01*
X157346602Y-47930967D01*
X157206524Y-47829195D01*
X157052257Y-47750591D01*
X156887589Y-47697087D01*
X156887581Y-47697085D01*
X156880000Y-47695884D01*
X156880000Y-48336988D01*
X156822993Y-48304075D01*
X156695826Y-48270000D01*
X156564174Y-48270000D01*
X156437007Y-48304075D01*
X156380000Y-48336988D01*
X156380000Y-47695884D01*
X156379999Y-47695884D01*
X156372418Y-47697085D01*
X156372410Y-47697087D01*
X156207742Y-47750591D01*
X156053475Y-47829195D01*
X155913397Y-47930967D01*
X155790967Y-48053397D01*
X155689195Y-48193475D01*
X155610591Y-48347744D01*
X155557085Y-48512415D01*
X155555884Y-48519999D01*
X155111353Y-48519999D01*
X155100131Y-48463587D01*
X155100130Y-48463580D01*
X155020941Y-48272402D01*
X154905977Y-48100345D01*
X154905975Y-48100342D01*
X154759657Y-47954024D01*
X154591655Y-47841770D01*
X154587598Y-47839059D01*
X154563784Y-47829195D01*
X154396420Y-47759870D01*
X154396412Y-47759868D01*
X154193469Y-47719500D01*
X154193465Y-47719500D01*
X153986535Y-47719500D01*
X153986530Y-47719500D01*
X153783587Y-47759868D01*
X153783579Y-47759870D01*
X153592403Y-47839058D01*
X153420342Y-47954024D01*
X153274024Y-48100342D01*
X153159058Y-48272403D01*
X153079870Y-48463579D01*
X153079868Y-48463587D01*
X153039500Y-48666530D01*
X152600499Y-48666530D01*
X152560130Y-48463580D01*
X152480941Y-48272402D01*
X152365977Y-48100345D01*
X152365975Y-48100342D01*
X152219657Y-47954024D01*
X152051655Y-47841770D01*
X152047598Y-47839059D01*
X152023784Y-47829195D01*
X151856420Y-47759870D01*
X151856412Y-47759868D01*
X151653469Y-47719500D01*
X151653465Y-47719500D01*
X151446535Y-47719500D01*
X151446530Y-47719500D01*
X151243587Y-47759868D01*
X151243579Y-47759870D01*
X151052403Y-47839058D01*
X150880342Y-47954024D01*
X150734024Y-48100342D01*
X150619058Y-48272403D01*
X150539870Y-48463579D01*
X150539868Y-48463587D01*
X150499500Y-48666530D01*
X150060499Y-48666530D01*
X150020130Y-48463580D01*
X149940941Y-48272402D01*
X149825977Y-48100345D01*
X149825975Y-48100342D01*
X149679657Y-47954024D01*
X149511655Y-47841770D01*
X149507598Y-47839059D01*
X149483784Y-47829195D01*
X149316420Y-47759870D01*
X149316412Y-47759868D01*
X149113469Y-47719500D01*
X149113465Y-47719500D01*
X148906535Y-47719500D01*
X148906530Y-47719500D01*
X148703587Y-47759868D01*
X148703579Y-47759870D01*
X148512403Y-47839058D01*
X148340342Y-47954024D01*
X148194024Y-48100342D01*
X148079058Y-48272403D01*
X147999870Y-48463579D01*
X147999868Y-48463587D01*
X147959500Y-48666530D01*
X147520499Y-48666530D01*
X147480130Y-48463580D01*
X147400941Y-48272402D01*
X147285977Y-48100345D01*
X147285975Y-48100342D01*
X147139657Y-47954024D01*
X146971655Y-47841770D01*
X146967598Y-47839059D01*
X146943784Y-47829195D01*
X146776420Y-47759870D01*
X146776412Y-47759868D01*
X146573469Y-47719500D01*
X146573465Y-47719500D01*
X146366535Y-47719500D01*
X146366530Y-47719500D01*
X146163587Y-47759868D01*
X146163579Y-47759870D01*
X145972403Y-47839058D01*
X145800342Y-47954024D01*
X145654024Y-48100342D01*
X145539058Y-48272403D01*
X145459870Y-48463579D01*
X145459868Y-48463587D01*
X145419500Y-48666530D01*
X144980499Y-48666530D01*
X144940130Y-48463580D01*
X144860941Y-48272402D01*
X144745977Y-48100345D01*
X144745975Y-48100342D01*
X144599657Y-47954024D01*
X144431655Y-47841770D01*
X144427598Y-47839059D01*
X144403784Y-47829195D01*
X144236420Y-47759870D01*
X144236412Y-47759868D01*
X144033469Y-47719500D01*
X144033465Y-47719500D01*
X143826535Y-47719500D01*
X143826530Y-47719500D01*
X143623587Y-47759868D01*
X143623579Y-47759870D01*
X143432403Y-47839058D01*
X143260342Y-47954024D01*
X143114024Y-48100342D01*
X142999058Y-48272403D01*
X142919870Y-48463579D01*
X142919868Y-48463587D01*
X142879500Y-48666530D01*
X142440499Y-48666530D01*
X142400130Y-48463580D01*
X142320941Y-48272402D01*
X142205977Y-48100345D01*
X142205975Y-48100342D01*
X142059657Y-47954024D01*
X141891655Y-47841770D01*
X141887598Y-47839059D01*
X141863784Y-47829195D01*
X141696420Y-47759870D01*
X141696412Y-47759868D01*
X141493469Y-47719500D01*
X141493465Y-47719500D01*
X141286535Y-47719500D01*
X141286530Y-47719500D01*
X141083587Y-47759868D01*
X141083579Y-47759870D01*
X140892403Y-47839058D01*
X140720342Y-47954024D01*
X140574024Y-48100342D01*
X140459058Y-48272403D01*
X140379870Y-48463579D01*
X140379868Y-48463587D01*
X140339500Y-48666530D01*
X139339913Y-48666530D01*
X139315925Y-48577007D01*
X139283012Y-48520000D01*
X139924115Y-48520000D01*
X139924115Y-48519999D01*
X139922914Y-48512415D01*
X139869408Y-48347744D01*
X139790804Y-48193475D01*
X139689032Y-48053397D01*
X139566602Y-47930967D01*
X139426524Y-47829195D01*
X139272257Y-47750591D01*
X139107589Y-47697087D01*
X139107581Y-47697085D01*
X139100000Y-47695884D01*
X139100000Y-48336988D01*
X139042993Y-48304075D01*
X138915826Y-48270000D01*
X138784174Y-48270000D01*
X138657007Y-48304075D01*
X138600000Y-48336988D01*
X138600000Y-47695884D01*
X138599999Y-47695884D01*
X138592418Y-47697085D01*
X138592410Y-47697087D01*
X138427742Y-47750591D01*
X138273475Y-47829195D01*
X138133397Y-47930967D01*
X138010967Y-48053397D01*
X137909195Y-48193475D01*
X137830591Y-48347744D01*
X137777085Y-48512415D01*
X137775884Y-48519999D01*
X137331352Y-48519999D01*
X137320130Y-48463580D01*
X137240941Y-48272402D01*
X137125977Y-48100345D01*
X137125975Y-48100342D01*
X136979657Y-47954024D01*
X136811655Y-47841770D01*
X136807598Y-47839059D01*
X136783784Y-47829195D01*
X136616420Y-47759870D01*
X136616412Y-47759868D01*
X136413469Y-47719500D01*
X136413465Y-47719500D01*
X136206535Y-47719500D01*
X136206530Y-47719500D01*
X136003587Y-47759868D01*
X136003579Y-47759870D01*
X135812403Y-47839058D01*
X135640342Y-47954024D01*
X135494024Y-48100342D01*
X135379058Y-48272403D01*
X135299870Y-48463579D01*
X135299868Y-48463587D01*
X135259500Y-48666530D01*
X134820499Y-48666530D01*
X134780130Y-48463580D01*
X134700941Y-48272402D01*
X134585977Y-48100345D01*
X134585975Y-48100342D01*
X134439657Y-47954024D01*
X134271655Y-47841770D01*
X134267598Y-47839059D01*
X134243784Y-47829195D01*
X134076420Y-47759870D01*
X134076412Y-47759868D01*
X133873469Y-47719500D01*
X133873465Y-47719500D01*
X133666535Y-47719500D01*
X133666530Y-47719500D01*
X133463587Y-47759868D01*
X133463579Y-47759870D01*
X133272403Y-47839058D01*
X133100342Y-47954024D01*
X132954024Y-48100342D01*
X132839058Y-48272403D01*
X132759870Y-48463579D01*
X132759868Y-48463587D01*
X132719500Y-48666530D01*
X132280499Y-48666530D01*
X132240130Y-48463580D01*
X132160941Y-48272402D01*
X132045977Y-48100345D01*
X132045975Y-48100342D01*
X131899657Y-47954024D01*
X131731655Y-47841770D01*
X131727598Y-47839059D01*
X131703784Y-47829195D01*
X131536420Y-47759870D01*
X131536412Y-47759868D01*
X131333469Y-47719500D01*
X131333465Y-47719500D01*
X131126535Y-47719500D01*
X131126530Y-47719500D01*
X130923587Y-47759868D01*
X130923579Y-47759870D01*
X130732403Y-47839058D01*
X130560342Y-47954024D01*
X130414024Y-48100342D01*
X130299058Y-48272403D01*
X130219870Y-48463579D01*
X130219868Y-48463587D01*
X130179500Y-48666530D01*
X129740499Y-48666530D01*
X129700130Y-48463580D01*
X129620941Y-48272402D01*
X129505977Y-48100345D01*
X129505975Y-48100342D01*
X129359657Y-47954024D01*
X129191655Y-47841770D01*
X129187598Y-47839059D01*
X129163784Y-47829195D01*
X128996420Y-47759870D01*
X128996412Y-47759868D01*
X128793469Y-47719500D01*
X128793465Y-47719500D01*
X128586535Y-47719500D01*
X128586530Y-47719500D01*
X128383587Y-47759868D01*
X128383579Y-47759870D01*
X128192403Y-47839058D01*
X128020342Y-47954024D01*
X127874024Y-48100342D01*
X127759058Y-48272403D01*
X127679870Y-48463579D01*
X127679868Y-48463587D01*
X127639500Y-48666530D01*
X127200499Y-48666530D01*
X127160130Y-48463580D01*
X127080941Y-48272402D01*
X126965977Y-48100345D01*
X126965975Y-48100342D01*
X126819657Y-47954024D01*
X126651655Y-47841770D01*
X126647598Y-47839059D01*
X126623784Y-47829195D01*
X126456420Y-47759870D01*
X126456412Y-47759868D01*
X126253469Y-47719500D01*
X126253465Y-47719500D01*
X126046535Y-47719500D01*
X126046530Y-47719500D01*
X125843587Y-47759868D01*
X125843579Y-47759870D01*
X125652403Y-47839058D01*
X125480342Y-47954024D01*
X125334024Y-48100342D01*
X125219058Y-48272403D01*
X125139870Y-48463579D01*
X125139868Y-48463587D01*
X125099500Y-48666530D01*
X124660499Y-48666530D01*
X124620130Y-48463580D01*
X124540941Y-48272402D01*
X124425977Y-48100345D01*
X124425975Y-48100342D01*
X124279657Y-47954024D01*
X124111655Y-47841770D01*
X124107598Y-47839059D01*
X124083784Y-47829195D01*
X123916420Y-47759870D01*
X123916412Y-47759868D01*
X123713469Y-47719500D01*
X123713465Y-47719500D01*
X123506535Y-47719500D01*
X123506530Y-47719500D01*
X123303587Y-47759868D01*
X123303579Y-47759870D01*
X123112403Y-47839058D01*
X122940342Y-47954024D01*
X122794024Y-48100342D01*
X122679058Y-48272403D01*
X122599870Y-48463579D01*
X122599868Y-48463587D01*
X122559500Y-48666530D01*
X122120499Y-48666530D01*
X122080130Y-48463580D01*
X122000941Y-48272402D01*
X121885977Y-48100345D01*
X121885975Y-48100342D01*
X121739657Y-47954024D01*
X121571655Y-47841770D01*
X121567598Y-47839059D01*
X121543784Y-47829195D01*
X121376420Y-47759870D01*
X121376412Y-47759868D01*
X121173469Y-47719500D01*
X121173465Y-47719500D01*
X120966535Y-47719500D01*
X120966530Y-47719500D01*
X120763587Y-47759868D01*
X120763579Y-47759870D01*
X120572403Y-47839058D01*
X120400342Y-47954024D01*
X120254024Y-48100342D01*
X120139058Y-48272403D01*
X120059870Y-48463579D01*
X120059868Y-48463587D01*
X120019500Y-48666530D01*
X119019913Y-48666530D01*
X118995925Y-48577007D01*
X118963012Y-48520000D01*
X119604115Y-48520000D01*
X119604115Y-48519999D01*
X119602914Y-48512415D01*
X119549408Y-48347744D01*
X119470804Y-48193475D01*
X119369032Y-48053397D01*
X119246602Y-47930967D01*
X119106524Y-47829195D01*
X118952257Y-47750591D01*
X118787589Y-47697087D01*
X118787581Y-47697085D01*
X118780000Y-47695884D01*
X118780000Y-48336988D01*
X118722993Y-48304075D01*
X118595826Y-48270000D01*
X118464174Y-48270000D01*
X118337007Y-48304075D01*
X118280000Y-48336988D01*
X118280000Y-47695884D01*
X118279999Y-47695884D01*
X118272418Y-47697085D01*
X118272410Y-47697087D01*
X118107742Y-47750591D01*
X117953475Y-47829195D01*
X117813397Y-47930967D01*
X117690967Y-48053397D01*
X117589195Y-48193475D01*
X117510591Y-48347744D01*
X117457085Y-48512415D01*
X117455884Y-48519999D01*
X117011352Y-48519999D01*
X117000130Y-48463580D01*
X116920941Y-48272402D01*
X116805977Y-48100345D01*
X116805975Y-48100342D01*
X116659657Y-47954024D01*
X116491655Y-47841770D01*
X116487598Y-47839059D01*
X116463784Y-47829195D01*
X116296420Y-47759870D01*
X116296412Y-47759868D01*
X116093469Y-47719500D01*
X116093465Y-47719500D01*
X115886535Y-47719500D01*
X115886530Y-47719500D01*
X115683587Y-47759868D01*
X115683579Y-47759870D01*
X115492403Y-47839058D01*
X115320342Y-47954024D01*
X115174024Y-48100342D01*
X115059058Y-48272403D01*
X114979870Y-48463579D01*
X114979868Y-48463587D01*
X114939500Y-48666530D01*
X114500499Y-48666530D01*
X114460130Y-48463580D01*
X114380941Y-48272402D01*
X114265977Y-48100345D01*
X114265975Y-48100342D01*
X114119657Y-47954024D01*
X113951655Y-47841770D01*
X113947598Y-47839059D01*
X113923784Y-47829195D01*
X113756420Y-47759870D01*
X113756412Y-47759868D01*
X113553469Y-47719500D01*
X113553465Y-47719500D01*
X113346535Y-47719500D01*
X113346530Y-47719500D01*
X113143587Y-47759868D01*
X113143579Y-47759870D01*
X112952403Y-47839058D01*
X112780342Y-47954024D01*
X112634024Y-48100342D01*
X112519058Y-48272403D01*
X112439870Y-48463579D01*
X112439868Y-48463587D01*
X112399500Y-48666530D01*
X111960499Y-48666530D01*
X111920130Y-48463580D01*
X111840941Y-48272402D01*
X111725977Y-48100345D01*
X111725975Y-48100342D01*
X111579657Y-47954024D01*
X111411655Y-47841770D01*
X111407598Y-47839059D01*
X111383784Y-47829195D01*
X111216420Y-47759870D01*
X111216412Y-47759868D01*
X111013469Y-47719500D01*
X111013465Y-47719500D01*
X110806535Y-47719500D01*
X110806530Y-47719500D01*
X110603587Y-47759868D01*
X110603579Y-47759870D01*
X110412403Y-47839058D01*
X110240342Y-47954024D01*
X110094024Y-48100342D01*
X109979058Y-48272403D01*
X109899870Y-48463579D01*
X109899868Y-48463587D01*
X109859500Y-48666530D01*
X109420500Y-48666530D01*
X109420500Y-47900249D01*
X109420499Y-47900247D01*
X109408868Y-47841770D01*
X109408867Y-47841769D01*
X109364552Y-47775447D01*
X109298230Y-47731132D01*
X109298229Y-47731131D01*
X109239752Y-47719500D01*
X109239748Y-47719500D01*
X107610519Y-47719500D01*
X107543480Y-47699815D01*
X107497725Y-47647011D01*
X107487781Y-47577853D01*
X107516806Y-47514297D01*
X107522838Y-47507819D01*
X107656619Y-47374038D01*
X159899500Y-47374038D01*
X159899500Y-47625962D01*
X159931689Y-47829195D01*
X159938910Y-47874785D01*
X160016760Y-48114383D01*
X160131132Y-48338848D01*
X160279201Y-48542649D01*
X160279205Y-48542654D01*
X160457345Y-48720794D01*
X160457350Y-48720798D01*
X160615674Y-48835826D01*
X160661155Y-48868870D01*
X160804184Y-48941747D01*
X160885616Y-48983239D01*
X160885618Y-48983239D01*
X160885621Y-48983241D01*
X161125215Y-49061090D01*
X161374038Y-49100500D01*
X161374039Y-49100500D01*
X161625961Y-49100500D01*
X161625962Y-49100500D01*
X161874785Y-49061090D01*
X162114379Y-48983241D01*
X162338845Y-48868870D01*
X162542656Y-48720793D01*
X162720793Y-48542656D01*
X162868870Y-48338845D01*
X162983241Y-48114379D01*
X163061090Y-47874785D01*
X163100500Y-47625962D01*
X163100500Y-47374038D01*
X163061090Y-47125215D01*
X162983241Y-46885621D01*
X162983239Y-46885618D01*
X162983239Y-46885616D01*
X162902723Y-46727596D01*
X162868870Y-46661155D01*
X162846307Y-46630099D01*
X162720798Y-46457350D01*
X162720794Y-46457345D01*
X162542654Y-46279205D01*
X162542649Y-46279201D01*
X162338848Y-46131132D01*
X162338847Y-46131131D01*
X162338845Y-46131130D01*
X162268747Y-46095413D01*
X162114383Y-46016760D01*
X161874785Y-45938910D01*
X161777996Y-45923580D01*
X161625962Y-45899500D01*
X161374038Y-45899500D01*
X161249626Y-45919205D01*
X161125214Y-45938910D01*
X160885616Y-46016760D01*
X160661151Y-46131132D01*
X160457350Y-46279201D01*
X160457345Y-46279205D01*
X160279205Y-46457345D01*
X160279201Y-46457350D01*
X160131132Y-46661151D01*
X160016760Y-46885616D01*
X159938910Y-47125214D01*
X159922049Y-47231672D01*
X159899500Y-47374038D01*
X107656619Y-47374038D01*
X107811915Y-47218741D01*
X107873238Y-47185256D01*
X107942929Y-47190240D01*
X107947049Y-47191861D01*
X108063580Y-47240130D01*
X108266530Y-47280499D01*
X108266534Y-47280500D01*
X108266535Y-47280500D01*
X108473466Y-47280500D01*
X108473467Y-47280499D01*
X108676420Y-47240130D01*
X108867598Y-47160941D01*
X109039655Y-47045977D01*
X109118814Y-46966817D01*
X109180135Y-46933334D01*
X109206494Y-46930500D01*
X110073506Y-46930500D01*
X110140545Y-46950185D01*
X110161182Y-46966814D01*
X110240345Y-47045977D01*
X110412402Y-47160941D01*
X110603580Y-47240130D01*
X110806530Y-47280499D01*
X110806534Y-47280500D01*
X110806535Y-47280500D01*
X111013466Y-47280500D01*
X111013467Y-47280499D01*
X111216420Y-47240130D01*
X111407598Y-47160941D01*
X111579655Y-47045977D01*
X111725977Y-46899655D01*
X111840941Y-46727598D01*
X111920130Y-46536420D01*
X111935859Y-46457344D01*
X111943532Y-46418773D01*
X111943537Y-46418745D01*
X111960499Y-46333469D01*
X111960500Y-46333465D01*
X111960500Y-46126535D01*
X111938664Y-46016759D01*
X111931352Y-45979999D01*
X112375884Y-45979999D01*
X112375885Y-45980000D01*
X113016988Y-45980000D01*
X112984075Y-46037007D01*
X112950000Y-46164174D01*
X112950000Y-46295826D01*
X112984075Y-46422993D01*
X113016988Y-46480000D01*
X112375885Y-46480000D01*
X112377085Y-46487584D01*
X112430591Y-46652255D01*
X112509195Y-46806524D01*
X112610967Y-46946602D01*
X112733397Y-47069032D01*
X112873475Y-47170804D01*
X113027744Y-47249408D01*
X113192415Y-47302914D01*
X113192414Y-47302914D01*
X113199999Y-47304115D01*
X113200000Y-47304114D01*
X113200000Y-46663012D01*
X113257007Y-46695925D01*
X113384174Y-46730000D01*
X113515826Y-46730000D01*
X113642993Y-46695925D01*
X113700000Y-46663012D01*
X113700000Y-47304115D01*
X113707584Y-47302914D01*
X113872255Y-47249408D01*
X114026524Y-47170804D01*
X114166602Y-47069032D01*
X114289032Y-46946602D01*
X114390804Y-46806524D01*
X114469408Y-46652255D01*
X114522914Y-46487584D01*
X114524115Y-46480000D01*
X113883012Y-46480000D01*
X113915925Y-46422993D01*
X113950000Y-46295826D01*
X113950000Y-46164174D01*
X113939913Y-46126530D01*
X114939500Y-46126530D01*
X114939500Y-46333469D01*
X114979868Y-46536412D01*
X114979870Y-46536420D01*
X115059058Y-46727596D01*
X115174024Y-46899657D01*
X115320342Y-47045975D01*
X115320345Y-47045977D01*
X115492402Y-47160941D01*
X115683580Y-47240130D01*
X115886530Y-47280499D01*
X115886534Y-47280500D01*
X115886535Y-47280500D01*
X116093466Y-47280500D01*
X116093467Y-47280499D01*
X116296420Y-47240130D01*
X116487598Y-47160941D01*
X116659655Y-47045977D01*
X116805977Y-46899655D01*
X116920941Y-46727598D01*
X117000130Y-46536420D01*
X117040500Y-46333465D01*
X117040500Y-46126535D01*
X117040499Y-46126530D01*
X117479500Y-46126530D01*
X117479500Y-46333469D01*
X117519868Y-46536412D01*
X117519870Y-46536420D01*
X117599058Y-46727596D01*
X117714024Y-46899657D01*
X117860342Y-47045975D01*
X117860345Y-47045977D01*
X118032402Y-47160941D01*
X118223580Y-47240130D01*
X118426530Y-47280499D01*
X118426534Y-47280500D01*
X118426535Y-47280500D01*
X118633466Y-47280500D01*
X118633467Y-47280499D01*
X118836420Y-47240130D01*
X119027598Y-47160941D01*
X119199655Y-47045977D01*
X119345977Y-46899655D01*
X119460941Y-46727598D01*
X119540130Y-46536420D01*
X119580500Y-46333465D01*
X119580500Y-46126535D01*
X119580499Y-46126530D01*
X120019500Y-46126530D01*
X120019500Y-46333469D01*
X120059868Y-46536412D01*
X120059870Y-46536420D01*
X120139058Y-46727596D01*
X120254024Y-46899657D01*
X120400342Y-47045975D01*
X120400345Y-47045977D01*
X120572402Y-47160941D01*
X120763580Y-47240130D01*
X120966530Y-47280499D01*
X120966534Y-47280500D01*
X120966535Y-47280500D01*
X121173466Y-47280500D01*
X121173467Y-47280499D01*
X121376420Y-47240130D01*
X121567598Y-47160941D01*
X121739655Y-47045977D01*
X121885977Y-46899655D01*
X122000941Y-46727598D01*
X122080130Y-46536420D01*
X122095859Y-46457344D01*
X122103532Y-46418773D01*
X122103537Y-46418745D01*
X122120499Y-46333469D01*
X122120500Y-46333465D01*
X122120500Y-46126535D01*
X122098664Y-46016759D01*
X122091352Y-45979999D01*
X122535884Y-45979999D01*
X122535885Y-45980000D01*
X123176988Y-45980000D01*
X123144075Y-46037007D01*
X123110000Y-46164174D01*
X123110000Y-46295826D01*
X123144075Y-46422993D01*
X123176988Y-46480000D01*
X122535885Y-46480000D01*
X122537085Y-46487584D01*
X122590591Y-46652255D01*
X122669195Y-46806524D01*
X122770967Y-46946602D01*
X122893397Y-47069032D01*
X123033475Y-47170804D01*
X123187744Y-47249408D01*
X123352415Y-47302914D01*
X123352414Y-47302914D01*
X123359999Y-47304115D01*
X123360000Y-47304114D01*
X123360000Y-46663012D01*
X123417007Y-46695925D01*
X123544174Y-46730000D01*
X123675826Y-46730000D01*
X123802993Y-46695925D01*
X123860000Y-46663012D01*
X123860000Y-47304115D01*
X123867584Y-47302914D01*
X124032255Y-47249408D01*
X124186524Y-47170804D01*
X124326602Y-47069032D01*
X124449032Y-46946602D01*
X124550804Y-46806524D01*
X124629408Y-46652255D01*
X124682914Y-46487584D01*
X124684115Y-46480000D01*
X124043012Y-46480000D01*
X124075925Y-46422993D01*
X124110000Y-46295826D01*
X124110000Y-46164174D01*
X124099913Y-46126530D01*
X125099500Y-46126530D01*
X125099500Y-46333469D01*
X125139868Y-46536412D01*
X125139870Y-46536420D01*
X125219058Y-46727596D01*
X125334024Y-46899657D01*
X125480342Y-47045975D01*
X125480345Y-47045977D01*
X125652402Y-47160941D01*
X125843580Y-47240130D01*
X126046530Y-47280499D01*
X126046534Y-47280500D01*
X126046535Y-47280500D01*
X126253466Y-47280500D01*
X126253467Y-47280499D01*
X126456420Y-47240130D01*
X126647598Y-47160941D01*
X126819655Y-47045977D01*
X126965977Y-46899655D01*
X127080941Y-46727598D01*
X127160130Y-46536420D01*
X127200500Y-46333465D01*
X127200500Y-46126535D01*
X127200499Y-46126530D01*
X127639500Y-46126530D01*
X127639500Y-46333469D01*
X127679868Y-46536412D01*
X127679870Y-46536420D01*
X127759058Y-46727596D01*
X127874024Y-46899657D01*
X128020342Y-47045975D01*
X128020345Y-47045977D01*
X128192402Y-47160941D01*
X128383580Y-47240130D01*
X128586530Y-47280499D01*
X128586534Y-47280500D01*
X128586535Y-47280500D01*
X128793466Y-47280500D01*
X128793467Y-47280499D01*
X128996420Y-47240130D01*
X129187598Y-47160941D01*
X129359655Y-47045977D01*
X129505977Y-46899655D01*
X129620941Y-46727598D01*
X129700130Y-46536420D01*
X129715859Y-46457344D01*
X129723532Y-46418773D01*
X129723537Y-46418745D01*
X129740499Y-46333469D01*
X129740500Y-46333465D01*
X129740500Y-46126535D01*
X129718664Y-46016759D01*
X129711352Y-45979999D01*
X130155884Y-45979999D01*
X130155885Y-45980000D01*
X130796988Y-45980000D01*
X130764075Y-46037007D01*
X130730000Y-46164174D01*
X130730000Y-46295826D01*
X130764075Y-46422993D01*
X130796988Y-46480000D01*
X130155885Y-46480000D01*
X130157085Y-46487584D01*
X130210591Y-46652255D01*
X130289195Y-46806524D01*
X130390967Y-46946602D01*
X130513397Y-47069032D01*
X130653475Y-47170804D01*
X130807744Y-47249408D01*
X130972415Y-47302914D01*
X130972414Y-47302914D01*
X130979999Y-47304115D01*
X130980000Y-47304114D01*
X130980000Y-46663012D01*
X131037007Y-46695925D01*
X131164174Y-46730000D01*
X131295826Y-46730000D01*
X131422993Y-46695925D01*
X131480000Y-46663012D01*
X131480000Y-47304115D01*
X131487584Y-47302914D01*
X131652255Y-47249408D01*
X131806524Y-47170804D01*
X131946602Y-47069032D01*
X132069032Y-46946602D01*
X132170804Y-46806524D01*
X132249408Y-46652255D01*
X132302914Y-46487584D01*
X132304115Y-46480000D01*
X131663012Y-46480000D01*
X131695925Y-46422993D01*
X131730000Y-46295826D01*
X131730000Y-46164174D01*
X131719913Y-46126530D01*
X132719500Y-46126530D01*
X132719500Y-46333469D01*
X132759868Y-46536412D01*
X132759870Y-46536420D01*
X132839058Y-46727596D01*
X132954024Y-46899657D01*
X133100342Y-47045975D01*
X133100345Y-47045977D01*
X133272402Y-47160941D01*
X133463580Y-47240130D01*
X133666530Y-47280499D01*
X133666534Y-47280500D01*
X133666535Y-47280500D01*
X133873466Y-47280500D01*
X133873467Y-47280499D01*
X134076420Y-47240130D01*
X134267598Y-47160941D01*
X134439655Y-47045977D01*
X134585977Y-46899655D01*
X134700941Y-46727598D01*
X134780130Y-46536420D01*
X134820500Y-46333465D01*
X134820500Y-46126535D01*
X134820499Y-46126530D01*
X135259500Y-46126530D01*
X135259500Y-46333469D01*
X135299868Y-46536412D01*
X135299870Y-46536420D01*
X135379058Y-46727596D01*
X135494024Y-46899657D01*
X135640342Y-47045975D01*
X135640345Y-47045977D01*
X135812402Y-47160941D01*
X136003580Y-47240130D01*
X136206530Y-47280499D01*
X136206534Y-47280500D01*
X136206535Y-47280500D01*
X136413466Y-47280500D01*
X136413467Y-47280499D01*
X136616420Y-47240130D01*
X136807598Y-47160941D01*
X136979655Y-47045977D01*
X137125977Y-46899655D01*
X137240941Y-46727598D01*
X137320130Y-46536420D01*
X137360500Y-46333465D01*
X137360500Y-46126535D01*
X137360499Y-46126530D01*
X137799500Y-46126530D01*
X137799500Y-46333469D01*
X137839868Y-46536412D01*
X137839870Y-46536420D01*
X137919058Y-46727596D01*
X138034024Y-46899657D01*
X138180342Y-47045975D01*
X138180345Y-47045977D01*
X138352402Y-47160941D01*
X138543580Y-47240130D01*
X138746530Y-47280499D01*
X138746534Y-47280500D01*
X138746535Y-47280500D01*
X138953466Y-47280500D01*
X138953467Y-47280499D01*
X139156420Y-47240130D01*
X139347598Y-47160941D01*
X139519655Y-47045977D01*
X139665977Y-46899655D01*
X139780941Y-46727598D01*
X139860130Y-46536420D01*
X139900500Y-46333465D01*
X139900500Y-46126535D01*
X139900499Y-46126530D01*
X140339500Y-46126530D01*
X140339500Y-46333469D01*
X140379868Y-46536412D01*
X140379870Y-46536420D01*
X140459058Y-46727596D01*
X140574024Y-46899657D01*
X140720342Y-47045975D01*
X140720345Y-47045977D01*
X140892402Y-47160941D01*
X141083580Y-47240130D01*
X141286530Y-47280499D01*
X141286534Y-47280500D01*
X141286535Y-47280500D01*
X141493466Y-47280500D01*
X141493467Y-47280499D01*
X141696420Y-47240130D01*
X141887598Y-47160941D01*
X142059655Y-47045977D01*
X142205977Y-46899655D01*
X142320941Y-46727598D01*
X142400130Y-46536420D01*
X142415859Y-46457344D01*
X142423532Y-46418773D01*
X142423537Y-46418745D01*
X142440499Y-46333469D01*
X142440500Y-46333465D01*
X142440500Y-46126535D01*
X142418664Y-46016759D01*
X142411352Y-45979999D01*
X142855884Y-45979999D01*
X142855885Y-45980000D01*
X143496988Y-45980000D01*
X143464075Y-46037007D01*
X143430000Y-46164174D01*
X143430000Y-46295826D01*
X143464075Y-46422993D01*
X143496988Y-46480000D01*
X142855885Y-46480000D01*
X142857085Y-46487584D01*
X142910591Y-46652255D01*
X142989195Y-46806524D01*
X143090967Y-46946602D01*
X143213397Y-47069032D01*
X143353475Y-47170804D01*
X143507744Y-47249408D01*
X143672415Y-47302914D01*
X143672414Y-47302914D01*
X143679999Y-47304115D01*
X143680000Y-47304114D01*
X143680000Y-46663012D01*
X143737007Y-46695925D01*
X143864174Y-46730000D01*
X143995826Y-46730000D01*
X144122993Y-46695925D01*
X144180000Y-46663012D01*
X144180000Y-47304115D01*
X144187584Y-47302914D01*
X144352255Y-47249408D01*
X144506524Y-47170804D01*
X144646602Y-47069032D01*
X144769032Y-46946602D01*
X144870804Y-46806524D01*
X144949408Y-46652255D01*
X145002914Y-46487584D01*
X145004115Y-46480000D01*
X144363012Y-46480000D01*
X144395925Y-46422993D01*
X144430000Y-46295826D01*
X144430000Y-46164174D01*
X144419913Y-46126530D01*
X145419500Y-46126530D01*
X145419500Y-46333469D01*
X145459868Y-46536412D01*
X145459870Y-46536420D01*
X145539058Y-46727596D01*
X145654024Y-46899657D01*
X145800342Y-47045975D01*
X145800345Y-47045977D01*
X145972402Y-47160941D01*
X146163580Y-47240130D01*
X146366530Y-47280499D01*
X146366534Y-47280500D01*
X146366535Y-47280500D01*
X146573466Y-47280500D01*
X146573467Y-47280499D01*
X146776420Y-47240130D01*
X146967598Y-47160941D01*
X147139655Y-47045977D01*
X147285977Y-46899655D01*
X147400941Y-46727598D01*
X147480130Y-46536420D01*
X147495859Y-46457344D01*
X147503532Y-46418773D01*
X147503537Y-46418745D01*
X147520499Y-46333469D01*
X147520500Y-46333465D01*
X147520500Y-46126535D01*
X147498664Y-46016759D01*
X147491352Y-45979999D01*
X147935884Y-45979999D01*
X147935885Y-45980000D01*
X148576988Y-45980000D01*
X148544075Y-46037007D01*
X148510000Y-46164174D01*
X148510000Y-46295826D01*
X148544075Y-46422993D01*
X148576988Y-46480000D01*
X147935885Y-46480000D01*
X147937085Y-46487584D01*
X147990591Y-46652255D01*
X148069195Y-46806524D01*
X148170967Y-46946602D01*
X148293397Y-47069032D01*
X148433475Y-47170804D01*
X148587744Y-47249408D01*
X148752415Y-47302914D01*
X148752414Y-47302914D01*
X148759999Y-47304115D01*
X148760000Y-47304114D01*
X148760000Y-46663012D01*
X148817007Y-46695925D01*
X148944174Y-46730000D01*
X149075826Y-46730000D01*
X149202993Y-46695925D01*
X149260000Y-46663012D01*
X149260000Y-47304115D01*
X149267584Y-47302914D01*
X149432255Y-47249408D01*
X149586524Y-47170804D01*
X149726602Y-47069032D01*
X149849032Y-46946602D01*
X149950804Y-46806524D01*
X150029408Y-46652255D01*
X150082914Y-46487584D01*
X150084115Y-46480000D01*
X149443012Y-46480000D01*
X149475925Y-46422993D01*
X149510000Y-46295826D01*
X149510000Y-46164174D01*
X149499913Y-46126530D01*
X150499500Y-46126530D01*
X150499500Y-46333469D01*
X150539868Y-46536412D01*
X150539870Y-46536420D01*
X150619058Y-46727596D01*
X150734024Y-46899657D01*
X150880342Y-47045975D01*
X150880345Y-47045977D01*
X151052402Y-47160941D01*
X151243580Y-47240130D01*
X151446530Y-47280499D01*
X151446534Y-47280500D01*
X151446535Y-47280500D01*
X151653466Y-47280500D01*
X151653467Y-47280499D01*
X151856420Y-47240130D01*
X152047598Y-47160941D01*
X152219655Y-47045977D01*
X152365977Y-46899655D01*
X152480941Y-46727598D01*
X152560130Y-46536420D01*
X152600500Y-46333465D01*
X152600500Y-46126535D01*
X152600499Y-46126530D01*
X153039500Y-46126530D01*
X153039500Y-46333469D01*
X153079868Y-46536412D01*
X153079870Y-46536420D01*
X153159058Y-46727596D01*
X153274024Y-46899657D01*
X153420342Y-47045975D01*
X153420345Y-47045977D01*
X153592402Y-47160941D01*
X153783580Y-47240130D01*
X153986530Y-47280499D01*
X153986534Y-47280500D01*
X153986535Y-47280500D01*
X154193466Y-47280500D01*
X154193467Y-47280499D01*
X154396420Y-47240130D01*
X154587598Y-47160941D01*
X154759655Y-47045977D01*
X154905977Y-46899655D01*
X155020941Y-46727598D01*
X155100130Y-46536420D01*
X155140500Y-46333465D01*
X155140500Y-46126535D01*
X155140499Y-46126530D01*
X155579500Y-46126530D01*
X155579500Y-46333469D01*
X155619868Y-46536412D01*
X155619870Y-46536420D01*
X155699058Y-46727596D01*
X155814024Y-46899657D01*
X155960342Y-47045975D01*
X155960345Y-47045977D01*
X156132402Y-47160941D01*
X156323580Y-47240130D01*
X156526530Y-47280499D01*
X156526534Y-47280500D01*
X156526535Y-47280500D01*
X156733466Y-47280500D01*
X156733467Y-47280499D01*
X156788389Y-47269574D01*
X156899124Y-47247549D01*
X156914437Y-47244502D01*
X156936420Y-47240130D01*
X157127598Y-47160941D01*
X157299655Y-47045977D01*
X157445977Y-46899655D01*
X157560941Y-46727598D01*
X157640130Y-46536420D01*
X157680500Y-46333465D01*
X157680500Y-46126535D01*
X157640130Y-45923580D01*
X157560941Y-45732402D01*
X157445977Y-45560345D01*
X157445975Y-45560342D01*
X157299657Y-45414024D01*
X157154284Y-45316890D01*
X157127598Y-45299059D01*
X157103784Y-45289195D01*
X156936420Y-45219870D01*
X156936412Y-45219868D01*
X156733469Y-45179500D01*
X156733465Y-45179500D01*
X156526535Y-45179500D01*
X156526530Y-45179500D01*
X156323587Y-45219868D01*
X156323579Y-45219870D01*
X156132403Y-45299058D01*
X155960342Y-45414024D01*
X155814024Y-45560342D01*
X155699058Y-45732403D01*
X155619870Y-45923579D01*
X155619868Y-45923587D01*
X155579500Y-46126530D01*
X155140499Y-46126530D01*
X155100130Y-45923580D01*
X155020941Y-45732402D01*
X154905977Y-45560345D01*
X154905975Y-45560342D01*
X154759657Y-45414024D01*
X154614284Y-45316890D01*
X154587598Y-45299059D01*
X154563784Y-45289195D01*
X154396420Y-45219870D01*
X154396412Y-45219868D01*
X154193469Y-45179500D01*
X154193465Y-45179500D01*
X153986535Y-45179500D01*
X153986530Y-45179500D01*
X153783587Y-45219868D01*
X153783579Y-45219870D01*
X153592403Y-45299058D01*
X153420342Y-45414024D01*
X153274024Y-45560342D01*
X153159058Y-45732403D01*
X153079870Y-45923579D01*
X153079868Y-45923587D01*
X153039500Y-46126530D01*
X152600499Y-46126530D01*
X152560130Y-45923580D01*
X152480941Y-45732402D01*
X152365977Y-45560345D01*
X152365975Y-45560342D01*
X152219657Y-45414024D01*
X152074284Y-45316890D01*
X152047598Y-45299059D01*
X152023784Y-45289195D01*
X151856420Y-45219870D01*
X151856412Y-45219868D01*
X151653469Y-45179500D01*
X151653465Y-45179500D01*
X151446535Y-45179500D01*
X151446530Y-45179500D01*
X151243587Y-45219868D01*
X151243579Y-45219870D01*
X151052403Y-45299058D01*
X150880342Y-45414024D01*
X150734024Y-45560342D01*
X150619058Y-45732403D01*
X150539870Y-45923579D01*
X150539868Y-45923587D01*
X150499500Y-46126530D01*
X149499913Y-46126530D01*
X149475925Y-46037007D01*
X149443012Y-45980000D01*
X150084115Y-45980000D01*
X150084115Y-45979999D01*
X150082914Y-45972415D01*
X150029408Y-45807744D01*
X149950804Y-45653475D01*
X149849032Y-45513397D01*
X149726602Y-45390967D01*
X149586524Y-45289195D01*
X149432257Y-45210591D01*
X149267589Y-45157087D01*
X149267581Y-45157085D01*
X149260000Y-45155884D01*
X149260000Y-45796988D01*
X149202993Y-45764075D01*
X149075826Y-45730000D01*
X148944174Y-45730000D01*
X148817007Y-45764075D01*
X148760000Y-45796988D01*
X148760000Y-45155884D01*
X148759999Y-45155884D01*
X148752418Y-45157085D01*
X148752410Y-45157087D01*
X148587742Y-45210591D01*
X148433475Y-45289195D01*
X148293397Y-45390967D01*
X148170967Y-45513397D01*
X148069195Y-45653475D01*
X147990591Y-45807744D01*
X147937085Y-45972415D01*
X147935884Y-45979999D01*
X147491352Y-45979999D01*
X147480131Y-45923587D01*
X147480130Y-45923580D01*
X147400941Y-45732402D01*
X147285977Y-45560345D01*
X147285975Y-45560342D01*
X147139657Y-45414024D01*
X146994284Y-45316890D01*
X146967598Y-45299059D01*
X146943784Y-45289195D01*
X146776420Y-45219870D01*
X146776412Y-45219868D01*
X146573469Y-45179500D01*
X146573465Y-45179500D01*
X146366535Y-45179500D01*
X146366530Y-45179500D01*
X146163587Y-45219868D01*
X146163579Y-45219870D01*
X145972403Y-45299058D01*
X145800342Y-45414024D01*
X145654024Y-45560342D01*
X145539058Y-45732403D01*
X145459870Y-45923579D01*
X145459868Y-45923587D01*
X145419500Y-46126530D01*
X144419913Y-46126530D01*
X144395925Y-46037007D01*
X144363012Y-45980000D01*
X145004115Y-45980000D01*
X145004115Y-45979999D01*
X145002914Y-45972415D01*
X144949408Y-45807744D01*
X144870804Y-45653475D01*
X144769032Y-45513397D01*
X144646602Y-45390967D01*
X144506524Y-45289195D01*
X144352257Y-45210591D01*
X144187589Y-45157087D01*
X144187581Y-45157085D01*
X144180000Y-45155884D01*
X144180000Y-45796988D01*
X144122993Y-45764075D01*
X143995826Y-45730000D01*
X143864174Y-45730000D01*
X143737007Y-45764075D01*
X143680000Y-45796988D01*
X143680000Y-45155884D01*
X143679999Y-45155884D01*
X143672418Y-45157085D01*
X143672410Y-45157087D01*
X143507742Y-45210591D01*
X143353475Y-45289195D01*
X143213397Y-45390967D01*
X143090967Y-45513397D01*
X142989195Y-45653475D01*
X142910591Y-45807744D01*
X142857085Y-45972415D01*
X142855884Y-45979999D01*
X142411352Y-45979999D01*
X142400131Y-45923587D01*
X142400130Y-45923580D01*
X142320941Y-45732402D01*
X142205977Y-45560345D01*
X142205975Y-45560342D01*
X142059657Y-45414024D01*
X141914284Y-45316890D01*
X141887598Y-45299059D01*
X141863784Y-45289195D01*
X141696420Y-45219870D01*
X141696412Y-45219868D01*
X141493469Y-45179500D01*
X141493465Y-45179500D01*
X141286535Y-45179500D01*
X141286530Y-45179500D01*
X141083587Y-45219868D01*
X141083579Y-45219870D01*
X140892403Y-45299058D01*
X140720342Y-45414024D01*
X140574024Y-45560342D01*
X140459058Y-45732403D01*
X140379870Y-45923579D01*
X140379868Y-45923587D01*
X140339500Y-46126530D01*
X139900499Y-46126530D01*
X139860130Y-45923580D01*
X139780941Y-45732402D01*
X139665977Y-45560345D01*
X139665975Y-45560342D01*
X139519657Y-45414024D01*
X139374284Y-45316890D01*
X139347598Y-45299059D01*
X139323784Y-45289195D01*
X139156420Y-45219870D01*
X139156412Y-45219868D01*
X138953469Y-45179500D01*
X138953465Y-45179500D01*
X138746535Y-45179500D01*
X138746530Y-45179500D01*
X138543587Y-45219868D01*
X138543579Y-45219870D01*
X138352403Y-45299058D01*
X138180342Y-45414024D01*
X138034024Y-45560342D01*
X137919058Y-45732403D01*
X137839870Y-45923579D01*
X137839868Y-45923587D01*
X137799500Y-46126530D01*
X137360499Y-46126530D01*
X137320130Y-45923580D01*
X137240941Y-45732402D01*
X137125977Y-45560345D01*
X137125975Y-45560342D01*
X136979657Y-45414024D01*
X136834284Y-45316890D01*
X136807598Y-45299059D01*
X136783784Y-45289195D01*
X136616420Y-45219870D01*
X136616412Y-45219868D01*
X136413469Y-45179500D01*
X136413465Y-45179500D01*
X136206535Y-45179500D01*
X136206530Y-45179500D01*
X136003587Y-45219868D01*
X136003579Y-45219870D01*
X135812403Y-45299058D01*
X135640342Y-45414024D01*
X135494024Y-45560342D01*
X135379058Y-45732403D01*
X135299870Y-45923579D01*
X135299868Y-45923587D01*
X135259500Y-46126530D01*
X134820499Y-46126530D01*
X134780130Y-45923580D01*
X134700941Y-45732402D01*
X134585977Y-45560345D01*
X134585975Y-45560342D01*
X134439657Y-45414024D01*
X134294284Y-45316890D01*
X134267598Y-45299059D01*
X134243784Y-45289195D01*
X134076420Y-45219870D01*
X134076412Y-45219868D01*
X133873469Y-45179500D01*
X133873465Y-45179500D01*
X133666535Y-45179500D01*
X133666530Y-45179500D01*
X133463587Y-45219868D01*
X133463579Y-45219870D01*
X133272403Y-45299058D01*
X133100342Y-45414024D01*
X132954024Y-45560342D01*
X132839058Y-45732403D01*
X132759870Y-45923579D01*
X132759868Y-45923587D01*
X132719500Y-46126530D01*
X131719913Y-46126530D01*
X131695925Y-46037007D01*
X131663012Y-45980000D01*
X132304115Y-45980000D01*
X132304115Y-45979999D01*
X132302914Y-45972415D01*
X132249408Y-45807744D01*
X132170804Y-45653475D01*
X132069032Y-45513397D01*
X131946602Y-45390967D01*
X131806524Y-45289195D01*
X131652257Y-45210591D01*
X131487589Y-45157087D01*
X131487581Y-45157085D01*
X131480000Y-45155884D01*
X131480000Y-45796988D01*
X131422993Y-45764075D01*
X131295826Y-45730000D01*
X131164174Y-45730000D01*
X131037007Y-45764075D01*
X130980000Y-45796988D01*
X130980000Y-45155884D01*
X130979999Y-45155884D01*
X130972418Y-45157085D01*
X130972410Y-45157087D01*
X130807742Y-45210591D01*
X130653475Y-45289195D01*
X130513397Y-45390967D01*
X130390967Y-45513397D01*
X130289195Y-45653475D01*
X130210591Y-45807744D01*
X130157085Y-45972415D01*
X130155884Y-45979999D01*
X129711352Y-45979999D01*
X129700131Y-45923587D01*
X129700130Y-45923580D01*
X129620941Y-45732402D01*
X129505977Y-45560345D01*
X129505975Y-45560342D01*
X129359657Y-45414024D01*
X129214284Y-45316890D01*
X129187598Y-45299059D01*
X129163784Y-45289195D01*
X128996420Y-45219870D01*
X128996412Y-45219868D01*
X128793469Y-45179500D01*
X128793465Y-45179500D01*
X128586535Y-45179500D01*
X128586530Y-45179500D01*
X128383587Y-45219868D01*
X128383579Y-45219870D01*
X128192403Y-45299058D01*
X128020342Y-45414024D01*
X127874024Y-45560342D01*
X127759058Y-45732403D01*
X127679870Y-45923579D01*
X127679868Y-45923587D01*
X127639500Y-46126530D01*
X127200499Y-46126530D01*
X127160130Y-45923580D01*
X127080941Y-45732402D01*
X126965977Y-45560345D01*
X126965975Y-45560342D01*
X126819657Y-45414024D01*
X126674284Y-45316890D01*
X126647598Y-45299059D01*
X126623784Y-45289195D01*
X126456420Y-45219870D01*
X126456412Y-45219868D01*
X126253469Y-45179500D01*
X126253465Y-45179500D01*
X126046535Y-45179500D01*
X126046530Y-45179500D01*
X125843587Y-45219868D01*
X125843579Y-45219870D01*
X125652403Y-45299058D01*
X125480342Y-45414024D01*
X125334024Y-45560342D01*
X125219058Y-45732403D01*
X125139870Y-45923579D01*
X125139868Y-45923587D01*
X125099500Y-46126530D01*
X124099913Y-46126530D01*
X124075925Y-46037007D01*
X124043012Y-45980000D01*
X124684115Y-45980000D01*
X124684115Y-45979999D01*
X124682914Y-45972415D01*
X124629408Y-45807744D01*
X124550804Y-45653475D01*
X124449032Y-45513397D01*
X124326602Y-45390967D01*
X124186524Y-45289195D01*
X124032257Y-45210591D01*
X123867589Y-45157087D01*
X123867581Y-45157085D01*
X123860000Y-45155884D01*
X123860000Y-45796988D01*
X123802993Y-45764075D01*
X123675826Y-45730000D01*
X123544174Y-45730000D01*
X123417007Y-45764075D01*
X123360000Y-45796988D01*
X123360000Y-45155884D01*
X123359999Y-45155884D01*
X123352418Y-45157085D01*
X123352410Y-45157087D01*
X123187742Y-45210591D01*
X123033475Y-45289195D01*
X122893397Y-45390967D01*
X122770967Y-45513397D01*
X122669195Y-45653475D01*
X122590591Y-45807744D01*
X122537085Y-45972415D01*
X122535884Y-45979999D01*
X122091352Y-45979999D01*
X122080131Y-45923587D01*
X122080130Y-45923580D01*
X122000941Y-45732402D01*
X121885977Y-45560345D01*
X121885975Y-45560342D01*
X121739657Y-45414024D01*
X121594284Y-45316890D01*
X121567598Y-45299059D01*
X121543784Y-45289195D01*
X121376420Y-45219870D01*
X121376412Y-45219868D01*
X121173469Y-45179500D01*
X121173465Y-45179500D01*
X120966535Y-45179500D01*
X120966530Y-45179500D01*
X120763587Y-45219868D01*
X120763579Y-45219870D01*
X120572403Y-45299058D01*
X120400342Y-45414024D01*
X120254024Y-45560342D01*
X120139058Y-45732403D01*
X120059870Y-45923579D01*
X120059868Y-45923587D01*
X120019500Y-46126530D01*
X119580499Y-46126530D01*
X119540130Y-45923580D01*
X119460941Y-45732402D01*
X119345977Y-45560345D01*
X119345975Y-45560342D01*
X119199657Y-45414024D01*
X119054284Y-45316890D01*
X119027598Y-45299059D01*
X119003784Y-45289195D01*
X118836420Y-45219870D01*
X118836412Y-45219868D01*
X118633469Y-45179500D01*
X118633465Y-45179500D01*
X118426535Y-45179500D01*
X118426530Y-45179500D01*
X118223587Y-45219868D01*
X118223579Y-45219870D01*
X118032403Y-45299058D01*
X117860342Y-45414024D01*
X117714024Y-45560342D01*
X117599058Y-45732403D01*
X117519870Y-45923579D01*
X117519868Y-45923587D01*
X117479500Y-46126530D01*
X117040499Y-46126530D01*
X117000130Y-45923580D01*
X116920941Y-45732402D01*
X116805977Y-45560345D01*
X116805975Y-45560342D01*
X116659657Y-45414024D01*
X116514284Y-45316890D01*
X116487598Y-45299059D01*
X116463784Y-45289195D01*
X116296420Y-45219870D01*
X116296412Y-45219868D01*
X116093469Y-45179500D01*
X116093465Y-45179500D01*
X115886535Y-45179500D01*
X115886530Y-45179500D01*
X115683587Y-45219868D01*
X115683579Y-45219870D01*
X115492403Y-45299058D01*
X115320342Y-45414024D01*
X115174024Y-45560342D01*
X115059058Y-45732403D01*
X114979870Y-45923579D01*
X114979868Y-45923587D01*
X114939500Y-46126530D01*
X113939913Y-46126530D01*
X113915925Y-46037007D01*
X113883012Y-45980000D01*
X114524115Y-45980000D01*
X114524115Y-45979999D01*
X114522914Y-45972415D01*
X114469408Y-45807744D01*
X114390804Y-45653475D01*
X114289032Y-45513397D01*
X114166602Y-45390967D01*
X114026524Y-45289195D01*
X113872257Y-45210591D01*
X113707589Y-45157087D01*
X113707581Y-45157085D01*
X113700000Y-45155884D01*
X113700000Y-45796988D01*
X113642993Y-45764075D01*
X113515826Y-45730000D01*
X113384174Y-45730000D01*
X113257007Y-45764075D01*
X113200000Y-45796988D01*
X113200000Y-45155884D01*
X113199999Y-45155884D01*
X113192418Y-45157085D01*
X113192410Y-45157087D01*
X113027742Y-45210591D01*
X112873475Y-45289195D01*
X112733397Y-45390967D01*
X112610967Y-45513397D01*
X112509195Y-45653475D01*
X112430591Y-45807744D01*
X112377085Y-45972415D01*
X112375884Y-45979999D01*
X111931352Y-45979999D01*
X111920131Y-45923587D01*
X111920130Y-45923580D01*
X111840941Y-45732402D01*
X111725977Y-45560345D01*
X111725975Y-45560342D01*
X111579657Y-45414024D01*
X111434284Y-45316890D01*
X111407598Y-45299059D01*
X111383784Y-45289195D01*
X111216420Y-45219870D01*
X111216412Y-45219868D01*
X111013469Y-45179500D01*
X111013465Y-45179500D01*
X110806535Y-45179500D01*
X110806530Y-45179500D01*
X110603587Y-45219868D01*
X110603579Y-45219870D01*
X110412403Y-45299058D01*
X110377224Y-45322564D01*
X110240345Y-45414023D01*
X110161185Y-45493182D01*
X110099865Y-45526666D01*
X110073506Y-45529500D01*
X109206494Y-45529500D01*
X109139455Y-45509815D01*
X109118817Y-45493185D01*
X109039655Y-45414023D01*
X108867598Y-45299059D01*
X108843784Y-45289195D01*
X108676420Y-45219870D01*
X108676412Y-45219868D01*
X108473469Y-45179500D01*
X108473465Y-45179500D01*
X108266535Y-45179500D01*
X108266530Y-45179500D01*
X108063587Y-45219868D01*
X108063579Y-45219870D01*
X107872403Y-45299058D01*
X107700344Y-45414023D01*
X107554020Y-45560348D01*
X107551999Y-45562811D01*
X107550292Y-45564076D01*
X107549717Y-45564652D01*
X107549631Y-45564566D01*
X107503611Y-45598694D01*
X107478191Y-45609223D01*
X107478182Y-45609228D01*
X107363456Y-45685885D01*
X106059890Y-46989451D01*
X106059884Y-46989458D01*
X106021040Y-47047594D01*
X106021040Y-47047595D01*
X106006716Y-47069032D01*
X105983225Y-47104188D01*
X105983221Y-47104195D01*
X105930421Y-47231667D01*
X105930418Y-47231677D01*
X105903500Y-47367004D01*
X105903500Y-47367007D01*
X105903500Y-51163006D01*
X105903500Y-51300994D01*
X105903500Y-51300996D01*
X105903499Y-51300996D01*
X105930418Y-51436322D01*
X105930421Y-51436332D01*
X105983222Y-51563807D01*
X106059887Y-51678545D01*
X106830684Y-52449342D01*
X106864169Y-52510665D01*
X106859185Y-52580357D01*
X106817313Y-52636290D01*
X106751849Y-52660707D01*
X106729748Y-52660313D01*
X106680328Y-52655000D01*
X105832500Y-52655000D01*
X105832500Y-53604998D01*
X105772098Y-53579979D01*
X105646519Y-53555000D01*
X105518481Y-53555000D01*
X105392902Y-53579979D01*
X105332500Y-53604998D01*
X105332500Y-52655000D01*
X104484655Y-52655000D01*
X104425127Y-52661401D01*
X104425120Y-52661403D01*
X104290413Y-52711645D01*
X104290406Y-52711649D01*
X104175312Y-52797809D01*
X104175309Y-52797812D01*
X104089149Y-52912906D01*
X104089145Y-52912913D01*
X104038903Y-53047620D01*
X104038901Y-53047627D01*
X104032500Y-53107155D01*
X100300500Y-53107155D01*
X100300500Y-47374038D01*
X101899500Y-47374038D01*
X101899500Y-47625962D01*
X101931689Y-47829195D01*
X101938910Y-47874785D01*
X102016760Y-48114383D01*
X102131132Y-48338848D01*
X102279201Y-48542649D01*
X102279205Y-48542654D01*
X102457345Y-48720794D01*
X102457350Y-48720798D01*
X102615674Y-48835826D01*
X102661155Y-48868870D01*
X102804184Y-48941747D01*
X102885616Y-48983239D01*
X102885618Y-48983239D01*
X102885621Y-48983241D01*
X103125215Y-49061090D01*
X103374038Y-49100500D01*
X103374039Y-49100500D01*
X103625961Y-49100500D01*
X103625962Y-49100500D01*
X103874785Y-49061090D01*
X104114379Y-48983241D01*
X104338845Y-48868870D01*
X104542656Y-48720793D01*
X104720793Y-48542656D01*
X104868870Y-48338845D01*
X104983241Y-48114379D01*
X105061090Y-47874785D01*
X105100500Y-47625962D01*
X105100500Y-47374038D01*
X105061090Y-47125215D01*
X104983241Y-46885621D01*
X104983239Y-46885618D01*
X104983239Y-46885616D01*
X104902723Y-46727596D01*
X104868870Y-46661155D01*
X104846307Y-46630099D01*
X104720798Y-46457350D01*
X104720794Y-46457345D01*
X104542654Y-46279205D01*
X104542649Y-46279201D01*
X104338848Y-46131132D01*
X104338847Y-46131131D01*
X104338845Y-46131130D01*
X104268747Y-46095413D01*
X104114383Y-46016760D01*
X103874785Y-45938910D01*
X103777996Y-45923580D01*
X103625962Y-45899500D01*
X103374038Y-45899500D01*
X103249626Y-45919205D01*
X103125214Y-45938910D01*
X102885616Y-46016760D01*
X102661151Y-46131132D01*
X102457350Y-46279201D01*
X102457345Y-46279205D01*
X102279205Y-46457345D01*
X102279201Y-46457350D01*
X102131132Y-46661151D01*
X102016760Y-46885616D01*
X101938910Y-47125214D01*
X101922049Y-47231672D01*
X101899500Y-47374038D01*
X100300500Y-47374038D01*
X100300500Y-47003480D01*
X100300695Y-46996527D01*
X100302722Y-46960438D01*
X100317084Y-46704691D01*
X100318638Y-46690898D01*
X100367015Y-46406167D01*
X100370109Y-46392615D01*
X100387151Y-46333463D01*
X100450061Y-46115096D01*
X100454653Y-46101975D01*
X100481564Y-46037007D01*
X100565175Y-45835151D01*
X100571195Y-45822651D01*
X100710902Y-45569869D01*
X100718297Y-45558101D01*
X100885428Y-45322551D01*
X100894079Y-45311704D01*
X101086527Y-45096356D01*
X101096358Y-45086526D01*
X101311707Y-44894077D01*
X101322549Y-44885430D01*
X101508672Y-44753368D01*
X101574735Y-44730631D01*
X101580424Y-44730500D01*
X106109560Y-44730500D01*
X106109562Y-44730500D01*
X106185989Y-44710021D01*
X106254511Y-44670460D01*
X106310460Y-44614511D01*
X106350021Y-44545989D01*
X106370500Y-44469562D01*
X106370500Y-44424500D01*
X106390185Y-44357461D01*
X106442989Y-44311706D01*
X106494500Y-44300500D01*
X161952405Y-44300500D01*
X161996519Y-44300500D01*
X162003472Y-44300695D01*
G37*
G04 #@! TD.AperFunction*
M02*
